SplineFontDB: 3.0
FontName: Rakhi
FullName: Rakhi
FamilyName: Rakhi
Weight: Book
Copyright: Copyright(C) 2013 Rahul.V, All rights reserved. Mob:+91-99464 29992, 88910 29992. Email: rahulv@kimo.com, www.neflone.com. Thanima font Licensed under the GNU GENERAL PUBLIC LICENSE Version 3. As a special exception, if you create a document which uses this font, and embed this font or unaltered portions of this font into the document, this font does not by itself cause the resulting document to be covered by the GNU General Public License. This exception does not however invalidate any other reasons why the document might be covered by the GNU General Public License. \nSpecial Thanks To: Jijo George &Team SMC
Version: 1.00 January 31, 2013
ItalicAngle: 0
UnderlinePosition: -942
UnderlineWidth: 61
Ascent: 1638
Descent: 410
sfntRevision: 0x00040000
LayerCount: 2
Layer: 0 1 "Back"  1
Layer: 1 1 "Fore"  0
XUID: [1021 623 207031617 16088891]
FSType: 0
OS2Version: 1
OS2_WeightWidthSlopeOnly: 0
OS2_UseTypoMetrics: 1
CreationTime: 1201144287
ModificationTime: 1359643962
PfmFamily: 17
TTFWeight: 400
TTFWidth: 5
LineGap: 0
VLineGap: 0
Panose: 2 0 6 3 0 0 0 0 0 0
OS2TypoAscent: 1780
OS2TypoAOffset: 0
OS2TypoDescent: -910
OS2TypoDOffset: 0
OS2TypoLinegap: 205
OS2WinAscent: 1750
OS2WinAOffset: 0
OS2WinDescent: 1500
OS2WinDOffset: 0
HheadAscent: 1500
HheadAOffset: 0
HheadDescent: 950
HheadDOffset: 0
OS2SubXSize: 2327
OS2SubYSize: 2225
OS2SubXOff: 0
OS2SubYOff: 150
OS2SupXSize: 2327
OS2SupYSize: 2427
OS2SupXOff: 0
OS2SupYOff: 977
OS2StrikeYSize: 98
OS2StrikeYPos: 512
OS2Vendor: 'PfEd'
OS2CodePages: 00000001.00000000
OS2UnicodeRanges: 80800003.00002000.00000000.00000000
Lookup: 4 0 0 "'akhn' Akhand in Malay+AQEA-lam lookup 0"  {"'akhn' Akhand in Malay+AQEA-lam lookup 0 subtable"  } ['akhn' ('mlym' <'dflt' > ) ]
Lookup: 4 0 0 "'half' Half Forms in Malay+AQEA-lam lookup 1"  {"'half' Half Forms in Malay+AQEA-lam lookup 1 subtable"  } ['half' ('mlym' <'dflt' > ) ]

StartChar: .notdef
Encoding: 65536 -1 0
Width: 1309
GlyphClass: 2
Flags: W
LayerCount: 2
Fore
SplineSet
950 658 m 0,0,1
 911 623 911 623 873 593 c 0,2,3
 779 517 779 517 779 436 c 2,4,-1
 779 343 l 1,5,-1
 653 343 l 1,6,-1
 653 444 l 2,7,8
 653 544 653 544 743 624 c 1,9,-1
 743 623 l 1,10,11
 764 639 764 639 784 656 c 128,-1,12
 804 673 804 673 823 691 c 1,13,-1
 823 690 l 1,14,15
 915 766 915 766 915 851 c 0,16,17
 915 935 915 935 864 978 c 0,18,19
 811 1023 811 1023 713 1023 c 0,20,21
 614 1023 614 1023 571.5 967 c 128,-1,22
 529 911 529 911 529 804 c 1,23,-1
 412 804 l 1,24,25
 413 963 413 963 493 1046 c 128,-1,26
 573 1129 573 1129 723 1129 c 0,27,28
 872 1129 872 1129 957 1055 c 1,29,30
 1043 982 1043 982 1043 863 c 256,31,32
 1043 744 1043 744 950 658 c 0,0,1
779 262 m 1,33,-1
 779 118 l 1,34,-1
 653 118 l 1,35,-1
 653 262 l 1,36,-1
 779 262 l 1,33,-1
1296 1498 m 1,37,-1
 1296 -224 l 1,38,-1
 175 -224 l 1,39,-1
 175 1498 l 1,40,-1
 1296 1498 l 1,37,-1
304 1361 m 1,41,-1
 304 -97 l 1,42,-1
 1173 -97 l 1,43,-1
 1173 1361 l 1,44,-1
 304 1361 l 1,41,-1
EndSplineSet
EndChar

StartChar: asciitilde
Encoding: 126 126 5
Width: 784
GlyphClass: 2
Flags: W
LayerCount: 2
Fore
SplineSet
608 653 m 0,0,1
 547 653 547 653 471 702 c 1,2,3
 412 745 412 745 350 788 c 1,4,5
 305 815 305 815 272 815 c 0,6,7
 195 815 195 815 184 692 c 1,8,-1
 123 692 l 1,9,10
 137 901 137 901 276 901 c 0,11,12
 313 901 313 901 352 877 c 2,13,-1
 528 768 l 2,14,15
 573 739 573 739 608 739 c 0,16,17
 692 739 692 739 694 858 c 1,18,-1
 756 858 l 1,19,-1
 756 844 l 2,20,21
 756 762 756 762 721 711 c 0,22,23
 680 653 680 653 608 653 c 0,0,1
EndSplineSet
EndChar

StartChar: uni0D02
Encoding: 3330 3330 7
Width: 1041
GlyphClass: 2
Flags: W
LayerCount: 2
Fore
SplineSet
603 883 m 0,0,1
 690 883 690 883 767 848.5 c 128,-1,2
 844 814 844 814 906 756 c 1,3,4
 963 691 963 691 993 607 c 128,-1,5
 1023 523 1023 523 1023 425 c 0,6,7
 1023 226 1023 226 905 111 c 0,8,9
 787 -3 787 -3 602 -3 c 0,10,11
 416 -3 416 -3 295 111 c 1,12,13
 175 226 175 226 175 429 c 256,14,15
 175 632 175 632 297 758 c 1,16,17
 422 883 422 883 603 883 c 0,0,1
851 430 m 0,18,19
 851 576 851 576 794 673 c 0,20,21
 738 770 738 770 603 770 c 0,22,23
 472 770 472 770 403 666 c 1,24,25
 346 565 346 565 346 430 c 0,26,27
 346 111 346 111 603 111 c 0,28,29
 851 111 851 111 851 430 c 0,18,19
EndSplineSet
EndChar

StartChar: uni0D03
Encoding: 3331 3331 8
Width: 754
GlyphClass: 2
Flags: W
LayerCount: 2
Fore
SplineSet
253 1099 m 1,0,1
 339 1183 339 1183 463 1183 c 0,2,3
 589 1183 589 1183 663 1097 c 1,4,5
 736 1010 736 1010 736 888 c 256,6,7
 736 766 736 766 663 686 c 256,8,9
 590 606 590 606 464 606 c 256,10,11
 338 606 338 606 256 681 c 0,12,13
 175 756 175 756 175 887 c 0,14,15
 175 1019 175 1019 253 1099 c 1,0,1
670 481 m 1,16,17
 736 405 736 405 736 280 c 0,18,19
 736 220 736 220 717 169.5 c 128,-1,20
 698 119 698 119 662 77 c 1,21,22
 624 40 624 40 574.5 19.5 c 128,-1,23
 525 -1 525 -1 465 -1 c 0,24,25
 343 -1 343 -1 258 74 c 1,26,27
 175 150 175 150 175 282 c 0,28,29
 175 416 175 416 253 492 c 0,30,31
 337 574 337 574 465 574 c 256,32,33
 593 574 593 574 670 481 c 1,16,17
466 726 m 0,34,35
 574 726 574 726 574 894 c 0,36,37
 574 1063 574 1063 456 1063 c 256,38,39
 338 1063 338 1063 338 894 c 0,40,41
 338 726 338 726 466 726 c 0,34,35
466 119 m 0,42,43
 574 119 574 119 574 286 c 0,44,45
 574 455 574 455 456 455 c 256,46,47
 338 455 338 455 338 286 c 0,48,49
 338 119 338 119 466 119 c 0,42,43
EndSplineSet
EndChar

StartChar: uni0D05
Encoding: 3333 3333 10
Width: 2814
GlyphClass: 2
Flags: W
LayerCount: 2
Fore
SplineSet
1146 97 m 0,0,1
 1229 97 1229 97 1275.5 148.5 c 128,-1,2
 1322 200 1322 200 1322 287 c 0,3,4
 1322 373 1322 373 1275.5 425 c 128,-1,5
 1229 477 1229 477 1147 477 c 0,6,7
 1140 477 1140 477 1054 470 c 1,8,-1
 997 460 l 1,9,-1
 1001 619 l 1,10,-1
 1058 610 l 1,11,12
 1108 601 1108 601 1137 601 c 0,13,14
 1213 601 1213 601 1258 649.5 c 128,-1,15
 1303 698 1303 698 1303 781 c 0,16,17
 1303 862 1303 862 1251 928.5 c 128,-1,18
 1199 995 1199 995 1123 1009 c 1,19,20
 1001 961 1001 961 938 828.5 c 128,-1,21
 875 696 875 696 875 532.5 c 128,-1,22
 875 369 875 369 933 247 c 0,23,24
 1005 97 1005 97 1146 97 c 0,0,1
2535 191 m 0,25,26
 2582 270 2582 270 2582 385 c 0,27,28
 2582 499 2582 499 2531 568 c 128,-1,29
 2480 637 2480 637 2380 637 c 0,30,31
 2278 637 2278 637 2225 562.5 c 128,-1,32
 2172 488 2172 488 2172 373 c 0,33,34
 2172 257 2172 257 2218 185 c 1,35,36
 2270 101 2270 101 2377 101 c 0,37,38
 2482 101 2482 101 2535 191 c 0,25,26
875 1072 m 1,40,-1
 835 1072 l 2,41,42
 645 1072 645 1072 490 925 c 1,43,44
 362 781 362 781 362 563 c 0,45,46
 362 265 362 265 567 114 c 1,47,-1
 609 86 l 1,48,-1
 523 -31 l 1,49,-1
 482 -7 l 1,50,51
 175 184 175 184 175 577 c 1,52,53
 192 908 192 908 468 1090 c 1,54,55
 625 1181 625 1181 831 1181 c 0,56,57
 877 1181 877 1181 919 1177 c 1,58,59
 1020 1171 1020 1171 1081 1150.5 c 128,-1,60
 1142 1130 1142 1130 1147 1128 c 1,61,62
 1251 1171 1251 1171 1383 1171 c 0,63,64
 1635 1171 1635 1171 1774 1016 c 1,65,66
 1943 1176 1943 1176 2210 1176 c 0,67,68
 2476 1176 2476 1176 2636 1000.5 c 128,-1,69
 2796 825 2796 825 2796 580 c 0,70,71
 2796 332 2796 332 2704 178 c 1,72,73
 2590 -16 2590 -16 2366 -16 c 0,74,75
 2198 -16 2198 -16 2093 94 c 128,-1,76
 1988 204 1988 204 1988 369 c 128,-1,77
 1988 534 1988 534 2088 644 c 128,-1,78
 2188 754 2188 754 2366 754 c 0,79,80
 2511 754 2511 754 2620 653 c 1,81,82
 2609 813 2609 813 2502 930 c 1,83,84
 2385 1061 2385 1061 2204 1061 c 2,85,-1
 2192 1061 l 2,86,87
 2104 1061 2104 1061 2014 1014.5 c 128,-1,88
 1924 968 1924 968 1888.5 893.5 c 128,-1,89
 1853 819 1853 819 1853 710 c 2,90,-1
 1853 4 l 1,91,-1
 1683 4 l 1,92,-1
 1683 717 l 2,93,94
 1683 828 1683 828 1649 898 c 128,-1,95
 1615 968 1615 968 1528 1013 c 0,96,97
 1444 1057 1444 1057 1349 1057 c 0,98,99
 1332 1057 1332 1057 1316 1056 c 1,100,101
 1481 962 1481 962 1481 777 c 0,102,103
 1481 685 1481 685 1438.5 627.5 c 128,-1,104
 1396 570 1396 570 1351 542 c 1,105,106
 1402 515 1402 515 1447 456 c 128,-1,107
 1492 397 1492 397 1492 301 c 0,108,109
 1492 158 1492 158 1390.5 73.5 c 128,-1,110
 1289 -11 1289 -11 1146 -11 c 0,111,112
 916 -11 916 -11 791 169 c 0,113,114
 685 320 685 320 685 549 c 0,115,116
 685 909 685 909 952 1061 c 1,117,39
 916 1069 916 1069 875 1072 c 1,40,-1
EndSplineSet
EndChar

StartChar: uni0D06
Encoding: 3334 3334 11
Width: 3227
GlyphClass: 2
Flags: W
LayerCount: 2
Fore
SplineSet
2377 111 m 0,0,1
 2496 111 2496 111 2553 230 c 1,2,3
 2611 347 2611 347 2611 522 c 0,4,5
 2611 698 2611 698 2579 789 c 1,6,7
 2389 776 2389 776 2290 642 c 1,8,9
 2209 514 2209 514 2209 362 c 0,10,11
 2209 309 2209 309 2219.5 265.5 c 128,-1,12
 2230 222 2230 222 2250 189 c 1,13,14
 2307 111 2307 111 2377 111 c 0,0,1
1146 97 m 0,15,16
 1229 97 1229 97 1275.5 148.5 c 128,-1,17
 1322 200 1322 200 1322 287 c 0,18,19
 1322 373 1322 373 1275.5 425 c 128,-1,20
 1229 477 1229 477 1147 477 c 0,21,22
 1140 477 1140 477 1054 470 c 1,23,-1
 997 460 l 1,24,-1
 1001 619 l 1,25,-1
 1058 610 l 1,26,27
 1108 601 1108 601 1137 601 c 0,28,29
 1213 601 1213 601 1258 649.5 c 128,-1,30
 1303 698 1303 698 1303 781 c 0,31,32
 1303 862 1303 862 1251 928.5 c 128,-1,33
 1199 995 1199 995 1123 1009 c 1,34,35
 1001 961 1001 961 938 828.5 c 128,-1,36
 875 696 875 696 875 532 c 0,37,38
 875 369 875 369 933 247 c 0,39,40
 1005 97 1005 97 1146 97 c 0,15,16
2703 912 m 1,41,42
 2814 906 2814 906 2905 864 c 0,43,44
 3000 820 3000 820 3069 745 c 1,45,46
 3135 661 3135 661 3172 558.5 c 128,-1,47
 3209 456 3209 456 3209 342 c 0,48,49
 3209 39 3209 39 3022 -150 c 1,50,51
 2842 -327 2842 -327 2568 -327 c 0,52,53
 2480 -327 2480 -327 2386.5 -305.5 c 128,-1,54
 2293 -284 2293 -284 2190 -228 c 1,55,-1
 2290 -120 l 1,56,57
 2432 -207 2432 -207 2578 -207 c 0,58,59
 2672 -207 2672 -207 2755.5 -172.5 c 128,-1,60
 2839 -138 2839 -138 2900 -62 c 1,61,62
 2964 13 2964 13 2998 117 c 128,-1,63
 3032 221 3032 221 3034 339 c 0,64,65
 3035 347 3035 347 3035 357 c 0,66,67
 3035 366 3035 366 3035 373 c 0,68,69
 3035 436 3035 436 3020 496.5 c 128,-1,70
 3005 557 3005 557 2976 611 c 0,71,72
 2909 737 2909 737 2772 774 c 1,73,74
 2786 733 2786 733 2793 674 c 128,-1,75
 2800 615 2800 615 2800 535 c 0,76,77
 2800 310 2800 310 2692 163 c 1,78,79
 2572 -10 2572 -10 2377 -10 c 0,80,81
 2243 -10 2243 -10 2140 82 c 1,82,83
 2038 176 2038 176 2036 372 c 0,84,85
 2036 375 2036 375 2036 378 c 0,86,87
 2036 474 2036 474 2069 561 c 0,88,89
 2103 649 2103 649 2169 726 c 1,90,91
 2235 792 2235 792 2320.5 833 c 128,-1,92
 2406 874 2406 874 2509 887 c 1,93,-1
 2531 891 l 1,94,95
 2514 917 2514 917 2502 930 c 0,96,97
 2385 1061 2385 1061 2204 1061 c 2,98,-1
 2192 1061 l 2,99,100
 2104 1061 2104 1061 2014 1014.5 c 128,-1,101
 1924 968 1924 968 1888.5 893.5 c 128,-1,102
 1853 819 1853 819 1853 710 c 2,103,-1
 1853 4 l 1,104,-1
 1683 4 l 1,105,-1
 1683 717 l 2,106,107
 1683 828 1683 828 1649 898 c 128,-1,108
 1615 968 1615 968 1528 1013 c 0,109,110
 1444 1057 1444 1057 1349 1057 c 0,111,112
 1332 1057 1332 1057 1316 1056 c 1,113,114
 1481 962 1481 962 1481 777 c 0,115,116
 1481 685 1481 685 1438.5 627.5 c 128,-1,117
 1396 570 1396 570 1351 542 c 1,118,119
 1402 515 1402 515 1447 456 c 128,-1,120
 1492 397 1492 397 1492 301 c 0,121,122
 1492 158 1492 158 1390.5 73.5 c 128,-1,123
 1289 -11 1289 -11 1146 -11 c 0,124,125
 916 -11 916 -11 791 169 c 0,126,127
 685 320 685 320 685 549 c 0,128,129
 685 909 685 909 952 1061 c 1,130,131
 916 1069 916 1069 875 1072 c 1,132,-1
 835 1072 l 2,133,134
 645 1072 645 1072 490 925 c 1,135,136
 362 781 362 781 362 563 c 0,137,138
 362 265 362 265 567 114 c 1,139,-1
 609 86 l 1,140,-1
 523 -31 l 1,141,-1
 482 -7 l 1,142,143
 175 184 175 184 175 577 c 1,144,145
 192 908 192 908 468 1090 c 1,146,147
 625 1181 625 1181 831 1181 c 0,148,149
 877 1181 877 1181 919 1177 c 1,150,151
 1020 1171 1020 1171 1081 1150.5 c 128,-1,152
 1142 1130 1142 1130 1147 1128 c 1,153,154
 1251 1171 1251 1171 1383 1171 c 0,155,156
 1635 1171 1635 1171 1774 1016 c 1,157,158
 1943 1176 1943 1176 2210 1176 c 0,159,160
 2476 1176 2476 1176 2636 1001 c 0,161,162
 2674 959 2674 959 2703 912 c 1,41,42
EndSplineSet
EndChar

StartChar: uni0D07
Encoding: 3335 3335 12
Width: 2030
GlyphClass: 2
Flags: W
LayerCount: 2
Fore
SplineSet
740 529 m 0,0,1
 740 745 740 745 565 745 c 0,2,3
 480 745 480 745 424 699 c 256,4,5
 368 653 368 653 368 588 c 0,6,7
 368 478 368 478 422 408 c 1,8,9
 468 342 468 342 555 342 c 0,10,11
 644 342 644 342 692 407 c 0,12,13
 740 471 740 471 740 529 c 0,0,1
342 1033 m 1,14,15
 488 1172 488 1172 731 1172 c 0,16,17
 1026 1172 1026 1172 1160 980 c 1,18,19
 1303 1172 1303 1172 1506 1172 c 2,20,-1
 1526 1172 l 2,21,22
 1752 1172 1752 1172 1884 1024 c 0,23,24
 2020 870 2020 870 2020 628 c 0,25,26
 2020 385 2020 385 1857 227 c 128,-1,27
 1694 69 1694 69 1403 69 c 2,28,-1
 535 69 l 2,29,30
 467 69 467 69 408.5 31.5 c 128,-1,31
 350 -6 350 -6 350 -74 c 0,32,33
 350 -141 350 -141 404 -174 c 128,-1,34
 458 -207 458 -207 532 -207 c 2,35,-1
 1977 -207 l 1,36,-1
 1977 -357 l 1,37,-1
 508 -357 l 2,38,39
 372 -357 372 -357 281.5 -279.5 c 128,-1,40
 191 -202 191 -202 191 -73 c 0,41,42
 191 58 191 58 281.5 129.5 c 128,-1,43
 372 201 372 201 508 201 c 2,44,-1
 1378 201 l 2,45,46
 1582 201 1582 201 1710 308 c 0,47,48
 1839 416 1839 416 1839 635 c 2,49,-1
 1839 642 l 1,50,51
 1840 657 1840 657 1840 672 c 0,52,53
 1840 801 1840 801 1778 915 c 0,54,55
 1709 1042 1709 1042 1539 1045 c 1,56,57
 1367 1032 1367 1032 1302.5 942.5 c 128,-1,58
 1238 853 1238 853 1238 736 c 2,59,-1
 1238 296 l 1,60,-1
 1062 296 l 1,61,-1
 1062 736 l 2,62,63
 1062 862 1062 862 989.5 952.5 c 128,-1,64
 917 1043 917 1043 747 1051 c 1,65,66
 555 1043 555 1043 474 966 c 1,67,68
 419 904 419 904 410 832 c 1,69,70
 474 864 474 864 565 864 c 0,71,72
 736 864 736 864 831 773 c 1,73,74
 926 680 926 680 926 543 c 0,75,76
 926 404 926 404 821 313 c 1,77,-1
 821 314 l 1,78,79
 708 222 708 222 555 222 c 0,80,81
 401 222 401 222 298 309 c 1,82,-1
 298 308 l 1,83,84
 183 409 183 409 183 602 c 1,85,86
 179 718 179 718 214 818 c 1,87,88
 250 927 250 927 342 1033 c 1,14,15
EndSplineSet
EndChar

StartChar: uni0D08
Encoding: 3336 3336 13
Width: 3646
GlyphClass: 2
Flags: W
LayerCount: 2
Fore
SplineSet
2847 1027 m 1,0,1
 2975 1181 2975 1181 3150 1181 c 0,2,3
 3260 1181 3260 1181 3352.5 1137 c 128,-1,4
 3445 1093 3445 1093 3514 1013 c 1,5,6
 3573 937 3573 937 3604.5 842.5 c 128,-1,7
 3636 748 3636 748 3636 641 c 0,8,9
 3636 353 3636 353 3462 176 c 0,10,11
 3290 0 3290 0 3045 0 c 0,12,13
 2966 0 2966 0 2890.5 17.5 c 128,-1,14
 2815 35 2815 35 2746 67 c 1,15,16
 2717 83 2717 83 2687 107 c 128,-1,17
 2657 131 2657 131 2630 162 c 1,18,19
 2602 192 2602 192 2581 222.5 c 128,-1,20
 2560 253 2560 253 2544 285 c 1,21,22
 2576 302 2576 302 2607.5 318.5 c 128,-1,23
 2639 335 2639 335 2672 352 c 1,24,25
 2731 235 2731 235 2824.5 177.5 c 128,-1,26
 2918 120 2918 120 3045 120 c 0,27,28
 3139 120 3139 120 3214 157 c 128,-1,29
 3289 194 3289 194 3348 270 c 1,30,31
 3461 419 3461 419 3461 641 c 0,32,33
 3461 819 3461 819 3392 937 c 1,34,35
 3309 1060 3309 1060 3150 1060 c 0,36,37
 3045 1060 3045 1060 2988 994 c 1,38,39
 2932 927 2932 927 2932 861 c 2,40,-1
 2932 553 l 1,41,-1
 2758 553 l 1,42,-1
 2758 848 l 2,43,44
 2758 915 2758 915 2694 989 c 1,45,46
 2659 1024 2659 1024 2620.5 1042 c 128,-1,47
 2582 1060 2582 1060 2536 1060 c 0,48,49
 2321 1060 2321 1060 2321 763 c 0,50,51
 2321 703 2321 703 2330 642 c 128,-1,52
 2339 581 2339 581 2359 520 c 1,53,54
 2327 508 2327 508 2296.5 496 c 128,-1,55
 2266 484 2266 484 2234 471 c 1,56,57
 2146 612 2146 612 2146 763 c 0,58,59
 2146 956 2146 956 2252 1067 c 0,60,61
 2306 1123 2306 1123 2378 1152 c 128,-1,62
 2450 1181 2450 1181 2541 1181 c 0,63,64
 2722 1181 2722 1181 2844 1027 c 1,65,-1
 2847 1027 l 1,0,1
740 529 m 0,66,67
 740 745 740 745 565 745 c 0,68,69
 480 745 480 745 424 699 c 256,70,71
 368 653 368 653 368 588 c 0,72,73
 368 478 368 478 422 408 c 1,74,75
 468 342 468 342 555 342 c 0,76,77
 644 342 644 342 692 407 c 0,78,79
 740 471 740 471 740 529 c 0,66,67
342 1033 m 1,80,81
 488 1172 488 1172 731 1172 c 0,82,83
 1026 1172 1026 1172 1160 980 c 1,84,85
 1303 1172 1303 1172 1506 1172 c 2,86,-1
 1526 1172 l 2,87,88
 1752 1172 1752 1172 1884 1024 c 0,89,90
 2020 870 2020 870 2020 628 c 0,91,92
 2020 385 2020 385 1857 227 c 128,-1,93
 1694 69 1694 69 1403 69 c 2,94,-1
 535 69 l 2,95,96
 467 69 467 69 408.5 31.5 c 128,-1,97
 350 -6 350 -6 350 -74 c 0,98,99
 350 -141 350 -141 404 -174 c 128,-1,100
 458 -207 458 -207 532 -207 c 2,101,-1
 1977 -207 l 1,102,-1
 1977 -357 l 1,103,-1
 508 -357 l 2,104,105
 372 -357 372 -357 281.5 -279.5 c 128,-1,106
 191 -202 191 -202 191 -73 c 0,107,108
 191 58 191 58 281.5 129.5 c 128,-1,109
 372 201 372 201 508 201 c 2,110,-1
 1378 201 l 2,111,112
 1582 201 1582 201 1710 308 c 0,113,114
 1839 416 1839 416 1839 635 c 2,115,-1
 1839 642 l 1,116,117
 1840 657 1840 657 1840 672 c 0,118,119
 1840 801 1840 801 1778 915 c 0,120,121
 1709 1042 1709 1042 1539 1045 c 1,122,123
 1367 1032 1367 1032 1302.5 942.5 c 128,-1,124
 1238 853 1238 853 1238 736 c 2,125,-1
 1238 296 l 1,126,-1
 1062 296 l 1,127,-1
 1062 736 l 2,128,129
 1062 862 1062 862 989.5 952.5 c 128,-1,130
 917 1043 917 1043 747 1051 c 1,131,132
 555 1043 555 1043 474 966 c 1,133,134
 419 904 419 904 410 832 c 1,135,136
 474 864 474 864 565 864 c 0,137,138
 736 864 736 864 831 773 c 1,139,140
 926 680 926 680 926 543 c 0,141,142
 926 404 926 404 821 313 c 1,143,-1
 821 314 l 1,144,145
 708 222 708 222 555 222 c 0,146,147
 401 222 401 222 298 309 c 1,148,-1
 298 308 l 1,149,150
 183 409 183 409 183 602 c 1,151,152
 179 718 179 718 214 818 c 1,153,154
 250 927 250 927 342 1033 c 1,80,81
EndSplineSet
EndChar

StartChar: uni0D09
Encoding: 3337 3337 14
Width: 1514
GlyphClass: 2
Flags: W
LayerCount: 2
Fore
SplineSet
561 349 m 0,0,1
 720 349 720 349 720 559 c 0,2,3
 720 768 720 768 556 768 c 0,4,5
 474 768 474 768 422 712 c 0,6,7
 370 655 370 655 370 598 c 0,8,9
 370 349 370 349 561 349 c 0,0,1
1302 519 m 0,10,11
 1310 565 1310 565 1310 616 c 0,12,13
 1310 672 1310 672 1301 718.5 c 128,-1,14
 1292 765 1292 765 1274.5 804.5 c 128,-1,15
 1257 844 1257 844 1231 877.5 c 128,-1,16
 1205 911 1205 911 1172 940 c 1,17,18
 1026 1059 1026 1059 809 1059 c 1,19,20
 493 1045 493 1045 408 857 c 1,21,22
 480 889 480 889 559 889 c 0,23,24
 717 889 717 889 819 780 c 0,25,26
 909 683 909 683 909 545 c 0,27,28
 909 408 909 408 817 323 c 1,29,30
 720 230 720 230 564 230 c 0,31,32
 486 230 486 230 419 252.5 c 128,-1,33
 352 275 352 275 299 317 c 1,34,35
 238 368 238 368 206.5 442 c 128,-1,36
 175 516 175 516 175 610 c 0,37,38
 175 732 175 732 214 835.5 c 128,-1,39
 253 939 253 939 324 1018 c 1,40,41
 405 1098 405 1098 527 1139.5 c 128,-1,42
 649 1181 649 1181 809 1181 c 0,43,44
 1077 1181 1077 1181 1271 1059 c 1,45,46
 1494 904 1494 904 1496 585 c 1,47,48
 1484 305 1484 305 1299 157 c 1,49,50
 1155 36 1155 36 767 30 c 1,51,-1
 586 30 l 1,52,53
 348 25 348 25 367 -86 c 1,54,55
 370 -207 370 -207 577 -207 c 2,56,-1
 1464 -207 l 1,57,-1
 1464 -355 l 1,58,-1
 614 -355 l 2,59,60
 202 -355 202 -355 200 -92 c 1,61,62
 202 107 202 107 398 149 c 0,63,64
 485 168 485 168 671 172 c 1,65,-1
 779 172 l 2,66,67
 1240 172 1240 172 1302 519 c 0,10,11
EndSplineSet
EndChar

StartChar: uni0D0A
Encoding: 3338 3338 15
Width: 3176
GlyphClass: 2
Flags: W
LayerCount: 2
Fore
SplineSet
561 349 m 0,0,1
 720 349 720 349 720 559 c 0,2,3
 720 768 720 768 556 768 c 0,4,5
 474 768 474 768 422 712 c 0,6,7
 370 655 370 655 370 598 c 0,8,9
 370 349 370 349 561 349 c 0,0,1
1302 519 m 0,10,11
 1310 565 1310 565 1310 616 c 0,12,13
 1310 672 1310 672 1301 718.5 c 128,-1,14
 1292 765 1292 765 1274.5 804.5 c 128,-1,15
 1257 844 1257 844 1231 877.5 c 128,-1,16
 1205 911 1205 911 1172 940 c 1,17,18
 1026 1059 1026 1059 809 1059 c 1,19,20
 493 1045 493 1045 408 857 c 1,21,22
 480 889 480 889 559 889 c 0,23,24
 717 889 717 889 819 780 c 0,25,26
 909 683 909 683 909 545 c 0,27,28
 909 408 909 408 817 323 c 1,29,30
 720 230 720 230 564 230 c 0,31,32
 486 230 486 230 419 252.5 c 128,-1,33
 352 275 352 275 299 317 c 1,34,35
 238 368 238 368 206.5 442 c 128,-1,36
 175 516 175 516 175 610 c 0,37,38
 175 732 175 732 214 835.5 c 128,-1,39
 253 939 253 939 324 1018 c 1,40,41
 405 1098 405 1098 527 1139.5 c 128,-1,42
 649 1181 649 1181 809 1181 c 0,43,44
 1077 1181 1077 1181 1271 1059 c 1,45,46
 1494 904 1494 904 1496 585 c 1,47,48
 1484 305 1484 305 1299 157 c 1,49,50
 1155 36 1155 36 767 30 c 1,51,-1
 586 30 l 1,52,53
 348 25 348 25 367 -86 c 1,54,55
 370 -207 370 -207 577 -207 c 2,56,-1
 1464 -207 l 1,57,-1
 1464 -355 l 1,58,-1
 614 -355 l 2,59,60
 202 -355 202 -355 200 -92 c 1,61,62
 202 107 202 107 398 149 c 0,63,64
 485 168 485 168 671 172 c 1,65,-1
 779 172 l 2,66,67
 1240 172 1240 172 1302 519 c 0,10,11
2369 1033 m 1,68,69
 2497 1187 2497 1187 2672 1187 c 0,70,71
 2782 1187 2782 1187 2874.5 1143 c 128,-1,72
 2967 1099 2967 1099 3036 1019 c 1,73,74
 3095 943 3095 943 3126.5 848.5 c 128,-1,75
 3158 754 3158 754 3158 647 c 0,76,77
 3158 359 3158 359 2984 182 c 0,78,79
 2812 6 2812 6 2567 6 c 0,80,81
 2488 6 2488 6 2412.5 23.5 c 128,-1,82
 2337 41 2337 41 2268 73 c 1,83,84
 2239 89 2239 89 2209 113 c 128,-1,85
 2179 137 2179 137 2152 168 c 1,86,87
 2124 198 2124 198 2103 228.5 c 128,-1,88
 2082 259 2082 259 2066 291 c 1,89,90
 2098 308 2098 308 2129.5 324.5 c 128,-1,91
 2161 341 2161 341 2194 358 c 1,92,93
 2253 241 2253 241 2346.5 183 c 128,-1,94
 2440 125 2440 125 2567 125 c 0,95,96
 2661 125 2661 125 2736 162.5 c 128,-1,97
 2811 200 2811 200 2870 275 c 1,98,99
 2983 424 2983 424 2983 647 c 0,100,101
 2983 825 2983 825 2914 943 c 1,102,103
 2831 1066 2831 1066 2672 1066 c 0,104,105
 2567 1066 2567 1066 2510 1000 c 1,106,107
 2454 933 2454 933 2454 866 c 2,108,-1
 2454 559 l 1,109,-1
 2280 559 l 1,110,-1
 2280 854 l 2,111,112
 2280 921 2280 921 2216 995 c 1,113,114
 2181 1030 2181 1030 2142.5 1048 c 128,-1,115
 2104 1066 2104 1066 2058 1066 c 0,116,117
 1843 1066 1843 1066 1843 769 c 0,118,119
 1843 709 1843 709 1852 648 c 128,-1,120
 1861 587 1861 587 1881 526 c 1,121,122
 1849 514 1849 514 1818.5 502 c 128,-1,123
 1788 490 1788 490 1756 477 c 1,124,125
 1668 617 1668 617 1668 769 c 0,126,127
 1668 961 1668 961 1774 1073 c 0,128,129
 1828 1129 1828 1129 1900 1158 c 128,-1,130
 1972 1187 1972 1187 2063 1187 c 0,131,132
 2244 1187 2244 1187 2366 1033 c 1,133,-1
 2369 1033 l 1,68,69
EndSplineSet
EndChar

StartChar: uni0D0B
Encoding: 3339 3339 16
Width: 1518
GlyphClass: 2
Flags: W
LayerCount: 2
Fore
SplineSet
1156 -148 m 1,0,1
 1315 -73 1315 -73 1313 38 c 1,2,3
 1313 148 1313 148 1167 221 c 1,4,5
 1108 248 1108 248 1040.5 262 c 128,-1,6
 973 276 973 276 884 277 c 1,7,-1
 777 277 l 2,8,9
 702 277 702 277 632.5 261.5 c 128,-1,10
 563 246 563 246 508 221 c 1,11,12
 437 185 437 185 399.5 140 c 128,-1,13
 362 95 362 95 361 40 c 1,14,15
 361 -71 361 -71 522 -148 c 1,16,17
 589 -178 589 -178 665 -194.5 c 128,-1,18
 741 -211 741 -211 850 -212 c 1,19,20
 937 -211 937 -211 1012.5 -194.5 c 128,-1,21
 1088 -178 1088 -178 1156 -148 c 1,0,1
612 909 m 0,22,23
 612 1058 612 1058 506 1058 c 0,24,25
 481 1058 481 1058 461.5 1046.5 c 128,-1,26
 442 1035 442 1035 428 1015 c 128,-1,27
 414 995 414 995 407 968.5 c 128,-1,28
 400 942 400 942 400 911 c 0,29,30
 400 851 400 851 428 810 c 0,31,32
 457 767 457 767 507 767 c 0,33,34
 558 767 558 767 585 808 c 0,35,36
 612 848 612 848 612 909 c 0,22,23
1062 909 m 0,37,38
 1062 847 1062 847 1090 807 c 128,-1,39
 1118 767 1118 767 1168 767 c 0,40,41
 1216 767 1216 767 1246 810 c 0,42,43
 1260 830 1260 830 1267.5 856.5 c 128,-1,44
 1275 883 1275 883 1275 911 c 0,45,46
 1275 971 1275 971 1249 1013 c 0,47,48
 1222 1058 1222 1058 1171 1058 c 0,49,50
 1062 1058 1062 1058 1062 909 c 0,37,38
1268 331 m 1,51,52
 1353 293 1353 293 1423 215 c 0,53,54
 1496 135 1496 135 1496 35 c 0,55,56
 1496 -168 1496 -168 1254 -270 c 1,57,58
 1089 -338 1089 -338 851 -338 c 0,59,60
 715 -338 715 -338 611 -319 c 128,-1,61
 507 -300 507 -300 424 -267 c 1,62,63
 305 -214 305 -214 242.5 -138.5 c 128,-1,64
 180 -63 180 -63 180 35 c 0,65,66
 180 86 180 86 198 130.5 c 128,-1,67
 216 175 216 175 252 215 c 0,68,69
 327 297 327 297 410 334 c 1,70,71
 364 358 364 358 322.5 397.5 c 128,-1,72
 281 437 281 437 246 494 c 0,73,74
 175 607 175 607 175 772 c 0,75,76
 175 938 175 938 266 1055 c 256,77,78
 357 1172 357 1172 509 1172 c 0,79,80
 568 1172 568 1172 615 1154.5 c 128,-1,81
 662 1137 662 1137 699 1104 c 0,82,83
 773 1036 773 1036 773 917 c 0,84,85
 773 799 773 799 698 726 c 0,86,87
 625 654 625 654 523 654 c 0,88,89
 423 654 423 654 366 708 c 0,90,91
 362 711 362 711 356.5 718 c 128,-1,92
 351 725 351 725 343 733 c 1,93,94
 387 387 387 387 848 390 c 1,95,96
 1291 390 1291 390 1333 743 c 1,97,98
 1323 730 1323 730 1316 722 c 128,-1,99
 1309 714 1309 714 1304 708 c 1,100,101
 1249 665 1249 665 1200 660.5 c 128,-1,102
 1151 656 1151 656 1149 656 c 0,103,104
 1050 656 1050 656 976 727 c 0,105,106
 902 797 902 797 902 916 c 0,107,108
 902 1033 902 1033 977 1104 c 1,109,110
 1052 1172 1052 1172 1166 1172 c 0,111,112
 1318 1172 1318 1172 1410 1055 c 1,113,114
 1500 938 1500 938 1500 772 c 0,115,116
 1500 608 1500 608 1429 494 c 1,117,118
 1360 381 1360 381 1268 336 c 1,119,-1
 1268 331 l 1,51,52
EndSplineSet
EndChar

StartChar: l1
Encoding: 3340 3340 17
Width: 2314
GlyphClass: 2
Flags: W
LayerCount: 2
Fore
SplineSet
374 394 m 0,0,1
 374 254 374 254 433 170 c 1,2,3
 492 84 492 84 598 84 c 0,4,5
 705 84 705 84 764 163 c 0,6,7
 822 240 822 240 822 367 c 0,8,9
 822 506 822 506 764 580 c 0,10,11
 705 656 705 656 599 656 c 256,12,13
 493 656 493 656 434 579 c 1,14,15
 374 504 374 504 374 394 c 0,0,1
2037 580 m 1,16,17
 1978 656 1978 656 1872 656 c 256,18,19
 1766 656 1766 656 1707 581 c 0,20,21
 1649 508 1649 508 1649 370 c 0,22,23
 1649 246 1649 246 1707 170 c 0,24,25
 1766 92 1766 92 1873 92 c 0,26,27
 1979 92 1979 92 2038 176 c 256,28,29
 2097 260 2097 260 2097 397 c 0,30,31
 2097 506 2097 506 2037 580 c 1,16,17
1432 988 m 1,33,34
 1331 911 1331 911 1331 816 c 2,35,-1
 1331 10 l 1,36,-1
 1143 10 l 1,37,-1
 1144 819 l 2,38,39
 1144 914 1144 914 1039 991 c 1,40,41
 938 1067 938 1067 792 1062 c 1,42,43
 584 1061 584 1061 467 939 c 0,44,45
 351 817 351 817 357 653 c 1,46,47
 398 695 398 695 424 712 c 0,48,49
 468 740 468 740 517.5 754.5 c 128,-1,50
 567 769 567 769 623 769 c 0,51,52
 777 769 777 769 885 662 c 0,53,54
 992 555 992 555 992 387 c 0,55,56
 992 193 992 193 892 78 c 1,57,58
 791 -34 791 -34 612 -34 c 0,59,60
 388 -34 388 -34 269 149 c 0,61,62
 175 294 175 294 175 536 c 2,63,-1
 175 566 l 2,64,65
 175 846 175 846 343 1010 c 0,66,67
 512 1175 512 1175 797 1180 c 1,68,69
 882 1179 882 1179 937.5 1167 c 128,-1,70
 993 1155 993 1155 1041 1137 c 1,71,72
 1113 1103 1113 1103 1163.5 1063.5 c 128,-1,73
 1214 1024 1214 1024 1244 980 c 1,74,75
 1390 1183 1390 1183 1674 1180 c 1,76,77
 1959 1175 1959 1175 2128 1010 c 0,78,79
 2296 846 2296 846 2296 566 c 2,80,-1
 2296 536 l 2,81,82
 2296 294 2296 294 2202 149 c 0,83,84
 2083 -34 2083 -34 1859 -34 c 0,85,86
 1680 -34 1680 -34 1579 78 c 1,87,88
 1479 193 1479 193 1479 387 c 0,89,90
 1479 555 1479 555 1586 662 c 0,91,92
 1694 769 1694 769 1848 769 c 0,93,94
 1904 769 1904 769 1953.5 754.5 c 128,-1,95
 2003 740 2003 740 2047 712 c 0,96,97
 2073 695 2073 695 2114 653 c 1,98,99
 2120 817 2120 817 2004 939 c 0,100,101
 1887 1061 1887 1061 1679 1062 c 1,102,32
 1529 1057 1529 1057 1432 988 c 1,33,34
EndSplineSet
EndChar

StartChar: uni0D0E
Encoding: 3342 3342 19
Width: 2612
GlyphClass: 2
Flags: W
LayerCount: 2
Fore
SplineSet
1829 2 m 1,0,-1
 1410 2 l 1,1,2
 1422 -137 1422 -137 1466 -229 c 0,3,4
 1532 -365 1532 -365 1684 -365 c 0,5,6
 1834 -365 1834 -365 1834 -143 c 0,7,8
 1834 -102 1834 -102 1832 -65 c 0,9,10
 1829 -9 1829 -9 1829 2 c 1,0,-1
2579 9 m 0,12,13
 2565 -103 2565 -103 2534 -191 c 0,14,15
 2517 -238 2517 -238 2490.5 -285.5 c 128,-1,16
 2464 -333 2464 -333 2432 -375 c 1,17,18
 2389 -425 2389 -425 2343 -458 c 128,-1,19
 2297 -491 2297 -491 2250 -505 c 1,20,-1
 2159 -428 l 1,21,22
 2265 -393 2265 -393 2325.5 -254 c 128,-1,23
 2386 -115 2386 -115 2397 116 c 0,24,25
 2399 168 2399 168 2401 350 c 1,26,27
 2401 656 2401 656 2305 838 c 1,28,29
 2182 1055 2182 1055 1909 1055 c 1,30,31
 1663 1054 1663 1054 1532 880 c 128,-1,32
 1401 706 1401 706 1401 247 c 2,33,-1
 1401 116 l 1,34,-1
 1830 116 l 1,35,-1
 1831 941 l 1,36,-1
 2010 939 l 1,37,-1
 2011 7 l 2,38,39
 2011 -221 2011 -221 1977 -310 c 0,40,41
 1912 -478 1912 -478 1668 -478 c 0,42,43
 1445 -478 1445 -478 1329 -309 c 1,44,45
 1245 -184 1245 -184 1220 0 c 1,46,-1
 658 0 l 1,47,-1
 629 89 l 1,48,-1
 652 103 l 1,49,50
 803 181 803 181 799 378 c 1,51,52
 799 497 799 497 743.5 568 c 128,-1,53
 688 639 688 639 583 644 c 1,54,55
 473 644 473 644 416 572 c 128,-1,56
 359 500 359 500 359 385 c 0,57,58
 359 170 359 170 502 103 c 1,59,-1
 535 91 l 1,60,-1
 491 -11 l 1,61,-1
 442 5 l 1,62,63
 315 49 315 49 245 136 c 128,-1,64
 175 223 175 223 175 391 c 0,65,66
 175 557 175 557 291.5 658 c 128,-1,67
 408 759 408 759 584 759 c 256,68,69
 760 759 760 759 873 658 c 128,-1,70
 986 557 986 557 986 392 c 0,71,72
 986 226 986 226 877 114 c 1,73,-1
 1206 114 l 1,74,-1
 1206 116 l 1,75,76
 1204 203 1204 203 1203 270 c 1,77,78
 1203 654 1203 654 1354 890 c 0,79,80
 1539 1179 1539 1179 1906 1179 c 0,81,82
 2272 1179 2272 1179 2447 924 c 1,83,84
 2594 712 2594 712 2594 351 c 1,85,11
 2592 116 2592 116 2579 9 c 0,12,13
EndSplineSet
EndChar

StartChar: uni0D0F
Encoding: 3343 3343 20
Width: 2593
GlyphClass: 2
Flags: W
LayerCount: 2
Fore
SplineSet
1789 2 m 1,0,-1
 1410 2 l 1,1,2
 1422 -137 1422 -137 1466 -229 c 0,3,4
 1532 -365 1532 -365 1664 -365 c 0,5,6
 1794 -365 1794 -365 1794 -143 c 0,7,8
 1794 -102 1794 -102 1792 -65 c 0,9,10
 1789 -9 1789 -9 1789 2 c 1,0,-1
2531 675 m 1,11,12
 2531 597 2531 597 2502 529.5 c 128,-1,13
 2473 462 2473 462 2416 402 c 1,14,15
 2377 364 2377 364 2367 358 c 1,16,17
 2575 253 2575 253 2575 -61 c 0,18,19
 2575 -240 2575 -240 2473 -358 c 1,20,21
 2372 -479 2372 -479 2179 -483 c 1,22,23
 2114 -478 2114 -478 2065 -456 c 1,24,-1
 2065 -341 l 1,25,26
 2129 -356 2129 -356 2178 -357 c 0,27,28
 2273 -360 2273 -360 2330 -269 c 1,29,30
 2386 -167 2386 -167 2386 -61 c 0,31,32
 2386 211 2386 211 2207 274 c 1,33,34
 2196 276 2196 276 2183 277.5 c 128,-1,35
 2170 279 2170 279 2155 279 c 0,36,37
 2123 279 2123 279 2083 273 c 0,38,39
 2078 272 2078 272 2072.5 271 c 128,-1,40
 2067 270 2067 270 2062 268 c 1,41,-1
 2062 438 l 1,42,43
 2070 436 2070 436 2077 434 c 128,-1,44
 2084 432 2084 432 2092 430 c 0,45,46
 2125 421 2125 421 2155 421 c 0,47,48
 2184 421 2184 421 2208 430 c 1,49,50
 2343 491 2343 491 2343 677 c 0,51,52
 2343 758 2343 758 2305 838 c 1,53,54
 2182 1055 2182 1055 1909 1055 c 1,55,56
 1663 1054 1663 1054 1532 880 c 128,-1,57
 1401 706 1401 706 1401 247 c 2,58,-1
 1401 116 l 1,59,-1
 1790 116 l 1,60,-1
 1791 941 l 1,61,-1
 1970 939 l 1,62,-1
 1971 7 l 2,63,64
 1971 -221 1971 -221 1937 -310 c 0,65,66
 1872 -478 1872 -478 1648 -478 c 0,67,68
 1445 -478 1445 -478 1329 -309 c 1,69,70
 1245 -184 1245 -184 1220 0 c 1,71,-1
 658 0 l 1,72,-1
 629 89 l 1,73,-1
 652 103 l 1,74,75
 803 181 803 181 799 378 c 1,76,77
 799 497 799 497 743.5 568 c 128,-1,78
 688 639 688 639 583 644 c 1,79,80
 473 644 473 644 416 572 c 128,-1,81
 359 500 359 500 359 385 c 0,82,83
 359 170 359 170 502 103 c 1,84,-1
 535 91 l 1,85,-1
 491 -11 l 1,86,-1
 442 5 l 1,87,88
 315 49 315 49 245 136 c 128,-1,89
 175 223 175 223 175 391 c 0,90,91
 175 557 175 557 291.5 658 c 128,-1,92
 408 759 408 759 584 759 c 256,93,94
 760 759 760 759 873 658 c 128,-1,95
 986 557 986 557 986 392 c 0,96,97
 986 226 986 226 877 114 c 1,98,-1
 1206 114 l 1,99,-1
 1206 116 l 1,100,101
 1204 203 1204 203 1203 270 c 1,102,103
 1203 654 1203 654 1354 890 c 0,104,105
 1539 1179 1539 1179 1906 1179 c 0,106,107
 2264 1179 2264 1179 2453 931 c 1,108,109
 2526 841 2526 841 2531 675 c 1,11,12
EndSplineSet
EndChar

StartChar: uni0D10
Encoding: 3344 3344 21
Width: 4142
GlyphClass: 2
Flags: W
LayerCount: 2
Fore
SplineSet
382.5 311 m 128,-1,1
 395 256 395 256 417 214 c 0,2,3
 445 160 445 160 487.5 130.5 c 128,-1,4
 530 101 530 101 588 98 c 1,5,6
 705 99 705 99 758 191 c 0,7,8
 810 281 810 281 810 413 c 1,9,10
 809 442 809 442 795 496 c 128,-1,11
 781 550 781 550 755 593 c 1,12,13
 700 677 700 677 590 682 c 1,14,-1
 585 682 l 1,15,16
 370 683 370 683 364 452 c 1,17,0
 370 366 370 366 382.5 311 c 128,-1,1
1345 560 m 1,18,19
 1352 769 1352 769 1223.5 910.5 c 128,-1,20
 1095 1052 1095 1052 868 1059 c 1,21,22
 648 1059 648 1059 536 984 c 1,23,24
 418 902 418 902 380 751 c 1,25,26
 482 800 482 800 631 800 c 0,27,28
 781 800 781 800 890 679 c 0,29,30
 998 558 998 558 998 419 c 0,31,32
 998 329 998 329 969.5 251.5 c 128,-1,33
 941 174 941 174 890 114 c 1,34,35
 835 52 835 52 759 20 c 128,-1,36
 683 -12 683 -12 588 -12 c 0,37,38
 394 -12 394 -12 282 140 c 1,39,40
 175 301 175 301 175 560 c 1,41,42
 197 917 197 917 428 1073 c 1,43,44
 594 1183 594 1183 882 1183 c 1,45,46
 1177 1174 1177 1174 1353 1001 c 0,47,48
 1511 845 1511 845 1523 593 c 1,49,50
 1515 162 1515 162 1190 -20 c 1,51,-1
 1106 101 l 1,52,53
 1329 228 1329 228 1345 560 c 1,18,19
3359 2 m 1,54,-1
 2940 2 l 1,55,56
 2952 -137 2952 -137 2996 -229 c 0,57,58
 3062 -365 3062 -365 3214 -365 c 0,59,60
 3364 -365 3364 -365 3364 -143 c 0,61,62
 3364 -102 3364 -102 3362 -65 c 0,63,64
 3359 -9 3359 -9 3359 2 c 1,54,-1
4109 9 m 0,66,67
 4095 -103 4095 -103 4064 -191 c 0,68,69
 4047 -238 4047 -238 4020.5 -285.5 c 128,-1,70
 3994 -333 3994 -333 3962 -375 c 1,71,72
 3919 -425 3919 -425 3873 -458 c 128,-1,73
 3827 -491 3827 -491 3780 -505 c 1,74,-1
 3689 -428 l 1,75,76
 3795 -393 3795 -393 3855.5 -254 c 128,-1,77
 3916 -115 3916 -115 3927 116 c 0,78,79
 3929 168 3929 168 3931 350 c 1,80,81
 3931 656 3931 656 3835 838 c 1,82,83
 3712 1055 3712 1055 3439 1055 c 1,84,85
 3193 1054 3193 1054 3062 880 c 128,-1,86
 2931 706 2931 706 2931 247 c 2,87,-1
 2931 116 l 1,88,-1
 3360 116 l 1,89,-1
 3361 941 l 1,90,-1
 3540 939 l 1,91,-1
 3541 7 l 2,92,93
 3541 -221 3541 -221 3507 -310 c 0,94,95
 3442 -478 3442 -478 3198 -478 c 0,96,97
 2975 -478 2975 -478 2859 -309 c 1,98,99
 2775 -184 2775 -184 2750 0 c 1,100,-1
 2188 0 l 1,101,-1
 2159 89 l 1,102,-1
 2182 103 l 1,103,104
 2333 181 2333 181 2329 378 c 1,105,106
 2329 497 2329 497 2273.5 568 c 128,-1,107
 2218 639 2218 639 2113 644 c 1,108,109
 2003 644 2003 644 1946 572 c 128,-1,110
 1889 500 1889 500 1889 385 c 0,111,112
 1889 170 1889 170 2032 103 c 1,113,-1
 2065 91 l 1,114,-1
 2021 -11 l 1,115,-1
 1972 5 l 1,116,117
 1845 49 1845 49 1775 136 c 128,-1,118
 1705 223 1705 223 1705 391 c 0,119,120
 1705 557 1705 557 1821.5 658 c 128,-1,121
 1938 759 1938 759 2114 759 c 256,122,123
 2290 759 2290 759 2403 658 c 128,-1,124
 2516 557 2516 557 2516 392 c 0,125,126
 2516 226 2516 226 2407 114 c 1,127,-1
 2736 114 l 1,128,-1
 2736 116 l 1,129,130
 2734 203 2734 203 2733 270 c 1,131,132
 2733 654 2733 654 2884 890 c 0,133,134
 3069 1179 3069 1179 3436 1179 c 0,135,136
 3802 1179 3802 1179 3977 924 c 1,137,138
 4124 712 4124 712 4124 351 c 1,139,65
 4122 116 4122 116 4109 9 c 0,66,67
EndSplineSet
EndChar

StartChar: uni0D12
Encoding: 3346 3346 23
Width: 1524
GlyphClass: 2
Flags: W
LayerCount: 2
Fore
SplineSet
793 348 m 0,0,1
 793 441 793 441 750 514 c 0,2,3
 706 587 706 587 606 595 c 256,4,5
 506 603 506 603 435 548 c 0,6,7
 363 493 363 493 356 430 c 1,8,9
 359 328 359 328 399 256 c 0,10,11
 479 116 479 116 607 116 c 0,12,13
 793 116 793 116 793 348 c 0,0,1
360 641 m 1,14,15
 462 720 462 720 609 720 c 256,16,17
 756 720 756 720 863 623 c 1,18,19
 969 525 969 525 969 352 c 0,20,21
 969 188 969 188 876 88 c 1,22,23
 772 -14 772 -14 612 -14 c 0,24,25
 499 -14 499 -14 411.5 40 c 128,-1,26
 324 94 324 94 264 198 c 1,27,28
 224 271 224 271 201.5 358.5 c 128,-1,29
 179 446 179 446 177 530 c 1,30,-1
 175 562 l 1,31,32
 175 622 175 622 181 675 c 1,33,34
 199 770 199 770 242.5 852 c 128,-1,35
 286 934 286 934 348 997 c 1,36,37
 442 1086 442 1086 569.5 1134.5 c 128,-1,38
 697 1183 697 1183 850 1183 c 0,39,40
 883 1183 883 1183 915.5 1182 c 128,-1,41
 948 1181 948 1181 983 1177 c 128,-1,42
 1018 1173 1018 1173 1056 1165 c 128,-1,43
 1094 1157 1094 1157 1138 1145 c 1,44,45
 1221 1120 1221 1120 1306 1065 c 1,46,47
 1476 951 1476 951 1476 769 c 0,48,49
 1476 731 1476 731 1466 698 c 128,-1,50
 1456 665 1456 665 1436 635 c 0,51,52
 1396 577 1396 577 1364 560 c 1,53,54
 1506 476 1506 476 1506 307 c 0,55,56
 1506 229 1506 229 1465 166 c 128,-1,57
 1424 103 1424 103 1348 58 c 1,58,59
 1283 23 1283 23 1212.5 4 c 128,-1,60
 1142 -15 1142 -15 1065 -15 c 1,61,62
 1053 15 1053 15 1041 44 c 128,-1,63
 1029 73 1029 73 1017 102 c 1,64,65
 1156 102 1156 102 1245 161 c 1,66,67
 1330 226 1330 226 1330 318 c 0,68,69
 1330 417 1330 417 1281 462 c 1,70,71
 1244 492 1244 492 1162 492 c 0,72,73
 1151 492 1151 492 1129.5 491 c 128,-1,74
 1108 490 1108 490 1076 488 c 1,75,-1
 1076 625 l 1,76,77
 1086 625 1086 625 1098 624.5 c 128,-1,78
 1110 624 1110 624 1118 624 c 0,79,80
 1134 623 1134 623 1145 623 c 128,-1,81
 1156 623 1156 623 1163 623 c 0,82,83
 1175 623 1175 623 1187.5 625 c 128,-1,84
 1200 627 1200 627 1214 631 c 0,85,86
 1242 638 1242 638 1270 676 c 256,87,88
 1298 714 1298 714 1298 781 c 0,89,90
 1298 859 1298 859 1218 943 c 1,91,92
 1081 1069 1081 1069 847 1070 c 1,93,94
 724 1067 724 1067 627 1024.5 c 128,-1,95
 530 982 530 982 463 906 c 1,96,97
 410 844 410 844 382 777 c 128,-1,98
 354 710 354 710 355 643 c 1,99,-1
 360 641 l 1,14,15
EndSplineSet
EndChar

StartChar: uni0D13
Encoding: 3347 3347 24
Width: 2645
GlyphClass: 2
Flags: W
LayerCount: 2
Fore
SplineSet
793 348 m 0,0,1
 793 441 793 441 750 514 c 0,2,3
 706 587 706 587 606 595 c 256,4,5
 506 603 506 603 435 548 c 0,6,7
 363 493 363 493 356 430 c 1,8,9
 359 328 359 328 399 256 c 0,10,11
 479 116 479 116 607 116 c 0,12,13
 793 116 793 116 793 348 c 0,0,1
360 641 m 1,14,15
 462 720 462 720 609 720 c 256,16,17
 756 720 756 720 863 623 c 1,18,19
 969 525 969 525 969 352 c 0,20,21
 969 188 969 188 876 88 c 1,22,23
 772 -14 772 -14 612 -14 c 0,24,25
 499 -14 499 -14 411.5 40 c 128,-1,26
 324 94 324 94 264 198 c 1,27,28
 224 271 224 271 201.5 358.5 c 128,-1,29
 179 446 179 446 177 530 c 1,30,-1
 175 562 l 1,31,32
 175 622 175 622 181 675 c 1,33,34
 199 770 199 770 242.5 852 c 128,-1,35
 286 934 286 934 348 997 c 1,36,37
 442 1086 442 1086 569.5 1134.5 c 128,-1,38
 697 1183 697 1183 850 1183 c 0,39,40
 883 1183 883 1183 915.5 1182 c 128,-1,41
 948 1181 948 1181 983 1177 c 128,-1,42
 1018 1173 1018 1173 1056 1165 c 128,-1,43
 1094 1157 1094 1157 1138 1145 c 1,44,45
 1221 1120 1221 1120 1306 1065 c 1,46,47
 1476 951 1476 951 1476 769 c 0,48,49
 1476 731 1476 731 1466 698 c 128,-1,50
 1456 665 1456 665 1436 635 c 0,51,52
 1396 577 1396 577 1364 560 c 1,53,54
 1506 476 1506 476 1506 307 c 0,55,56
 1506 229 1506 229 1465 166 c 128,-1,57
 1424 103 1424 103 1348 58 c 1,58,59
 1283 23 1283 23 1212.5 4 c 128,-1,60
 1142 -15 1142 -15 1065 -15 c 1,61,62
 1053 15 1053 15 1041 44 c 128,-1,63
 1029 73 1029 73 1017 102 c 1,64,65
 1156 102 1156 102 1245 161 c 1,66,67
 1330 226 1330 226 1330 318 c 0,68,69
 1330 417 1330 417 1281 462 c 1,70,71
 1244 492 1244 492 1162 492 c 0,72,73
 1151 492 1151 492 1129.5 491 c 128,-1,74
 1108 490 1108 490 1076 488 c 1,75,-1
 1076 625 l 1,76,77
 1086 625 1086 625 1098 624.5 c 128,-1,78
 1110 624 1110 624 1118 624 c 0,79,80
 1134 623 1134 623 1145 623 c 128,-1,81
 1156 623 1156 623 1163 623 c 0,82,83
 1175 623 1175 623 1187.5 625 c 128,-1,84
 1200 627 1200 627 1214 631 c 0,85,86
 1242 638 1242 638 1270 676 c 256,87,88
 1298 714 1298 714 1298 781 c 0,89,90
 1298 859 1298 859 1218 943 c 1,91,92
 1081 1069 1081 1069 847 1070 c 1,93,94
 724 1067 724 1067 627 1024.5 c 128,-1,95
 530 982 530 982 463 906 c 1,96,97
 410 844 410 844 382 777 c 128,-1,98
 354 710 354 710 355 643 c 1,99,-1
 360 641 l 1,14,15
1837 299 m 1,101,102
 1861 250 1861 250 1897 217 c 1,103,104
 1941 174 1941 174 1998 150.5 c 128,-1,105
 2055 127 2055 127 2123 127 c 0,106,107
 2420 127 2420 127 2420 596 c 0,108,109
 2420 1064 2420 1064 2127 1064 c 0,110,111
 1970 1064 1970 1064 1886 947 c 1,112,113
 1846 888 1846 888 1822 815 c 0,114,115
 1816 798 1816 798 1811 780 c 1,116,-1
 1661 845 l 1,117,118
 1672 878 1672 878 1686 911 c 0,119,120
 1725 1002 1725 1002 1792 1060 c 0,121,122
 1934 1185 1934 1185 2127 1185 c 0,123,124
 2372 1185 2372 1185 2509 994 c 1,125,126
 2627 836 2627 836 2627 598 c 0,127,128
 2627 362 2627 362 2517 207 c 1,129,130
 2380 7 2380 7 2123 7 c 0,131,132
 1913 7 1913 7 1772 132 c 1,133,134
 1689 204 1689 204 1655 293 c 1,135,-1
 1811 367 l 1,136,100
 1820 331 1820 331 1837 299 c 1,101,102
EndSplineSet
EndChar

StartChar: uni0D14
Encoding: 3348 3348 25
Width: 3193
GlyphClass: 2
Flags: W
LayerCount: 2
Fore
SplineSet
793 348 m 0,0,1
 793 441 793 441 750 514 c 0,2,3
 706 587 706 587 606 595 c 256,4,5
 506 603 506 603 435 548 c 0,6,7
 363 493 363 493 356 430 c 1,8,9
 359 328 359 328 399 256 c 0,10,11
 479 116 479 116 607 116 c 0,12,13
 793 116 793 116 793 348 c 0,0,1
360 641 m 1,14,15
 462 720 462 720 609 720 c 256,16,17
 756 720 756 720 863 623 c 1,18,19
 969 525 969 525 969 352 c 0,20,21
 969 188 969 188 876 88 c 1,22,23
 772 -14 772 -14 612 -14 c 0,24,25
 499 -14 499 -14 411.5 40 c 128,-1,26
 324 94 324 94 264 198 c 1,27,28
 224 271 224 271 201.5 358.5 c 128,-1,29
 179 446 179 446 177 530 c 1,30,-1
 175 562 l 1,31,32
 175 622 175 622 181 675 c 1,33,34
 199 770 199 770 242.5 852 c 128,-1,35
 286 934 286 934 348 997 c 1,36,37
 442 1086 442 1086 569.5 1134.5 c 128,-1,38
 697 1183 697 1183 850 1183 c 0,39,40
 883 1183 883 1183 915.5 1182 c 128,-1,41
 948 1181 948 1181 983 1177 c 128,-1,42
 1018 1173 1018 1173 1056 1165 c 128,-1,43
 1094 1157 1094 1157 1138 1145 c 1,44,45
 1221 1120 1221 1120 1306 1065 c 1,46,47
 1476 951 1476 951 1476 769 c 0,48,49
 1476 731 1476 731 1466 698 c 128,-1,50
 1456 665 1456 665 1436 635 c 0,51,52
 1396 577 1396 577 1364 560 c 1,53,54
 1506 476 1506 476 1506 307 c 0,55,56
 1506 229 1506 229 1465 166 c 128,-1,57
 1424 103 1424 103 1348 58 c 1,58,59
 1283 23 1283 23 1212.5 4 c 128,-1,60
 1142 -15 1142 -15 1065 -15 c 1,61,62
 1053 15 1053 15 1041 44 c 128,-1,63
 1029 73 1029 73 1017 102 c 1,64,65
 1156 102 1156 102 1245 161 c 1,66,67
 1330 226 1330 226 1330 318 c 0,68,69
 1330 417 1330 417 1281 462 c 1,70,71
 1244 492 1244 492 1162 492 c 0,72,73
 1151 492 1151 492 1129.5 491 c 128,-1,74
 1108 490 1108 490 1076 488 c 1,75,-1
 1076 625 l 1,76,77
 1086 625 1086 625 1098 624.5 c 128,-1,78
 1110 624 1110 624 1118 624 c 0,79,80
 1134 623 1134 623 1145 623 c 128,-1,81
 1156 623 1156 623 1163 623 c 0,82,83
 1175 623 1175 623 1187.5 625 c 128,-1,84
 1200 627 1200 627 1214 631 c 0,85,86
 1242 638 1242 638 1270 676 c 256,87,88
 1298 714 1298 714 1298 781 c 0,89,90
 1298 859 1298 859 1218 943 c 1,91,92
 1081 1069 1081 1069 847 1070 c 1,93,94
 724 1067 724 1067 627 1024.5 c 128,-1,95
 530 982 530 982 463 906 c 1,96,97
 410 844 410 844 382 777 c 128,-1,98
 354 710 354 710 355 643 c 1,99,-1
 360 641 l 1,14,15
2386 1033 m 1,100,101
 2514 1187 2514 1187 2689 1187 c 0,102,103
 2799 1187 2799 1187 2891.5 1143 c 128,-1,104
 2984 1099 2984 1099 3053 1019 c 1,105,106
 3112 943 3112 943 3143.5 848.5 c 128,-1,107
 3175 754 3175 754 3175 647 c 0,108,109
 3175 359 3175 359 3001 182 c 0,110,111
 2829 6 2829 6 2584 6 c 0,112,113
 2505 6 2505 6 2429.5 23.5 c 128,-1,114
 2354 41 2354 41 2285 73 c 1,115,116
 2256 89 2256 89 2226 113 c 128,-1,117
 2196 137 2196 137 2169 168 c 1,118,119
 2141 198 2141 198 2120 228.5 c 128,-1,120
 2099 259 2099 259 2083 291 c 1,121,122
 2115 308 2115 308 2146.5 324.5 c 128,-1,123
 2178 341 2178 341 2211 358 c 1,124,125
 2270 241 2270 241 2363.5 183 c 128,-1,126
 2457 125 2457 125 2584 125 c 0,127,128
 2678 125 2678 125 2753 162.5 c 128,-1,129
 2828 200 2828 200 2887 275 c 1,130,131
 3000 424 3000 424 3000 647 c 0,132,133
 3000 825 3000 825 2931 943 c 1,134,135
 2848 1066 2848 1066 2689 1066 c 0,136,137
 2584 1066 2584 1066 2527 1000 c 1,138,139
 2471 933 2471 933 2471 866 c 2,140,-1
 2471 559 l 1,141,-1
 2297 559 l 1,142,-1
 2297 854 l 2,143,144
 2297 921 2297 921 2233 995 c 1,145,146
 2198 1030 2198 1030 2159.5 1048 c 128,-1,147
 2121 1066 2121 1066 2075 1066 c 0,148,149
 1860 1066 1860 1066 1860 769 c 0,150,151
 1860 709 1860 709 1869 648 c 128,-1,152
 1878 587 1878 587 1898 526 c 1,153,154
 1866 514 1866 514 1835.5 502 c 128,-1,155
 1805 490 1805 490 1773 477 c 1,156,157
 1685 617 1685 617 1685 769 c 0,158,159
 1685 961 1685 961 1791 1073 c 0,160,161
 1845 1129 1845 1129 1917 1158 c 128,-1,162
 1989 1187 1989 1187 2080 1187 c 0,163,164
 2261 1187 2261 1187 2383 1033 c 1,165,-1
 2386 1033 l 1,100,101
EndSplineSet
EndChar

StartChar: k1
Encoding: 3349 3349 26
Width: 1993
GlyphClass: 2
Flags: W
LayerCount: 2
Fore
SplineSet
644 172 m 1,0,1
 693 213 693 213 712 255 c 1,2,3
 671 345 671 345 648 422.5 c 128,-1,4
 625 500 625 500 621 566 c 1,5,-1
 546 566 l 2,6,7
 461 566 461 566 402 493 c 1,8,9
 353 426 353 426 353 347 c 0,10,11
 353 131 353 131 534 131 c 0,12,13
 591 131 591 131 644 172 c 1,0,1
808 566 m 1,14,15
 814 391 814 391 883 259 c 1,16,17
 920 201 920 201 968.5 163.5 c 128,-1,18
 1017 126 1017 126 1073 126 c 0,19,20
 1187 126 1187 126 1262 259 c 1,21,22
 1333 392 1333 392 1339 566 c 1,23,-1
 808 566 l 1,14,15
616 687 m 1,24,25
 627 869 627 869 710 990 c 1,26,27
 835 1176 835 1176 1076 1185 c 1,28,29
 1307 1174 1307 1174 1425 999 c 1,30,31
 1512 867 1512 867 1523 687 c 1,32,-1
 1578 687 l 2,33,34
 1645 687 1645 687 1721 668 c 0,35,36
 1795 650 1795 650 1841 611 c 1,37,38
 1898 569 1898 569 1936.5 503.5 c 128,-1,39
 1975 438 1975 438 1975 349 c 0,40,41
 1975 265 1975 265 1935 197 c 128,-1,42
 1895 129 1895 129 1823 82 c 1,43,44
 1767 50 1767 50 1706.5 32.5 c 128,-1,45
 1646 15 1646 15 1586 15 c 0,46,47
 1560 15 1560 15 1536.5 19 c 128,-1,48
 1513 23 1513 23 1488 32 c 1,49,50
 1481 62 1481 62 1475 92.5 c 128,-1,51
 1469 123 1469 123 1462 154 c 1,52,53
 1494 145 1494 145 1522 141 c 128,-1,54
 1550 137 1550 137 1573 137 c 0,55,56
 1598 137 1598 137 1614 141 c 0,57,58
 1643 149 1643 149 1666 160 c 128,-1,59
 1689 171 1689 171 1709 184 c 1,60,61
 1788 246 1788 246 1788 341 c 0,62,63
 1788 438 1788 438 1734 505 c 1,64,65
 1660 566 1660 566 1578 566 c 2,66,-1
 1526 566 l 1,67,68
 1523 460 1523 460 1488 361.5 c 128,-1,69
 1453 263 1453 263 1392 179 c 1,70,71
 1323 94 1323 94 1244.5 50 c 128,-1,72
 1166 6 1166 6 1079 6 c 0,73,74
 904 6 904 6 772 167 c 1,75,-1
 767 167 l 1,76,77
 744 130 744 130 715.5 101.5 c 128,-1,78
 687 73 687 73 655 51 c 1,79,80
 620 31 620 31 589 20 c 128,-1,81
 558 9 558 9 534 9 c 0,82,83
 466 9 466 9 403.5 31.5 c 128,-1,84
 341 54 341 54 285 98 c 1,85,86
 233 143 233 143 204 202.5 c 128,-1,87
 175 262 175 262 175 332 c 0,88,89
 175 478 175 478 278 576 c 1,90,91
 391 687 391 687 552 687 c 2,92,-1
 616 687 l 1,24,25
804 684 m 1,93,-1
 1340 684 l 1,94,95
 1334 810 1334 810 1311 887 c 0,96,97
 1286 968 1286 968 1224.5 1014.5 c 128,-1,98
 1163 1061 1163 1061 1086 1061 c 0,99,100
 806 1060 806 1060 804 684 c 1,93,-1
EndSplineSet
EndChar

StartChar: k2
Encoding: 3350 3350 27
Width: 1997
GlyphClass: 2
Flags: W
LayerCount: 2
Fore
SplineSet
599 659 m 256,0,1
 493 659 493 659 434 580 c 1,2,3
 373 503 373 503 373 393 c 0,4,5
 373 281 373 281 433 195 c 1,6,7
 492 108 492 108 598 108 c 0,8,9
 705 108 705 108 764 188 c 0,10,11
 822 267 822 267 822 385 c 0,12,13
 822 506 822 506 764 581 c 1,14,15
 705 659 705 659 599 659 c 256,0,1
1248 997 m 1,16,17
 1427 813 1427 813 1427 545 c 0,18,19
 1427 489 1427 489 1412.5 428.5 c 128,-1,20
 1398 368 1398 368 1371 306 c 1,21,22
 1344 248 1344 248 1312.5 201 c 128,-1,23
 1281 154 1281 154 1250 125 c 1,24,-1
 1793 125 l 1,25,-1
 1793 1183 l 1,26,-1
 1979 1183 l 1,27,-1
 1979 4 l 1,28,-1
 1083 4 l 1,29,30
 1067 24 1067 24 1052 42.5 c 128,-1,31
 1037 61 1037 61 1021 80 c 1,32,33
 1128 178 1128 178 1184 294.5 c 128,-1,34
 1240 411 1240 411 1240 545 c 0,35,36
 1240 742 1240 742 1132 896 c 1,37,38
 1011 1054 1011 1054 804 1065 c 1,39,40
 583 1063 583 1063 467 943 c 1,41,42
 349 818 349 818 351 651 c 1,43,44
 389 694 389 694 424 714 c 1,45,46
 468 743 468 743 517.5 757.5 c 128,-1,47
 567 772 567 772 622 772 c 0,48,49
 777 772 777 772 884 665 c 0,50,51
 992 557 992 557 992 389 c 0,52,53
 992 305 992 305 967 236 c 128,-1,54
 942 167 942 167 891 109 c 0,55,56
 790 -5 790 -5 611 -5 c 0,57,58
 386 -5 386 -5 269 179 c 1,59,60
 175 324 175 324 175 538 c 2,61,-1
 175 568 l 2,62,63
 175 850 175 850 346 1017 c 1,64,65
 508 1184 508 1184 812 1187 c 1,66,67
 1081 1180 1081 1180 1248 997 c 1,16,17
EndSplineSet
EndChar

StartChar: k3
Encoding: 3351 3351 28
Width: 1858
GlyphClass: 2
Flags: W
LayerCount: 2
Fore
SplineSet
356 556 m 1,0,1
 347 395 347 395 435 241 c 1,2,3
 509 108 509 108 657 108 c 0,4,5
 915 108 915 108 915 557 c 0,6,7
 915 1182 915 1182 1357 1182 c 0,8,9
 1466 1182 1466 1182 1558.5 1131.5 c 128,-1,10
 1651 1081 1651 1081 1723 991 c 1,11,12
 1773 919 1773 919 1803 835 c 128,-1,13
 1833 751 1833 751 1840 664 c 1,14,-1
 1840 617 l 1,15,16
 1841 175 1841 175 1478 -18 c 1,17,-1
 1441 -35 l 1,18,-1
 1371 93 l 1,19,-1
 1412 109 l 1,20,21
 1644 223 1644 223 1658 555 c 1,22,23
 1677 802 1677 802 1592 914 c 1,24,25
 1509 1059 1509 1059 1356 1059 c 0,26,27
 1283 1059 1283 1059 1230 1021 c 128,-1,28
 1177 983 1177 983 1148 916 c 1,29,30
 1126 858 1126 858 1114 767.5 c 128,-1,31
 1102 677 1102 677 1102 557 c 0,32,33
 1102 325 1102 325 997 167 c 1,34,-1
 998 167 l 1,35,36
 869 -15 869 -15 655 -15 c 0,37,38
 440 -15 440 -15 307 160 c 1,39,40
 181 314 181 314 175 540 c 1,41,-1
 176 540 l 1,42,-1
 176 541 l 1,43,44
 175 983 175 983 538 1176 c 1,45,-1
 575 1194 l 1,46,-1
 645 1065 l 1,47,-1
 604 1050 l 1,48,49
 372 935 372 935 356 556 c 1,0,1
EndSplineSet
EndChar

StartChar: k4
Encoding: 3352 3352 29
Width: 2874
GlyphClass: 2
Flags: W
LayerCount: 2
Fore
SplineSet
1991 494 m 1,0,-1
 1991 690 l 1,1,2
 1989 759 1989 759 1988 799.5 c 128,-1,3
 1987 840 1987 840 1986 850 c 0,4,5
 1981 887 1981 887 1966.5 919 c 128,-1,6
 1952 951 1952 951 1927 975 c 0,7,8
 1889 1012 1889 1012 1837 1033 c 128,-1,9
 1785 1054 1785 1054 1723 1054 c 0,10,11
 1594 1054 1594 1054 1527 978 c 1,12,13
 1462 901 1462 901 1462 722 c 2,14,-1
 1462 494 l 1,15,-1
 1991 494 l 1,0,-1
1277 496 m 1,16,-1
 1277 709 l 2,17,18
 1277 935 1277 935 1357 1030 c 0,19,20
 1483 1181 1483 1181 1716 1180 c 0,21,22
 1834 1179 1834 1179 1924 1141 c 128,-1,23
 2014 1103 2014 1103 2077 1030 c 1,24,25
 2119 977 2119 977 2140 891.5 c 128,-1,26
 2161 806 2161 806 2161 690 c 2,27,-1
 2161 376 l 1,28,-1
 1462 376 l 1,29,-1
 1462 116 l 1,30,-1
 2672 116 l 1,31,-1
 2669 1174 l 1,32,-1
 2855 1174 l 1,33,-1
 2856 -4 l 1,34,-1
 1272 -4 l 1,35,-1
 1272 382 l 1,36,-1
 658 382 l 1,37,-1
 629 471 l 1,38,-1
 652 485 l 1,39,40
 803 564 803 564 799 761 c 1,41,42
 799 879 799 879 743.5 950 c 128,-1,43
 688 1021 688 1021 583 1026 c 1,44,45
 473 1026 473 1026 416 954 c 128,-1,46
 359 882 359 882 359 767 c 0,47,48
 359 552 359 552 502 485 c 1,49,-1
 535 473 l 1,50,-1
 491 371 l 1,51,-1
 442 387 l 1,52,53
 315 431 315 431 245 518.5 c 128,-1,54
 175 606 175 606 175 773 c 0,55,56
 175 939 175 939 291.5 1040 c 128,-1,57
 408 1141 408 1141 584 1141 c 256,58,59
 760 1141 760 1141 873 1040 c 128,-1,60
 986 939 986 939 986 774 c 256,61,62
 986 609 986 609 877 496 c 1,63,-1
 1277 496 l 1,16,-1
EndSplineSet
EndChar

StartChar: ng
Encoding: 3353 3353 30
Width: 2162
GlyphClass: 2
Flags: W
LayerCount: 2
Fore
SplineSet
600 656 m 0,0,1
 493 656 493 656 434 577 c 1,2,3
 373 502 373 502 373 381 c 0,4,5
 373 325 373 325 387.5 276.5 c 128,-1,6
 402 228 402 228 433 184 c 0,7,8
 492 97 492 97 599 97 c 256,9,10
 706 97 706 97 764 177 c 0,11,12
 822 256 822 256 822 373 c 0,13,14
 822 503 822 503 764 578 c 1,15,16
 706 656 706 656 600 656 c 0,0,1
794 1181 m 1,17,18
 861 1179 861 1179 919 1166.5 c 128,-1,19
 977 1154 977 1154 1028 1129.5 c 128,-1,20
 1079 1105 1079 1105 1124 1068 c 128,-1,21
 1169 1031 1169 1031 1210 981 c 1,22,23
 1250 1039 1250 1039 1305.5 1079 c 128,-1,24
 1361 1119 1361 1119 1435 1143 c 0,25,26
 1546 1179 1546 1179 1661 1179 c 0,27,28
 1771 1179 1771 1179 1857 1155.5 c 128,-1,29
 1943 1132 1943 1132 2007 1085 c 1,30,31
 2135 995 2135 995 2135 830 c 0,32,33
 2135 666 2135 666 2003 572 c 1,34,35
 2066 541 2066 541 2105 480 c 128,-1,36
 2144 419 2144 419 2144 326 c 0,37,38
 2144 147 2144 147 1991 54 c 0,39,40
 1878 -15 1878 -15 1729 -15 c 0,41,42
 1589 -15 1589 -15 1448 67 c 1,43,-1
 1541 164 l 1,44,45
 1579 130 1579 130 1618 117.5 c 128,-1,46
 1657 105 1657 105 1717 105 c 0,47,48
 1838 105 1838 105 1905 176 c 1,49,50
 1964 240 1964 240 1964 308 c 0,51,52
 1964 341 1964 341 1948.5 375.5 c 128,-1,53
 1933 410 1933 410 1904 441 c 0,54,55
 1874 473 1874 473 1833.5 490.5 c 128,-1,56
 1793 508 1793 508 1743 508 c 2,57,-1
 1580 508 l 1,58,-1
 1580 644 l 1,59,-1
 1743 644 l 2,60,61
 1790 644 1790 644 1826 659.5 c 128,-1,62
 1862 675 1862 675 1891 706 c 0,63,64
 1948 767 1948 767 1948 842 c 0,65,66
 1948 915 1948 915 1893 977 c 1,67,68
 1857 1016 1857 1016 1801 1037.5 c 128,-1,69
 1745 1059 1745 1059 1670 1059 c 0,70,71
 1519 1059 1519 1059 1412 986 c 0,72,73
 1361 951 1361 951 1333.5 906.5 c 128,-1,74
 1306 862 1306 862 1306 812 c 0,75,76
 1306 609 1306 609 1305.5 407.5 c 128,-1,77
 1305 206 1305 206 1305 3 c 1,78,-1
 1118 3 l 1,79,-1
 1117 805 l 2,80,81
 1117 856 1117 856 1093.5 901.5 c 128,-1,82
 1070 947 1070 947 1028 983 c 1,83,84
 942 1053 942 1053 777 1060 c 1,85,86
 586 1054 586 1054 468 938 c 1,87,88
 349 815 349 815 353 654 c 1,89,90
 369 676 369 676 424 711 c 0,91,92
 469 739 469 739 518 753.5 c 128,-1,93
 567 768 567 768 623 768 c 0,94,95
 777 768 777 768 884 662 c 1,96,97
 992 553 992 553 992 377 c 0,98,99
 992 293 992 293 967 224.5 c 128,-1,100
 942 156 942 156 891 98 c 0,101,102
 790 -15 790 -15 612 -15 c 0,103,104
 387 -15 387 -15 270 169 c 1,105,106
 175 314 175 314 175 535 c 2,107,-1
 175 566 l 2,108,109
 175 846 175 846 340 1007 c 1,110,111
 507 1167 507 1167 794 1181 c 1,17,18
EndSplineSet
EndChar

StartChar: ch1
Encoding: 3354 3354 31
Width: 1898
GlyphClass: 2
Flags: W
LayerCount: 2
Fore
SplineSet
1880 5 m 1,0,-1
 175 5 l 1,1,-1
 175 123 l 1,2,-1
 799 123 l 1,3,4
 962 182 962 182 962 405 c 0,5,6
 962 499 962 499 909 573 c 0,7,8
 882 609 882 609 841.5 628.5 c 128,-1,9
 801 648 801 648 748 648 c 0,10,11
 641 648 641 648 591 581 c 0,12,13
 542 515 542 515 542 423 c 0,14,15
 542 332 542 332 602 255 c 1,16,17
 575 241 575 241 550 227.5 c 128,-1,18
 525 214 525 214 498 200 c 1,19,20
 436 237 436 237 403 294.5 c 128,-1,21
 370 352 370 352 370 428 c 0,22,23
 370 509 370 509 404 575 c 128,-1,24
 438 641 438 641 501 689 c 1,25,26
 558 726 558 726 621 747 c 128,-1,27
 684 768 684 768 746 768 c 0,28,29
 911 768 911 768 1027 671 c 1,30,-1
 1027 672 l 1,31,32
 1148 565 1148 565 1148 402 c 256,33,34
 1148 239 1148 239 1006 123 c 1,35,-1
 1695 123 l 1,36,-1
 1695 1165 l 1,37,-1
 1880 1165 l 1,38,-1
 1880 5 l 1,0,-1
EndSplineSet
EndChar

StartChar: ch2
Encoding: 3355 3355 32
Width: 2740
GlyphClass: 2
Flags: W
LayerCount: 2
Fore
SplineSet
2074 385 m 0,0,1
 2074 268 2074 268 2131 188 c 1,2,3
 2161 148 2161 148 2202 128 c 128,-1,4
 2243 108 2243 108 2297 108 c 0,5,6
 2404 108 2404 108 2464 195 c 0,7,8
 2523 280 2523 280 2523 393 c 0,9,10
 2523 504 2523 504 2463 580 c 1,11,12
 2403 659 2403 659 2296 659 c 0,13,14
 2192 659 2192 659 2131 581 c 1,15,16
 2074 505 2074 505 2074 385 c 0,0,1
2124 1063 m 0,17,18
 1867 1065 1867 1065 1734 891 c 1,19,20
 1680 813 1680 813 1653.5 727 c 128,-1,21
 1627 641 1627 641 1627 542 c 0,22,23
 1627 409 1627 409 1683 293 c 128,-1,24
 1739 177 1739 177 1840 93 c 1,25,-1
 1785 4 l 1,26,-1
 175 4 l 1,27,-1
 175 123 l 1,28,-1
 799 123 l 1,29,30
 962 181 962 181 962 403 c 0,31,32
 962 496 962 496 909 570 c 0,33,34
 883 606 883 606 842 625.5 c 128,-1,35
 801 645 801 645 748 645 c 0,36,37
 643 645 643 645 592 577 c 0,38,39
 542 511 542 511 542 420 c 0,40,41
 542 374 542 374 556.5 333.5 c 128,-1,42
 571 293 571 293 603 254 c 1,43,44
 576 240 576 240 550.5 226.5 c 128,-1,45
 525 213 525 213 498 199 c 1,46,47
 436 236 436 236 403 293 c 128,-1,48
 370 350 370 350 370 426 c 0,49,50
 370 506 370 506 404 572 c 128,-1,51
 438 638 438 638 501 686 c 1,52,53
 558 722 558 722 621 743 c 128,-1,54
 684 764 684 764 746 764 c 0,55,56
 912 764 912 764 1027 667 c 1,57,-1
 1027 668 l 1,58,59
 1149 561 1149 561 1149 400 c 0,60,61
 1149 238 1149 238 1006 123 c 1,62,-1
 1095 123 l 1,63,-1
 1616 124 l 1,64,65
 1586 152 1586 152 1555 198 c 128,-1,66
 1524 244 1524 244 1495 305 c 1,67,68
 1440 429 1440 429 1440 542 c 0,69,70
 1440 679 1440 679 1484.5 790 c 128,-1,71
 1529 901 1529 901 1619 993 c 1,72,73
 1802 1176 1802 1176 2102 1181 c 1,74,75
 2239 1174 2239 1174 2354 1131 c 128,-1,76
 2469 1088 2469 1088 2550 1012 c 1,77,78
 2722 845 2722 845 2722 566 c 2,79,-1
 2722 535 l 2,80,81
 2722 429 2722 429 2698.5 340.5 c 128,-1,82
 2675 252 2675 252 2627 178 c 0,83,84
 2510 -5 2510 -5 2284 -5 c 0,85,86
 2106 -5 2106 -5 2005 108 c 1,87,88
 1955 166 1955 166 1930 234.5 c 128,-1,89
 1905 303 1905 303 1905 387 c 0,90,91
 1905 553 1905 553 2011 662 c 1,92,93
 2118 768 2118 768 2274 768 c 1,94,95
 2391 771 2391 771 2473 726 c 1,96,97
 2527 698 2527 698 2550 679 c 1,98,99
 2546 815 2546 815 2429 938 c 0,100,101
 2369 1000 2369 1000 2293 1031.5 c 128,-1,102
 2217 1063 2217 1063 2124 1063 c 0,17,18
EndSplineSet
EndChar

StartChar: ch3
Encoding: 3356 3356 33
Width: 1960
GlyphClass: 2
Flags: W
LayerCount: 2
Fore
SplineSet
1072 331 m 1,0,-1
 553 331 l 2,1,2
 463 331 463 331 415 291 c 128,-1,3
 367 251 367 251 367 189 c 0,4,5
 367 46 367 46 548 46 c 0,6,7
 753 46 753 46 969 138 c 1,8,9
 1109 209 1109 209 1380 336 c 1,10,11
 1255 330 1255 330 1072 331 c 1,0,-1
496 589 m 0,12,13
 622 589 622 589 622 736 c 0,14,15
 622 799 622 799 590.5 832 c 128,-1,16
 559 865 559 865 499 865 c 0,17,18
 435 865 435 865 405 830 c 128,-1,19
 375 795 375 795 375 739 c 0,20,21
 375 666 375 666 403.5 627.5 c 128,-1,22
 432 589 432 589 496 589 c 0,12,13
1773 171 m 0,23,24
 1773 285 1773 285 1646 285 c 0,25,26
 1537 285 1537 285 1367 185 c 1,27,28
 1416 40 1416 40 1595 40 c 0,29,30
 1773 40 1773 40 1773 171 c 0,23,24
1059 1033 m 1,32,33
 1214 1184 1214 1184 1442 1184 c 1,34,35
 1649 1186 1649 1186 1796.5 1071 c 128,-1,36
 1944 956 1944 956 1944 776 c 0,37,38
 1944 505 1944 505 1700 403 c 1,39,40
 1796 393 1796 393 1856 338 c 0,41,42
 1928 271 1928 271 1928 154 c 256,43,44
 1928 37 1928 37 1834 -32 c 128,-1,45
 1740 -101 1740 -101 1600 -101 c 0,46,47
 1459 -101 1459 -101 1353.5 -39.5 c 128,-1,48
 1248 22 1248 22 1204 121 c 1,49,50
 990 13 990 13 908 -12 c 1,51,52
 728 -83 728 -83 537 -83 c 0,53,54
 372 -83 372 -83 277 -18.5 c 128,-1,55
 182 46 182 46 182 172 c 0,56,57
 182 297 182 297 286 369 c 0,58,59
 335 403 335 403 391 419 c 1,60,61
 471 440 471 440 576 440 c 2,62,-1
 1098 440 l 2,63,64
 1407 440 1407 440 1537 487 c 0,65,66
 1735 558 1735 558 1735 770 c 0,67,68
 1735 905 1735 905 1659 982 c 128,-1,69
 1583 1059 1583 1059 1439 1061 c 1,70,71
 1308 1059 1308 1059 1228.5 988 c 128,-1,72
 1149 917 1149 917 1149 799 c 2,73,-1
 1149 504 l 1,74,-1
 971 504 l 1,75,-1
 971 739 l 2,76,77
 971 862 971 862 945 911 c 1,78,79
 876 1058 876 1058 655 1061 c 1,80,81
 561 1068 561 1068 498 1049 c 1,82,83
 395 1011 395 1011 350 917 c 1,84,-1
 352 919 l 1,85,86
 417 962 417 962 525 962 c 0,87,88
 575 962 575 962 622.5 947.5 c 128,-1,89
 670 933 670 933 703 906 c 1,90,91
 777 842 777 842 784 752 c 1,92,93
 786 625 786 625 707 557 c 1,94,95
 631 484 631 484 486 484 c 1,96,97
 344 486 344 486 259 578 c 1,98,99
 176 670 176 670 177 805 c 1,100,101
 177 982 177 982 300 1081 c 1,102,103
 357 1132 357 1132 441 1157 c 128,-1,104
 525 1182 525 1182 645 1182 c 0,105,106
 689 1182 689 1182 730 1175 c 1,107,31
 945 1150 945 1150 1059 1033 c 1,32,33
EndSplineSet
EndChar

StartChar: ch4
Encoding: 3357 3357 34
Width: 3323
GlyphClass: 2
Flags: W
LayerCount: 2
Fore
SplineSet
1038 125 m 256,0,1
 1143 125 1143 125 1199 232 c 1,2,3
 1256 338 1256 338 1256 493 c 0,4,5
 1256 820 1256 820 1047 978 c 1,6,7
 992 938 992 938 948.5 883 c 128,-1,8
 905 828 905 828 875 758 c 1,9,10
 822 625 822 625 822 482 c 0,11,12
 822 337 822 337 874 235 c 1,13,14
 933 125 933 125 1038 125 c 256,0,1
2831 2 m 1,15,16
 2604 8 2604 8 2475 190 c 1,17,18
 2308 2 2308 2 2106 2 c 0,19,20
 1972 2 1972 2 1876.5 46.5 c 128,-1,21
 1781 91 1781 91 1723 177 c 1,22,23
 1686 243 1686 243 1665.5 337.5 c 128,-1,24
 1645 432 1645 432 1645 551 c 0,25,26
 1645 573 1645 573 1645.5 594.5 c 128,-1,27
 1646 616 1646 616 1647 635 c 1,28,-1
 1647 692 l 2,29,30
 1647 1065 1647 1065 1356 1065 c 0,31,32
 1272 1065 1272 1065 1176 1030 c 1,33,34
 1199 1014 1199 1014 1223.5 991 c 128,-1,35
 1248 968 1248 968 1274 936 c 1,36,37
 1297 905 1297 905 1321 867.5 c 128,-1,38
 1345 830 1345 830 1365 792 c 1,39,40
 1400 720 1400 720 1418.5 642.5 c 128,-1,41
 1437 565 1437 565 1437 483 c 0,42,43
 1437 475 1437 475 1436.5 467 c 128,-1,44
 1436 459 1436 459 1436 451 c 0,45,46
 1429 269 1429 269 1310 137 c 1,47,48
 1188 6 1188 6 1032 6 c 0,49,50
 874 6 874 6 754 149 c 0,51,52
 635 291 635 291 635 469 c 0,53,54
 635 556 635 556 658.5 643 c 128,-1,55
 682 730 682 730 726 810 c 1,56,57
 749 847 749 847 773 880.5 c 128,-1,58
 797 914 797 914 823 944 c 0,59,60
 875 1002 875 1002 918 1032 c 1,61,62
 853 1064 853 1064 764 1064 c 0,63,64
 680 1064 680 1064 607.5 1027.5 c 128,-1,65
 535 991 535 991 479 926 c 0,66,67
 426 863 426 863 396.5 783.5 c 128,-1,68
 367 704 367 704 363 609 c 1,69,70
 375 233 375 233 607 121 c 1,71,-1
 648 105 l 1,72,-1
 578 -22 l 1,73,-1
 541 -4 l 1,74,75
 178 186 178 186 181 650 c 1,76,77
 187 757 187 757 236 858.5 c 128,-1,78
 285 960 285 960 363 1030 c 1,79,80
 449 1105 449 1105 548 1145 c 128,-1,81
 647 1185 647 1185 756 1185 c 0,82,83
 828 1185 828 1185 898.5 1166.5 c 128,-1,84
 969 1148 969 1148 1039 1111 c 1,85,86
 1126 1146 1126 1146 1204 1164 c 128,-1,87
 1282 1182 1282 1182 1353 1182 c 0,88,89
 1836 1182 1836 1182 1836 697 c 0,90,91
 1836 689 1836 689 1835.5 676 c 128,-1,92
 1835 663 1835 663 1835 655 c 0,93,94
 1834 628 1834 628 1833.5 586.5 c 128,-1,95
 1833 545 1833 545 1833 487 c 0,96,97
 1833 371 1833 371 1854 295 c 1,98,99
 1876 220 1876 220 1941 171 c 256,100,101
 2006 122 2006 122 2104 122 c 0,102,103
 2153 122 2153 122 2199.5 145.5 c 128,-1,104
 2246 169 2246 169 2289 213 c 1,105,106
 2329 256 2329 256 2353.5 297.5 c 128,-1,107
 2378 339 2378 339 2378 373 c 2,108,-1
 2378 1185 l 1,109,-1
 2566 1185 l 1,110,-1
 2566 371 l 2,111,112
 2566 350 2566 350 2583.5 316 c 128,-1,113
 2601 282 2601 282 2633 238 c 0,114,115
 2676 181 2676 181 2729 152 c 1,116,117
 2775 125 2775 125 2829 123 c 1,118,119
 2977 123 2977 123 3060 259 c 1,120,121
 3139 406 3139 406 3130 565 c 1,122,123
 3114 939 3114 939 2882 1052 c 1,124,-1
 2841 1067 l 1,125,-1
 2911 1194 l 1,126,-1
 2948 1176 l 1,127,128
 3311 986 3311 986 3310 550 c 1,129,-1
 3310 549 l 1,130,-1
 3311 549 l 1,131,132
 3305 325 3305 325 3179 173 c 1,133,134
 3051 8 3051 8 2831 2 c 1,15,16
EndSplineSet
EndChar

StartChar: nj
Encoding: 3358 3358 35
Width: 2960
GlyphClass: 2
Flags: W
LayerCount: 2
Fore
SplineSet
374 391 m 0,0,1
 374 250 374 250 433 165 c 1,2,3
 492 78 492 78 598 78 c 0,4,5
 705 78 705 78 764 158 c 0,6,7
 822 236 822 236 822 364 c 0,8,9
 822 504 822 504 764 579 c 0,10,11
 705 656 705 656 599 656 c 256,12,13
 493 656 493 656 434 578 c 1,14,15
 374 502 374 502 374 391 c 0,0,1
1979 99 m 256,16,17
 2070 99 2070 99 2132 211 c 0,18,19
 2196 326 2196 326 2200 462 c 1,20,21
 2200 597 2200 597 2145 730 c 0,22,23
 2091 862 2091 862 1981 947 c 1,24,-1
 1977 947 l 1,25,26
 1863 851 1863 851 1813 730 c 0,27,28
 1758 597 1758 597 1758 462 c 1,29,30
 1762 326 1762 326 1826 211 c 0,31,32
 1888 99 1888 99 1979 99 c 256,16,17
1609 1058 m 1,33,34
 1509 1042 1509 1042 1432 988 c 1,35,36
 1331 911 1331 911 1331 816 c 2,37,-1
 1331 10 l 1,38,-1
 1143 10 l 1,39,-1
 1144 819 l 2,40,41
 1144 914 1144 914 1039 991 c 1,42,43
 938 1067 938 1067 792 1062 c 1,44,45
 584 1061 584 1061 467 939 c 0,46,47
 351 817 351 817 357 653 c 1,48,49
 398 695 398 695 424 712 c 0,50,51
 468 740 468 740 517.5 754.5 c 128,-1,52
 567 769 567 769 623 769 c 0,53,54
 777 769 777 769 885 662 c 0,55,56
 992 555 992 555 992 387 c 0,57,58
 992 193 992 193 892 78 c 1,59,60
 791 -34 791 -34 612 -34 c 0,61,62
 388 -34 388 -34 269 149 c 0,63,64
 175 294 175 294 175 536 c 2,65,-1
 175 566 l 2,66,67
 175 846 175 846 343 1010 c 0,68,69
 512 1175 512 1175 797 1180 c 1,70,71
 882 1179 882 1179 937.5 1167 c 128,-1,72
 993 1155 993 1155 1041 1137 c 1,73,74
 1113 1103 1113 1103 1163.5 1063.5 c 128,-1,75
 1214 1024 1214 1024 1244 980 c 1,76,77
 1390 1183 1390 1183 1663 1176 c 1,78,79
 1856 1161 1856 1161 1981 1089 c 1,80,81
 2137 1172 2137 1172 2340 1172 c 0,82,83
 2416 1172 2416 1172 2496 1147 c 128,-1,84
 2576 1122 2576 1122 2657 1076 c 0,85,86
 2680 1062 2680 1062 2704.5 1044.5 c 128,-1,87
 2729 1027 2729 1027 2749 1010 c 1,88,-1
 2749 1011 l 1,89,90
 2833 934 2833 934 2880 841.5 c 128,-1,91
 2927 749 2927 749 2939 641 c 0,92,93
 2940 629 2940 629 2942 604 c 1,94,95
 2933 164 2933 164 2580 -23 c 1,96,-1
 2543 -40 l 1,97,-1
 2473 88 l 1,98,-1
 2514 104 l 1,99,100
 2740 215 2740 215 2759 533 c 1,101,102
 2757 569 2757 569 2753 624 c 1,103,104
 2738 784 2738 784 2636 908 c 1,105,106
 2514 1051 2514 1051 2340 1051 c 0,107,108
 2196 1051 2196 1051 2116 1010 c 1,109,110
 2386 776 2386 776 2386 471 c 1,111,112
 2366 257 2366 257 2258 123 c 1,113,114
 2132 -21 2132 -21 1975 -21 c 0,115,116
 1826 -21 1826 -21 1700 123 c 1,117,118
 1592 257 1592 257 1572 471 c 1,119,120
 1572 771 1572 771 1843 1010 c 1,121,122
 1743 1062 1743 1062 1609 1058 c 1,33,34
EndSplineSet
EndChar

StartChar: t1
Encoding: 3359 3359 36
Width: 1189
GlyphClass: 2
Flags: W
LayerCount: 2
Fore
SplineSet
1171 334 m 0,0,1
 1171 240 1171 240 1127 169 c 128,-1,2
 1083 98 1083 98 1002 54 c 1,3,4
 937 23 937 23 857 5 c 128,-1,5
 777 -13 777 -13 686 -13 c 0,6,7
 627 -13 627 -13 570 -4 c 128,-1,8
 513 5 513 5 458 22 c 0,9,10
 406 38 406 38 362 56 c 128,-1,11
 318 74 318 74 289 92 c 256,12,13
 260 110 260 110 230.5 136.5 c 128,-1,14
 201 163 201 163 175 193 c 1,15,16
 202 222 202 222 229.5 250 c 128,-1,17
 257 278 257 278 284 307 c 1,18,19
 341 217 341 217 463 158 c 1,20,21
 520 133 520 133 575 120.5 c 128,-1,22
 630 108 630 108 686 108 c 0,23,24
 1009 108 1009 108 1009 334 c 0,25,26
 1009 401 1009 401 938 455 c 1,27,28
 850 517 850 517 697 517 c 0,29,30
 208 517 208 517 208 813 c 0,31,32
 208 910 208 910 251 985 c 128,-1,33
 294 1060 294 1060 376 1112 c 1,34,35
 429 1142 429 1142 504.5 1160 c 128,-1,36
 580 1178 580 1178 671 1180 c 1,37,38
 819 1174 819 1174 941 1120 c 128,-1,39
 1063 1066 1063 1066 1150 964 c 1,40,41
 1118 940 1118 940 1086 915.5 c 128,-1,42
 1054 891 1054 891 1023 865 c 1,43,44
 894 1043 894 1043 673 1043 c 0,45,46
 533 1043 533 1043 450 973 c 1,47,48
 369 911 369 911 369 813 c 0,49,50
 369 637 369 637 697 637 c 0,51,52
 1171 637 1171 637 1171 334 c 0,0,1
EndSplineSet
EndChar

StartChar: t2
Encoding: 3360 3360 37
Width: 1403
GlyphClass: 2
Flags: W
LayerCount: 2
Fore
SplineSet
1211 1000 m 0,0,1
 1385 824 1385 824 1385 566 c 0,2,3
 1385 437 1385 437 1339 332 c 128,-1,4
 1293 227 1293 227 1199 146 c 0,5,6
 1107 66 1107 66 1002.5 25.5 c 128,-1,7
 898 -15 898 -15 781 -15 c 0,8,9
 545 -15 545 -15 361 149 c 0,10,11
 175 314 175 314 175 566 c 0,12,13
 175 819 175 819 358 998 c 1,14,15
 541 1175 541 1175 789 1175 c 0,16,17
 1038 1175 1038 1175 1211 1000 c 0,0,1
793 1055 m 0,18,19
 581 1055 581 1055 463 901 c 1,20,21
 361 752 361 752 361 570 c 0,22,23
 361 387 361 387 475 248 c 1,24,25
 598 107 598 107 784 107 c 0,26,27
 965 107 965 107 1087 246 c 1,28,29
 1200 381 1200 381 1200 568 c 256,30,31
 1200 755 1200 755 1089 906 c 1,32,33
 978 1055 978 1055 793 1055 c 0,18,19
EndSplineSet
EndChar

StartChar: t3
Encoding: 3361 3361 38
Width: 2641
GlyphClass: 2
Flags: W
LayerCount: 2
Fore
SplineSet
2622 571 m 1,0,1
 2620 456 2620 456 2590 359 c 0,2,3
 2558 255 2558 255 2496 175 c 1,4,5
 2424 89 2424 89 2330.5 45 c 128,-1,6
 2237 1 2237 1 2122 1 c 0,7,8
 1925 1 1925 1 1800 206 c 1,9,10
 1674 2 1674 2 1444 2 c 0,11,12
 980 2 980 2 980 603 c 0,13,14
 980 823 980 823 917 944 c 1,15,16
 844 1065 844 1065 680 1065 c 1,17,18
 517 1047 517 1047 445 923 c 1,19,20
 364 795 364 795 364 584 c 1,21,22
 359 220 359 220 666 81 c 1,23,-1
 598 -39 l 1,24,-1
 564 -25 l 1,25,26
 380 52 380 52 277 218 c 0,27,28
 175 382 175 382 175 584 c 0,29,30
 175 861 175 861 322 1019 c 0,31,32
 473 1181 473 1181 727 1180 c 1,33,34
 1167 1162 1167 1162 1167 603 c 0,35,36
 1167 365 1167 365 1211 259 c 1,37,38
 1273 125 1273 125 1447 125 c 0,39,40
 1552 125 1552 125 1629 199 c 0,41,42
 1705 271 1705 271 1705 347 c 2,43,-1
 1705 1172 l 1,44,-1
 1893 1172 l 1,45,-1
 1894 358 l 1,46,47
 1902 274 1902 274 1952 221 c 1,48,49
 2009 125 2009 125 2120 125 c 0,50,51
 2285 125 2285 125 2360 255 c 0,52,53
 2397 320 2397 320 2416 402 c 0,54,55
 2433 477 2433 477 2435 571 c 1,56,-1
 2434 571 l 1,57,58
 2439 936 2439 936 2132 1074 c 1,59,-1
 2200 1195 l 1,60,-1
 2234 1180 l 1,61,62
 2418 1104 2418 1104 2521 938 c 0,63,64
 2623 773 2623 773 2623 571 c 1,65,-1
 2622 571 l 1,0,1
EndSplineSet
EndChar

StartChar: t4
Encoding: 3362 3362 39
Width: 2867
GlyphClass: 2
Flags: W
LayerCount: 2
Fore
SplineSet
2649 795 m 0,0,1
 2649 849 2649 849 2633.5 899 c 128,-1,2
 2618 949 2618 949 2589 991 c 0,3,4
 2560 1032 2560 1032 2518 1054.5 c 128,-1,5
 2476 1077 2476 1077 2422 1077 c 0,6,7
 2315 1077 2315 1077 2257 998 c 1,8,9
 2199 917 2199 917 2199 801 c 0,10,11
 2199 687 2199 687 2257 608 c 0,12,13
 2313 532 2313 532 2421 532 c 256,14,15
 2529 532 2529 532 2588 608 c 0,16,17
 2649 685 2649 685 2649 795 c 0,0,1
2250 112 m 1,18,19
 2440 121 2440 121 2558 243 c 0,20,21
 2674 363 2674 363 2678 519 c 1,22,23
 2550 413 2550 413 2407 413 c 2,24,-1
 2402 413 l 2,25,26
 2250 413 2250 413 2139 520 c 1,27,28
 2032 627 2032 627 2032 794 c 0,29,30
 2032 960 2032 960 2132 1074 c 0,31,32
 2233 1189 2233 1189 2413 1189 c 0,33,34
 2522 1189 2522 1189 2609 1139.5 c 128,-1,35
 2696 1090 2696 1090 2756 1006 c 1,36,37
 2801 932 2801 932 2825 841 c 128,-1,38
 2849 750 2849 750 2849 645 c 2,39,-1
 2849 616 l 2,40,41
 2849 333 2849 333 2676 165 c 1,42,43
 2505 -4 2505 -4 2211 -4 c 1,44,45
 1925 1 1925 1 1800 206 c 1,46,47
 1674 2 1674 2 1444 2 c 0,48,49
 980 2 980 2 980 603 c 0,50,51
 980 823 980 823 917 944 c 1,52,53
 844 1065 844 1065 680 1065 c 1,54,55
 517 1047 517 1047 445 923 c 1,56,57
 364 795 364 795 364 584 c 2,58,-1
 364 572 l 2,59,60
 364 218 364 218 666 81 c 1,61,-1
 598 -39 l 1,62,-1
 564 -25 l 1,63,64
 380 52 380 52 277 218 c 0,65,66
 175 382 175 382 175 584 c 0,67,68
 175 861 175 861 322 1019 c 0,69,70
 472 1180 472 1180 724 1180 c 2,71,-1
 727 1180 l 1,72,73
 1167 1162 1167 1162 1167 603 c 0,74,75
 1167 365 1167 365 1211 259 c 1,76,77
 1273 125 1273 125 1447 125 c 0,78,79
 1552 125 1552 125 1629 199 c 0,80,81
 1705 271 1705 271 1705 347 c 2,82,-1
 1705 1172 l 1,83,-1
 1893 1172 l 1,84,-1
 1894 358 l 2,85,86
 1894 277 1894 277 1965 200 c 1,87,88
 2073 112 2073 112 2237 112 c 2,89,-1
 2250 112 l 1,18,19
EndSplineSet
EndChar

StartChar: nh
Encoding: 3363 3363 40
Width: 2909
GlyphClass: 2
Flags: W
LayerCount: 2
Fore
SplineSet
374 370 m 0,0,1
 374 259 374 259 433 173 c 256,2,3
 492 87 492 87 599 87 c 256,4,5
 706 87 706 87 765 167 c 0,6,7
 823 245 823 245 823 363 c 0,8,9
 823 502 823 502 765 576 c 1,10,11
 706 653 706 653 600 653 c 0,12,13
 496 653 496 653 434 575 c 0,14,15
 374 500 374 500 374 370 c 0,0,1
2652 907 m 1,17,18
 2617 976 2617 976 2556.5 1016.5 c 128,-1,19
 2496 1057 2496 1057 2383 1057 c 0,20,21
 2240 1057 2240 1057 2164 966 c 0,22,23
 2089 876 2089 876 2089 751 c 2,24,-1
 2089 5 l 1,25,-1
 1900 5 l 1,26,-1
 1900 751 l 2,27,28
 1900 876 1900 876 1841 961 c 1,29,30
 1782 1055 1782 1055 1649 1057 c 0,31,32
 1524 1059 1524 1059 1450 991 c 1,33,34
 1353 909 1353 909 1353 800 c 2,35,-1
 1353 5 l 1,36,-1
 1165 5 l 1,37,-1
 1165 832 l 2,38,39
 1165 898 1165 898 1078 971 c 1,40,41
 992 1045 992 1045 831 1059 c 1,42,43
 585 1057 585 1057 468 935 c 0,44,45
 350 812 350 812 363 656 c 1,46,47
 385 684 385 684 425 709 c 0,48,49
 514 765 514 765 624 765 c 0,50,51
 777 765 777 765 885 659 c 1,52,53
 992 552 992 552 992 367 c 0,54,55
 992 202 992 202 892 87 c 1,56,57
 791 -25 791 -25 613 -25 c 0,58,59
 389 -25 389 -25 270 158 c 0,60,61
 175 303 175 303 175 532 c 2,62,-1
 175 564 l 2,63,64
 175 844 175 844 347 1008 c 0,65,66
 435 1091 435 1091 556.5 1133.5 c 128,-1,67
 678 1176 678 1176 821 1178 c 1,68,69
 968 1171 968 1171 1070 1124.5 c 128,-1,70
 1172 1078 1172 1078 1257 980 c 1,71,72
 1407 1177 1407 1177 1637 1175 c 0,73,74
 1875 1173 1875 1173 1994 989 c 1,75,76
 2124 1175 2124 1175 2392 1175 c 0,77,78
 2670 1175 2670 1175 2802 969 c 1,79,80
 2891 828 2891 828 2891 586 c 0,81,82
 2891 385 2891 385 2789 222 c 0,83,84
 2686 58 2686 58 2468 -32 c 1,85,-1
 2400 87 l 1,86,87
 2707 224 2707 224 2712 602 c 1,88,16
 2705 790 2705 790 2652 907 c 1,17,18
EndSplineSet
EndChar

StartChar: th1
Encoding: 3364 3364 41
Width: 2116
GlyphClass: 2
Flags: W
LayerCount: 2
Fore
SplineSet
1135 104 m 256,0,1
 1226 104 1226 104 1288 216 c 0,2,3
 1352 331 1352 331 1356 467 c 1,4,5
 1356 602 1356 602 1301 735 c 0,6,7
 1247 867 1247 867 1137 952 c 1,8,-1
 1133 952 l 1,9,10
 1019 856 1019 856 969 735 c 0,11,12
 914 602 914 602 914 467 c 1,13,14
 918 331 918 331 982 216 c 0,15,16
 1044 104 1044 104 1135 104 c 256,0,1
1131 -16 m 0,17,18
 982 -16 982 -16 856 127 c 1,19,20
 748 262 748 262 728 476 c 1,21,22
 728 776 728 776 999 1015 c 1,23,24
 907 1055 907 1055 769 1056 c 1,25,26
 586 1035 586 1035 481 911 c 1,27,28
 379 786 379 786 364 625 c 0,29,30
 360 580 360 580 358 543 c 1,31,32
 377 222 377 222 603 109 c 1,33,-1
 644 93 l 1,34,-1
 574 -36 l 1,35,-1
 537 -19 l 1,36,37
 184 171 184 171 175 605 c 1,38,39
 177 630 177 630 178 642 c 0,40,41
 190 751 190 751 237 845 c 128,-1,42
 284 939 284 939 368 1016 c 1,43,-1
 368 1015 l 1,44,45
 388 1033 388 1033 412.5 1050 c 128,-1,46
 437 1067 437 1067 460 1082 c 1,47,48
 541 1129 541 1129 621 1154 c 128,-1,49
 701 1179 701 1179 777 1179 c 1,50,51
 996 1176 996 1176 1137 1094 c 1,52,53
 1293 1177 1293 1177 1496 1177 c 0,54,55
 1572 1177 1572 1177 1652 1152 c 128,-1,56
 1732 1127 1732 1127 1813 1081 c 0,57,58
 1836 1067 1836 1067 1860.5 1049.5 c 128,-1,59
 1885 1032 1885 1032 1905 1015 c 1,60,-1
 1905 1016 l 1,61,62
 1989 939 1989 939 2036 846.5 c 128,-1,63
 2083 754 2083 754 2095 646 c 0,64,65
 2096 634 2096 634 2098 609 c 1,66,67
 2089 169 2089 169 1736 -18 c 1,68,-1
 1699 -35 l 1,69,-1
 1629 93 l 1,70,-1
 1670 109 l 1,71,72
 1896 220 1896 220 1915 538 c 1,73,74
 1913 574 1913 574 1909 629 c 1,75,76
 1894 789 1894 789 1792 912 c 1,77,78
 1670 1056 1670 1056 1496 1056 c 0,79,80
 1352 1056 1352 1056 1272 1015 c 1,81,82
 1542 781 1542 781 1542 476 c 1,83,84
 1522 262 1522 262 1414 127 c 1,85,86
 1288 -16 1288 -16 1131 -16 c 0,17,18
EndSplineSet
EndChar

StartChar: th2
Encoding: 3365 3365 42
Width: 1863
GlyphClass: 2
Flags: W
LayerCount: 2
Fore
SplineSet
1664 142 m 1,0,-1
 1664 749 l 2,1,2
 1664 880 1664 880 1594 968 c 256,3,4
 1524 1056 1524 1056 1362 1056 c 0,5,6
 1201 1056 1201 1056 1121 967 c 0,7,8
 1041 877 1041 877 1041 749 c 2,9,-1
 1041 142 l 1,10,-1
 1664 142 l 1,0,-1
175 3 m 1,11,-1
 175 1184 l 1,12,-1
 364 1184 l 1,13,-1
 364 126 l 1,14,-1
 851 125 l 1,15,-1
 851 749 l 2,16,17
 851 949 851 949 990 1070 c 0,18,19
 1129 1192 1129 1192 1350 1192 c 0,20,21
 1492 1192 1492 1192 1595 1138.5 c 128,-1,22
 1698 1085 1698 1085 1758 990 c 1,23,24
 1799 913 1799 913 1822 827 c 128,-1,25
 1845 741 1845 741 1845 654 c 0,26,27
 1844 490 1844 490 1843 330 c 128,-1,28
 1842 170 1842 170 1841 6 c 1,29,-1
 175 3 l 1,11,-1
EndSplineSet
EndChar

StartChar: th3
Encoding: 3366 3366 43
Width: 1445
GlyphClass: 2
Flags: W
LayerCount: 2
Fore
SplineSet
803 1179 m 1,0,1
 1079 1179 1079 1179 1213 1096 c 1,2,3
 1399 991 1399 991 1399 820 c 2,4,-1
 1399 815 l 2,5,6
 1399 652 1399 652 1279 584 c 1,7,8
 1307 566 1307 566 1332.5 541.5 c 128,-1,9
 1358 517 1358 517 1381 484 c 0,10,11
 1427 419 1427 419 1427 323 c 0,12,13
 1427 140 1427 140 1285 57 c 1,14,15
 1175 -10 1175 -10 999 -10 c 0,16,17
 912 -10 912 -10 844 0 c 0,18,19
 824 3 824 3 801 7 c 1,20,-1
 798 165 l 1,21,22
 835 138 835 138 892.5 120.5 c 128,-1,23
 950 103 950 103 979 103 c 0,24,25
 1038 103 1038 103 1086 114.5 c 128,-1,26
 1134 126 1134 126 1171 152 c 1,27,28
 1247 200 1247 200 1247 312 c 0,29,30
 1247 413 1247 413 1178 461 c 1,31,32
 1143 483 1143 483 1081.5 495.5 c 128,-1,33
 1020 508 1020 508 935 508 c 2,34,-1
 825 508 l 1,35,-1
 825 659 l 1,36,-1
 944 658 l 1,37,38
 1019 659 1019 659 1071 668 c 128,-1,39
 1123 677 1123 677 1155.5 696 c 128,-1,40
 1188 715 1188 715 1202.5 743.5 c 128,-1,41
 1217 772 1217 772 1217 813 c 0,42,43
 1217 941 1217 941 1112 1007 c 1,44,45
 1037 1059 1037 1059 803 1061 c 1,46,47
 605 1058 605 1058 486 918 c 1,48,49
 360 773 360 773 356 573 c 1,50,-1
 356 566 l 2,51,52
 356 262 356 262 477 60 c 1,53,-1
 338 -43 l 1,54,55
 175 206 175 206 175 577 c 0,56,57
 175 837 175 837 350 1005 c 0,58,59
 522 1171 522 1171 803 1179 c 1,0,1
EndSplineSet
EndChar

StartChar: th4
Encoding: 3367 3367 44
Width: 2118
GlyphClass: 2
Flags: W
LayerCount: 2
Fore
SplineSet
1226 317 m 1,0,1
 1226 314 1226 314 1227 310 c 0,2,3
 1232 267 1232 267 1241 243 c 1,4,5
 1331 81 1331 81 1507 81 c 1,6,7
 1705 91 1705 91 1806 228 c 1,8,9
 1904 351 1904 351 1918 520 c 0,10,11
 1922 565 1922 565 1924 601 c 1,12,13
 1906 919 1906 919 1688 1030 c 1,14,-1
 1638 1056 l 1,15,-1
 1706 1178 l 1,16,-1
 1752 1156 l 1,17,18
 2091 969 2091 969 2100 540 c 1,19,20
 2098 515 2098 515 2097 503 c 0,21,22
 2086 385 2086 385 2040.5 292.5 c 128,-1,23
 1995 200 1995 200 1914 124 c 1,24,-1
 1914 125 l 1,25,26
 1895 107 1895 107 1871.5 90.5 c 128,-1,27
 1848 74 1848 74 1826 59 c 1,28,29
 1748 12 1748 12 1671 -12.5 c 128,-1,30
 1594 -37 1594 -37 1518 -37 c 0,31,32
 1295 -37 1295 -37 1138 111 c 1,33,34
 980 -32 980 -32 757 -32 c 0,35,36
 681 -32 681 -32 604 -7.5 c 128,-1,37
 527 17 527 17 449 64 c 1,38,39
 427 79 427 79 403.5 95.5 c 128,-1,40
 380 112 380 112 361 130 c 1,41,-1
 361 129 l 1,42,43
 280 205 280 205 234.5 297.5 c 128,-1,44
 189 390 189 390 178 498 c 0,45,46
 177 510 177 510 175 545 c 1,47,48
 184 974 184 974 523 1161 c 1,49,-1
 582 1183 l 1,50,-1
 639 1061 l 1,51,-1
 587 1035 l 1,52,53
 369 924 369 924 351 606 c 1,54,55
 353 570 353 570 357 515 c 0,56,57
 371 356 371 356 469 233 c 1,58,59
 570 110 570 110 749 86 c 1,60,61
 967 101 967 101 1034 248 c 1,62,63
 1043 272 1043 272 1048.5 315.5 c 128,-1,64
 1054 359 1054 359 1054 423 c 2,65,-1
 1054 1142 l 1,66,-1
 1219 1142 l 1,67,-1
 1220 423 l 2,68,69
 1220 360 1220 360 1225 315 c 1,70,-1
 1226 317 l 1,0,1
EndSplineSet
EndChar

StartChar: n1
Encoding: 3368 3368 45
Width: 2118
GlyphClass: 2
Flags: W
LayerCount: 2
Fore
SplineSet
1225 831 m 1,0,1
 1220 786 1220 786 1220 723 c 2,2,-1
 1219 4 l 1,3,-1
 1054 4 l 1,4,-1
 1054 723 l 2,5,6
 1054 787 1054 787 1048.5 830.5 c 128,-1,7
 1043 874 1043 874 1034 898 c 1,8,9
 967 1045 967 1045 749 1060 c 1,10,11
 570 1036 570 1036 469 913 c 1,12,13
 371 790 371 790 357 631 c 0,14,15
 353 576 353 576 351 540 c 1,16,17
 369 222 369 222 587 111 c 1,18,-1
 639 85 l 1,19,-1
 582 -37 l 1,20,-1
 523 -15 l 1,21,22
 184 172 184 172 175 601 c 1,23,24
 177 636 177 636 178 648 c 0,25,26
 189 756 189 756 234.5 848.5 c 128,-1,27
 280 941 280 941 361 1017 c 1,28,-1
 361 1016 l 1,29,30
 380 1034 380 1034 403.5 1050.5 c 128,-1,31
 427 1067 427 1067 449 1082 c 1,32,33
 527 1129 527 1129 604 1153.5 c 128,-1,34
 681 1178 681 1178 757 1178 c 0,35,36
 980 1178 980 1178 1138 1035 c 1,37,38
 1295 1183 1295 1183 1518 1183 c 0,39,40
 1594 1183 1594 1183 1671 1158.5 c 128,-1,41
 1748 1134 1748 1134 1826 1087 c 1,42,43
 1848 1072 1848 1072 1871.5 1055.5 c 128,-1,44
 1895 1039 1895 1039 1914 1021 c 1,45,-1
 1914 1022 l 1,46,47
 1995 946 1995 946 2040.5 853.5 c 128,-1,48
 2086 761 2086 761 2097 643 c 0,49,50
 2098 631 2098 631 2100 606 c 1,51,52
 2091 177 2091 177 1752 -10 c 1,53,-1
 1706 -32 l 1,54,-1
 1638 90 l 1,55,-1
 1688 116 l 1,56,57
 1906 227 1906 227 1924 545 c 1,58,59
 1922 581 1922 581 1918 626 c 0,60,61
 1904 795 1904 795 1806 918 c 1,62,63
 1705 1055 1705 1055 1507 1065 c 1,64,65
 1331 1065 1331 1065 1241 903 c 1,66,67
 1232 879 1232 879 1227 836 c 0,68,69
 1226 832 1226 832 1226 829 c 1,70,-1
 1225 831 l 1,0,1
EndSplineSet
EndChar

StartChar: uni0D29
Encoding: 3369 3369 46
Width: 2302
GlyphClass: 2
Flags: W
LayerCount: 2
Fore
SplineSet
374 394 m 0,0,1
 374 254 374 254 433 170 c 1,2,3
 492 84 492 84 598 84 c 0,4,5
 705 84 705 84 764 163 c 0,6,7
 822 240 822 240 822 367 c 0,8,9
 822 506 822 506 764 580 c 0,10,11
 705 656 705 656 599 656 c 256,12,13
 493 656 493 656 434 579 c 1,14,15
 374 504 374 504 374 394 c 0,0,1
1669 1063 m 1,16,17
 1531 1058 1531 1058 1432 988 c 1,18,19
 1331 911 1331 911 1331 816 c 2,20,-1
 1331 10 l 1,21,-1
 1143 10 l 1,22,-1
 1144 819 l 2,23,24
 1144 914 1144 914 1039 991 c 1,25,26
 938 1067 938 1067 792 1062 c 1,27,28
 584 1061 584 1061 467 939 c 0,29,30
 351 817 351 817 357 653 c 1,31,32
 398 695 398 695 424 712 c 0,33,34
 468 740 468 740 517.5 754.5 c 128,-1,35
 567 769 567 769 623 769 c 0,36,37
 777 769 777 769 885 662 c 0,38,39
 992 555 992 555 992 387 c 0,40,41
 992 193 992 193 892 78 c 1,42,43
 791 -34 791 -34 612 -34 c 0,44,45
 388 -34 388 -34 269 149 c 0,46,47
 175 294 175 294 175 536 c 2,48,-1
 175 566 l 2,49,50
 175 846 175 846 343 1010 c 0,51,52
 512 1175 512 1175 797 1180 c 1,53,54
 882 1179 882 1179 937.5 1167 c 128,-1,55
 993 1155 993 1155 1041 1137 c 1,56,57
 1113 1103 1113 1103 1163.5 1063.5 c 128,-1,58
 1214 1024 1214 1024 1244 980 c 1,59,60
 1390 1183 1390 1183 1668 1183 c 1,61,62
 1758 1181 1758 1181 1838 1156.5 c 128,-1,63
 1918 1132 1918 1132 1999 1085 c 1,64,65
 2022 1070 2022 1070 2046.5 1053.5 c 128,-1,66
 2071 1037 2071 1037 2091 1020 c 1,67,-1
 2091 1021 l 1,68,69
 2175 945 2175 945 2222 852 c 128,-1,70
 2269 759 2269 759 2281 642 c 0,71,72
 2282 630 2282 630 2284 585 c 1,73,74
 2275 157 2275 157 1922 -29 c 1,75,-1
 1885 -47 l 1,76,-1
 1815 81 l 1,77,-1
 1856 96 l 1,78,79
 2082 207 2082 207 2101 524 c 1,80,81
 2099 561 2099 561 2095 625 c 1,82,83
 2080 793 2080 793 1978 917 c 1,84,85
 1873 1052 1873 1052 1669 1063 c 1,16,17
EndSplineSet
EndChar

StartChar: p1
Encoding: 3370 3370 47
Width: 1961
GlyphClass: 2
Flags: W
LayerCount: 2
Fore
SplineSet
883 124 m 1,0,-1
 1756 124 l 1,1,-1
 1756 1196 l 1,2,-1
 1943 1196 l 1,3,-1
 1943 3 l 1,4,-1
 658 4 l 1,5,-1
 629 93 l 1,6,-1
 652 107 l 1,7,8
 803 185 803 185 799 382 c 1,9,10
 799 501 799 501 743.5 572 c 128,-1,11
 688 643 688 643 583 648 c 1,12,13
 473 648 473 648 416 576 c 128,-1,14
 359 504 359 504 359 389 c 0,15,16
 359 173 359 173 502 107 c 1,17,-1
 535 95 l 1,18,-1
 491 -7 l 1,19,-1
 442 9 l 1,20,21
 315 53 315 53 245 140 c 128,-1,22
 175 227 175 227 175 395 c 0,23,24
 175 561 175 561 291.5 662 c 128,-1,25
 408 763 408 763 584 763 c 256,26,27
 760 763 760 763 873 662 c 128,-1,28
 986 561 986 561 986 396 c 0,29,30
 986 235 986 235 883 124 c 1,0,-1
EndSplineSet
EndChar

StartChar: p2
Encoding: 3371 3371 48
Width: 2540
GlyphClass: 2
Flags: W
LayerCount: 2
Fore
SplineSet
2338 144 m 1,0,-1
 2338 752 l 2,1,2
 2338 814 2338 814 2317.5 870.5 c 128,-1,3
 2297 927 2297 927 2262 970 c 1,4,5
 2224 1012 2224 1012 2162 1035 c 128,-1,6
 2100 1058 2100 1058 2015 1058 c 0,7,8
 1845 1058 1845 1058 1758 969 c 1,9,10
 1716 924 1716 924 1694.5 870 c 128,-1,11
 1673 816 1673 816 1673 752 c 2,12,-1
 1673 144 l 1,13,-1
 2338 144 l 1,0,-1
1483 125 m 1,14,-1
 1483 749 l 2,15,16
 1483 949 1483 949 1628 1069 c 1,17,18
 1774 1192 1774 1192 2005 1192 c 0,19,20
 2154 1192 2154 1192 2260.5 1140 c 128,-1,21
 2367 1088 2367 1088 2430 990 c 1,22,23
 2475 912 2475 912 2498.5 827.5 c 128,-1,24
 2522 743 2522 743 2522 654 c 0,25,26
 2521 490 2521 490 2519.5 330 c 128,-1,27
 2518 170 2518 170 2517 6 c 1,28,-1
 658 4 l 1,29,-1
 629 93 l 1,30,-1
 652 107 l 1,31,32
 803 185 803 185 799 382 c 1,33,34
 799 501 799 501 743.5 572 c 128,-1,35
 688 643 688 643 583 648 c 1,36,37
 473 648 473 648 416 576 c 128,-1,38
 359 504 359 504 359 389 c 0,39,40
 359 173 359 173 502 107 c 1,41,-1
 535 95 l 1,42,-1
 491 -7 l 1,43,-1
 442 9 l 1,44,45
 315 53 315 53 245 140 c 128,-1,46
 175 227 175 227 175 395 c 0,47,48
 175 561 175 561 291.5 662 c 128,-1,49
 408 763 408 763 584 763 c 256,50,51
 760 763 760 763 873 662 c 128,-1,52
 986 561 986 561 986 396 c 0,53,54
 986 235 986 235 883 124 c 1,55,-1
 1483 125 l 1,14,-1
EndSplineSet
EndChar

StartChar: p3
Encoding: 3372 3372 49
Width: 2705
GlyphClass: 2
Flags: W
LayerCount: 2
Fore
SplineSet
600 657 m 256,0,1
 495 657 495 657 433 579 c 0,2,3
 373 503 373 503 373 392 c 0,4,5
 373 279 373 279 432 194 c 0,6,7
 491 108 491 108 599 108 c 0,8,9
 705 108 705 108 764 188 c 0,10,11
 822 266 822 266 822 384 c 0,12,13
 822 505 822 505 764 580 c 0,14,15
 705 657 705 657 600 657 c 256,0,1
1211 983 m 1,16,17
 1387 1184 1387 1184 1589 1184 c 0,18,19
 1793 1184 1793 1184 1932 1031 c 1,20,21
 2066 875 2066 875 2066 610 c 0,22,23
 2066 453 2066 453 2009 331 c 128,-1,24
 1952 209 1952 209 1835 123 c 1,25,-1
 2498 123 l 1,26,-1
 2498 1184 l 1,27,-1
 2687 1184 l 1,28,-1
 2687 4 l 1,29,-1
 1649 4 l 1,30,31
 1641 33 1641 33 1634 62.5 c 128,-1,32
 1627 92 1627 92 1619 122 c 1,33,34
 1876 266 1876 266 1876 610 c 0,35,36
 1876 933 1876 933 1714 1031 c 0,37,38
 1661 1062 1661 1062 1577 1062 c 0,39,40
 1536 1062 1536 1062 1491 1039.5 c 128,-1,41
 1446 1017 1446 1017 1398 974 c 0,42,43
 1350 930 1350 930 1325 877.5 c 128,-1,44
 1300 825 1300 825 1300 765 c 0,45,46
 1300 575 1300 575 1300.5 384.5 c 128,-1,47
 1301 194 1301 194 1301 3 c 1,48,-1
 1112 3 l 1,49,-1
 1114 763 l 2,50,51
 1114 822 1114 822 1087.5 876 c 128,-1,52
 1061 930 1061 930 1013 974 c 1,53,54
 913 1062 913 1062 771 1068 c 1,55,56
 578 1057 578 1057 465 938 c 0,57,58
 350 816 350 816 359 667 c 1,59,60
 407 708 407 708 442 729 c 1,61,62
 477 748 477 748 523 759 c 128,-1,63
 569 770 569 770 623 770 c 0,64,65
 776 770 776 770 884 663 c 0,66,67
 991 556 991 556 991 388 c 0,68,69
 991 222 991 222 892 109 c 0,70,71
 791 -5 791 -5 612 -5 c 0,72,73
 388 -5 388 -5 269 179 c 0,74,75
 175 323 175 323 175 537 c 2,76,-1
 175 567 l 2,77,78
 175 848 175 848 345 1013 c 1,79,80
 514 1179 514 1179 779 1184 c 1,81,82
 838 1184 838 1184 895.5 1170.5 c 128,-1,83
 953 1157 953 1157 1013 1131 c 1,84,85
 1131 1076 1131 1076 1207 983 c 1,86,-1
 1211 983 l 1,16,17
EndSplineSet
EndChar

StartChar: p4
Encoding: 3373 3373 50
Width: 1467
GlyphClass: 2
Flags: W
LayerCount: 2
Fore
SplineSet
854 1186 m 1,0,-1
 859 1186 l 2,1,2
 1077 1186 1077 1186 1233 1108 c 0,3,4
 1421 1014 1421 1014 1421 856 c 2,5,-1
 1421 840 l 1,6,7
 1418 739 1418 739 1356 697 c 0,8,9
 1294 654 1294 654 1220 654 c 2,10,-1
 1205 654 l 2,11,12
 1158 654 1158 654 1094 668 c 0,13,14
 1029 683 1029 683 979 683 c 256,15,16
 929 683 929 683 901 663 c 1,17,18
 871 639 871 639 870 552 c 1,19,20
 872 517 872 517 891 496 c 128,-1,21
 910 475 910 475 955 475 c 0,22,23
 1001 475 1001 475 1066 497 c 0,24,25
 1099 508 1099 508 1131.5 513 c 128,-1,26
 1164 518 1164 518 1194 518 c 0,27,28
 1298 518 1298 518 1373 453 c 0,29,30
 1449 388 1449 388 1449 273 c 0,31,32
 1449 -30 1449 -30 1016 -30 c 0,33,34
 912 -30 912 -30 766 -2 c 1,35,-1
 805 169 l 1,36,37
 912 100 912 100 1049 92 c 1,38,-1
 1057 92 l 2,39,40
 1138 92 1138 92 1209 133 c 1,41,42
 1278 180 1278 180 1278 258 c 0,43,44
 1278 304 1278 304 1239 345 c 0,45,46
 1201 385 1201 385 1151 385 c 0,47,48
 1125 385 1125 385 1097.5 378.5 c 128,-1,49
 1070 372 1070 372 1039 360 c 0,50,51
 976 334 976 334 921 334 c 1,52,53
 818 337 818 337 762 390 c 128,-1,54
 706 443 706 443 706 547 c 2,55,-1
 706 562 l 2,56,57
 706 714 706 714 766 765 c 0,58,59
 829 818 829 818 906 818 c 2,60,-1
 909 818 l 1,61,62
 989 816 989 816 1047 800 c 0,63,64
 1079 791 1079 791 1104 786 c 128,-1,65
 1129 781 1129 781 1151 781 c 0,66,67
 1192 781 1192 781 1220 806 c 0,68,69
 1248 830 1248 830 1248 865 c 0,70,71
 1248 907 1248 907 1218.5 941.5 c 128,-1,72
 1189 976 1189 976 1132 1008 c 1,73,74
 1014 1064 1014 1064 864 1064 c 0,75,76
 839 1064 839 1064 811 1063 c 0,77,78
 613 1052 613 1052 486 918 c 1,79,80
 360 773 360 773 356 573 c 1,81,-1
 356 566 l 2,82,83
 356 246 356 246 499 58 c 1,84,-1
 376 -42 l 1,85,86
 175 206 175 206 175 577 c 0,87,88
 175 837 175 837 350 1005 c 0,89,90
 522 1171 522 1171 854 1186 c 1,0,-1
EndSplineSet
EndChar

StartChar: m1
Encoding: 3374 3374 51
Width: 1311
GlyphClass: 2
Flags: W
LayerCount: 2
Fore
SplineSet
1293 10 m 1,0,-1
 175 10 l 1,1,2
 175 77 175 77 176 333.5 c 128,-1,3
 177 590 177 590 177 658 c 1,4,5
 184 771 184 771 229.5 872.5 c 128,-1,6
 275 974 275 974 347 1045 c 1,7,8
 425 1110 425 1110 530.5 1149 c 128,-1,9
 636 1188 636 1188 758 1188 c 0,10,11
 885 1188 885 1188 985 1149.5 c 128,-1,12
 1085 1111 1085 1111 1161 1036 c 0,13,14
 1244 954 1244 954 1271 855 c 0,15,16
 1296 760 1296 760 1293 646 c 1,17,-1
 1293 10 l 1,0,-1
1139 142 m 1,18,-1
 1139 336 l 2,19,20
 1139 398 1139 398 1138.5 466 c 128,-1,21
 1138 534 1138 534 1137 611 c 1,22,-1
 1137 646 l 1,23,24
 1136 820 1136 820 1077 905 c 0,25,26
 1017 990 1017 990 932 1030.5 c 128,-1,27
 847 1071 847 1071 732 1071 c 1,28,29
 597 1062 597 1062 508 1003 c 256,30,31
 419 944 419 944 388 859 c 1,32,33
 488 937 488 937 614 937 c 0,34,35
 763 937 763 937 856 841 c 0,36,37
 901 795 901 795 924 731 c 128,-1,38
 947 667 947 667 949 594 c 1,39,40
 938 473 938 473 868.5 359.5 c 128,-1,41
 799 246 799 246 669 142 c 1,42,-1
 1139 142 l 1,18,-1
443 142 m 1,43,44
 561 221 561 221 669 347 c 1,45,46
 723 412 723 412 750 471 c 128,-1,47
 777 530 777 530 777 589 c 0,48,49
 777 824 777 824 604 829 c 1,50,-1
 596 829 l 2,51,52
 508 829 508 829 434 755 c 0,53,54
 357 678 357 678 344 595 c 1,55,-1
 344 142 l 1,56,-1
 443 142 l 1,43,44
EndSplineSet
EndChar

StartChar: y1
Encoding: 3375 3375 52
Width: 2215
GlyphClass: 2
Flags: W
LayerCount: 2
Fore
SplineSet
1434 355 m 1,0,1
 1519 481 1519 481 1519 654 c 0,2,3
 1519 823 1519 823 1431 948 c 1,4,5
 1359 1047 1359 1047 1238 1047 c 0,6,7
 1118 1047 1118 1047 1036 931 c 1,8,9
 954 813 954 813 954 646 c 0,10,11
 954 560 954 560 969.5 487 c 128,-1,12
 985 414 985 414 1014 351 c 1,13,14
 1075 226 1075 226 1194 160 c 1,15,16
 1275 197 1275 197 1335 245 c 128,-1,17
 1395 293 1395 293 1434 355 c 1,0,1
767 660 m 0,18,19
 767 736 767 736 785 813 c 1,20,21
 724 1032 724 1032 564 1042 c 1,22,23
 489 1048 489 1048 435 976 c 0,24,25
 363 879 363 879 363 675 c 0,26,27
 363 472 363 472 494 299 c 1,28,29
 652 106 652 106 913 106 c 0,30,31
 1002 106 1002 106 1040 120 c 1,32,33
 1020 133 1020 133 998 152.5 c 128,-1,34
 976 172 976 172 950 200 c 0,35,36
 925 226 925 226 902.5 258 c 128,-1,37
 880 290 880 290 859 325 c 1,38,39
 814 406 814 406 790.5 489.5 c 128,-1,40
 767 573 767 573 767 660 c 0,18,19
1448 -22 m 1,41,42
 1310 -15 1310 -15 1191 33 c 1,43,44
 1054 -15 1054 -15 902 -15 c 0,45,46
 748 -15 748 -15 613.5 42.5 c 128,-1,47
 479 100 479 100 372 206 c 1,48,49
 329 254 329 254 293 310 c 128,-1,50
 257 366 257 366 230.5 426 c 128,-1,51
 204 486 204 486 189.5 550.5 c 128,-1,52
 175 615 175 615 175 679 c 0,53,54
 175 946 175 946 320 1076 c 1,55,-1
 320 1075 l 1,56,57
 429 1168 429 1168 570 1168 c 0,58,59
 644 1168 644 1168 726 1110 c 1,60,61
 805 1057 805 1057 855 976 c 1,62,63
 889 1013 889 1013 935 1051.5 c 128,-1,64
 981 1090 981 1090 1032 1115 c 0,65,66
 1084 1141 1084 1141 1137.5 1154.5 c 128,-1,67
 1191 1168 1191 1168 1244 1168 c 0,68,69
 1333 1168 1333 1168 1411 1135 c 128,-1,70
 1489 1102 1489 1102 1556 1037 c 1,71,72
 1706 897 1706 897 1706 643 c 0,73,74
 1706 470 1706 470 1582 308 c 0,75,76
 1533 243 1533 243 1470 190 c 0,77,78
 1442 166 1442 166 1416 146 c 128,-1,79
 1390 126 1390 126 1368 113 c 1,80,81
 1454 85 1454 85 1549 84 c 0,82,83
 1571 84 1571 84 1605 87 c 0,84,85
 1808 107 1808 107 1908 248 c 128,-1,86
 2008 389 2008 389 2008 603 c 0,87,88
 2008 728 2008 728 1951.5 848.5 c 128,-1,89
 1895 969 1895 969 1803 1035 c 1,90,91
 1779 1049 1779 1049 1762 1059 c 1,92,-1
 1845 1184 l 1,93,-1
 1885 1158 l 1,94,95
 2196 949 2196 949 2197 597 c 0,96,97
 2197 328 2197 328 2042 155 c 128,-1,98
 1887 -18 1887 -18 1605 -25 c 1,99,100
 1534 -25 1534 -25 1448 -22 c 1,41,42
EndSplineSet
EndChar

StartChar: r3
Encoding: 3376 3376 53
Width: 1539
GlyphClass: 2
Flags: W
LayerCount: 2
Fore
SplineSet
1326 450 m 0,0,1
 1326 743 1326 743 1111 742 c 1,2,-1
 1106 742 l 1,3,4
 996 737 996 737 941 653 c 1,5,6
 915 610 915 610 901 556 c 128,-1,7
 887 502 887 502 886 413 c 1,8,9
 886 281 886 281 938 191 c 0,10,11
 991 99 991 99 1108 98 c 1,12,13
 1166 101 1166 101 1208.5 130.5 c 128,-1,14
 1251 160 1251 160 1279 214 c 0,15,16
 1301 256 1301 256 1313.5 311 c 128,-1,17
 1326 366 1326 366 1326 450 c 0,0,1
482.5 910.5 m 128,-1,19
 354 769 354 769 354 550 c 0,20,21
 354 271 354 271 533 106 c 1,22,-1
 561 81 l 1,23,-1
 487 -38 l 1,24,-1
 448 -9 l 1,25,26
 175 215 175 215 175 558 c 0,27,28
 175 825 175 825 353 1001 c 0,29,30
 529 1174 529 1174 844 1183 c 1,31,32
 1102 1183 1102 1183 1268 1073 c 1,33,34
 1434 966 1434 966 1490 779 c 1,35,36
 1521 679 1521 679 1521 500 c 0,37,38
 1521 301 1521 301 1414 140 c 1,39,40
 1302 -12 1302 -12 1108 -12 c 0,41,42
 1013 -12 1013 -12 937 20 c 128,-1,43
 861 52 861 52 806 114 c 1,44,45
 755 174 755 174 726.5 251.5 c 128,-1,46
 698 329 698 329 698 419 c 0,47,48
 698 618 698 618 806 739 c 0,49,50
 915 860 915 860 1065 860 c 0,51,52
 1214 860 1214 860 1303 808 c 1,53,54
 1259 921 1259 921 1160 984 c 1,55,56
 1048 1059 1048 1059 858 1059 c 1,57,18
 611 1052 611 1052 482.5 910.5 c 128,-1,19
EndSplineSet
EndChar

StartChar: rh
Encoding: 3377 3377 54
Width: 1423
GlyphClass: 2
Flags: W
LayerCount: 2
Fore
SplineSet
1405 604 m 1,0,1
 1399 347 1399 347 1278.5 186.5 c 128,-1,2
 1158 26 1158 26 990 -31 c 1,3,-1
 949 -48 l 1,4,-1
 905 79 l 1,5,-1
 945 93 l 1,6,7
 1069 139 1069 139 1140 268.5 c 128,-1,8
 1211 398 1211 398 1211 587 c 1,9,-1
 1210 593 l 1,10,11
 1210 791 1210 791 1103.5 925.5 c 128,-1,12
 997 1060 997 1060 787 1061 c 0,13,14
 586 1061 586 1061 469 913 c 1,15,16
 370 782 370 782 370 603 c 0,17,18
 370 407 370 407 440.5 273.5 c 128,-1,19
 511 140 511 140 640 93 c 1,20,-1
 681 79 l 1,21,-1
 630 -48 l 1,22,-1
 594 -31 l 1,23,24
 413 44 413 44 294 202 c 128,-1,25
 175 360 175 360 175 566 c 2,26,-1
 175 574 l 1,27,28
 181 862 181 862 361 1021 c 128,-1,29
 541 1180 541 1180 796 1180 c 0,30,31
 1047 1180 1047 1180 1226 1016.5 c 128,-1,32
 1405 853 1405 853 1405 604 c 1,0,1
EndSplineSet
EndChar

StartChar: l3
Encoding: 3378 3378 55
Width: 1738
GlyphClass: 2
Flags: W
LayerCount: 2
Fore
SplineSet
891 499 m 1,0,-1
 891 697 l 1,1,2
 889 772 889 772 888 812.5 c 128,-1,3
 887 853 887 853 886 860 c 0,4,5
 875 934 875 934 826 985 c 0,6,7
 751 1063 751 1063 623 1063 c 0,8,9
 493 1063 493 1063 429 987 c 0,10,11
 364 910 364 910 364 729 c 2,12,-1
 364 499 l 1,13,-1
 891 499 l 1,0,-1
1535 127 m 1,14,15
 1535 393 1535 393 1534 655.5 c 128,-1,16
 1533 918 1533 918 1533 1184 c 1,17,-1
 1720 1184 l 1,18,-1
 1720 10 l 1,19,-1
 175 10 l 1,20,-1
 178 718 l 2,21,22
 178 829 178 829 198.5 910.5 c 128,-1,23
 219 992 219 992 256 1040 c 1,24,25
 319 1113 319 1113 410 1152 c 128,-1,26
 501 1191 501 1191 618 1190 c 0,27,28
 734 1189 734 1189 825 1150.5 c 128,-1,29
 916 1112 916 1112 979 1040 c 1,30,31
 1020 987 1020 987 1042.5 906 c 128,-1,32
 1065 825 1065 825 1067 721 c 1,33,-1
 1061 386 l 1,34,-1
 364 386 l 1,35,-1
 364 127 l 1,36,-1
 1535 127 l 1,14,15
EndSplineSet
EndChar

StartChar: lh
Encoding: 3379 3379 56
Width: 1492
GlyphClass: 2
Flags: W
LayerCount: 2
Fore
SplineSet
732 537 m 0,0,1
 732 749 732 749 558 749 c 0,2,3
 472 749 472 749 417 704 c 0,4,5
 361 658 361 658 361 593 c 0,6,7
 361 539 361 539 375 494.5 c 128,-1,8
 389 450 389 450 415 416 c 1,9,10
 461 350 461 350 548 350 c 0,11,12
 637 350 637 350 684 415 c 1,13,14
 732 479 732 479 732 537 c 0,0,1
810 175 m 1,15,-1
 827 175 l 2,16,17
 1271 175 1271 175 1287 381 c 1,18,19
 1287 430 1287 430 1259 472 c 1,20,21
 1207 538 1207 538 1140 538 c 0,22,23
 1104 538 1104 538 1066.5 537.5 c 128,-1,24
 1029 537 1029 537 993 537 c 1,25,26
 993 568 993 568 992 597.5 c 128,-1,27
 991 627 991 627 991 659 c 1,28,29
 1067 660 1067 660 1105 660 c 2,30,-1
 1147 660 l 1,31,32
 1262 691 1262 691 1262 811 c 0,33,34
 1262 895 1262 895 1159 969 c 1,35,36
 1021 1055 1021 1055 830 1060 c 0,37,38
 822 1060 822 1060 815.5 1060.5 c 128,-1,39
 809 1061 809 1061 801 1061 c 0,40,41
 758 1061 758 1061 714 1056 c 128,-1,42
 670 1051 670 1051 625 1040 c 1,43,44
 593 1031 593 1031 564.5 1017.5 c 128,-1,45
 536 1004 536 1004 507 984 c 1,46,47
 411 909 411 909 403 837 c 1,48,49
 470 868 470 868 558 868 c 0,50,51
 727 868 727 868 824 778 c 1,52,53
 919 688 919 688 919 549 c 0,54,55
 919 482 919 482 892 424 c 128,-1,56
 865 366 865 366 814 321 c 1,57,58
 758 277 758 277 691.5 253.5 c 128,-1,59
 625 230 625 230 548 230 c 0,60,61
 394 230 394 230 284 323 c 0,62,63
 175 415 175 415 175 608 c 2,64,-1
 175 628 l 2,65,66
 175 848 175 848 320 1009 c 1,67,68
 473 1176 473 1176 813 1176 c 2,69,-1
 819 1176 l 2,70,71
 1096 1176 1096 1176 1260 1085 c 1,72,73
 1438 993 1438 993 1438 798 c 0,74,75
 1438 738 1438 738 1404 683 c 1,76,77
 1370 631 1370 631 1332 607 c 1,78,79
 1474 520 1474 520 1474 368 c 1,80,81
 1472 251 1472 251 1378 153 c 0,82,83
 1276 47 1276 47 1001 42 c 1,84,-1
 557 42 l 1,85,86
 348 37 348 37 348 -74 c 1,87,88
 352 -210 352 -210 557 -210 c 2,89,-1
 1440 -210 l 1,90,-1
 1440 -357 l 1,91,-1
 595 -357 l 2,92,93
 186 -357 186 -357 184 -96 c 1,94,95
 186 114 186 114 381 156 c 0,96,97
 467 174 467 174 645 174 c 1,98,-1
 810 175 l 1,15,-1
EndSplineSet
EndChar

StartChar: zh
Encoding: 3380 3380 57
Width: 1532
GlyphClass: 2
Flags: W
LayerCount: 2
Fore
SplineSet
561 1113 m 1,0,1
 349 1022 349 1022 335 808 c 1,2,3
 337 719 337 719 378.5 643 c 128,-1,4
 420 567 420 567 495 520 c 1,5,6
 552 478 552 478 632 457.5 c 128,-1,7
 712 437 712 437 812 436 c 0,8,9
 833 436 833 436 856 436.5 c 128,-1,10
 879 437 879 437 901 438 c 1,11,12
 738 635 738 635 740 817 c 1,13,14
 740 1191 740 1191 1133 1190 c 0,15,16
 1514 1190 1514 1190 1514 773 c 1,17,18
 1508 674 1508 674 1469 591 c 1,19,20
 1418 497 1418 497 1322 439 c 1,21,22
 1278 417 1278 417 1235 402.5 c 128,-1,23
 1192 388 1192 388 1152 383 c 1,24,25
 1230 250 1230 250 1230 180 c 0,26,27
 1230 14 1230 14 1107 -51 c 1,28,29
 1000 -127 1000 -127 778 -140 c 1,30,31
 643 -131 643 -131 580.5 -113.5 c 128,-1,32
 518 -96 518 -96 461 -63 c 1,33,34
 412 -37 412 -37 381 -4 c 128,-1,35
 350 29 350 29 327 63 c 1,36,-1
 478 114 l 1,37,38
 514 52 514 52 580 18 c 128,-1,39
 646 -16 646 -16 775 -18 c 1,40,41
 925 -14 925 -14 983.5 38 c 128,-1,42
 1042 90 1042 90 1042 189 c 0,43,44
 1042 251 1042 251 978 334 c 1,45,-1
 946 334 l 1,46,47
 908 333 908 333 881 332.5 c 128,-1,48
 854 332 854 332 839 333 c 1,49,50
 701 333 701 333 585.5 360 c 128,-1,51
 470 387 470 387 380 436 c 1,52,53
 282 498 282 498 228.5 588.5 c 128,-1,54
 175 679 175 679 175 783 c 0,55,56
 175 848 175 848 180.5 890.5 c 128,-1,57
 186 933 186 933 228 1018 c 1,58,59
 273 1084 273 1084 335 1130 c 128,-1,60
 397 1176 397 1176 475 1204 c 1,61,-1
 561 1113 l 1,0,1
1122 1069 m 1,62,63
 906 1069 906 1069 908 816 c 1,64,65
 908 611 908 611 1066 470 c 1,66,67
 1331 512 1331 512 1348 790 c 1,68,69
 1338 1060 1338 1060 1122 1069 c 1,62,63
EndSplineSet
EndChar

StartChar: v1
Encoding: 3381 3381 58
Width: 2014
GlyphClass: 2
Flags: W
LayerCount: 2
Fore
SplineSet
1029 134 m 1,0,1
 1094 185 1094 185 1140 269 c 0,2,3
 1211 398 1211 398 1211 588 c 0,4,5
 1210 792 1210 792 1102 929 c 128,-1,6
 994 1066 994 1066 784 1067 c 0,7,8
 583 1067 583 1067 469 914 c 0,9,10
 368 780 368 780 368 600 c 0,11,12
 368 599 368 599 369 598 c 2,13,-1
 370 597 l 1,14,15
 370 407 370 407 440.5 273.5 c 128,-1,16
 511 140 511 140 640 93 c 1,17,-1
 681 79 l 1,18,-1
 630 -48 l 1,19,-1
 594 -31 l 1,20,21
 392 39 392 39 283.5 199.5 c 128,-1,22
 175 360 175 360 175 567 c 2,23,-1
 175 575 l 1,24,25
 181 863 181 863 361 1022 c 128,-1,26
 541 1181 541 1181 796 1181 c 0,27,28
 1047 1181 1047 1181 1226 1017.5 c 128,-1,29
 1405 854 1405 854 1405 605 c 1,30,31
 1399 347 1399 347 1279 187 c 1,32,33
 1242 142 1242 142 1227 125 c 1,34,-1
 1808 125 l 1,35,-1
 1808 1188 l 1,36,-1
 1996 1188 l 1,37,-1
 1996 5 l 1,38,-1
 1051 5 l 1,39,-1
 993 110 l 1,40,41
 1012 122 1012 122 1029 134 c 1,0,1
EndSplineSet
EndChar

StartChar: z1
Encoding: 3382 3382 59
Width: 2087
GlyphClass: 2
Flags: W
LayerCount: 2
Fore
SplineSet
1643 106 m 0,0,1
 1749 106 1749 106 1810 192 c 0,2,3
 1870 278 1870 278 1870 389 c 0,4,5
 1870 501 1870 501 1810 577 c 1,6,7
 1751 656 1751 656 1642 656 c 0,8,9
 1537 656 1537 656 1479 578 c 1,10,11
 1421 503 1421 503 1421 382 c 0,12,13
 1421 264 1421 264 1479 185 c 0,14,15
 1536 106 1536 106 1643 106 c 0,0,1
653 125 m 1,16,17
 786 127 786 127 838 247 c 1,18,19
 883 356 883 356 883 582 c 0,20,21
 883 701 883 701 921.5 808 c 128,-1,22
 960 915 960 915 1028 1002 c 1,23,24
 1114 1091 1114 1091 1224 1139 c 128,-1,25
 1334 1187 1334 1187 1464 1184 c 1,26,27
 1598 1182 1598 1182 1706 1139 c 128,-1,28
 1814 1096 1814 1096 1899 1012 c 0,29,30
 2069 846 2069 846 2069 566 c 2,31,-1
 2069 536 l 2,32,33
 2069 429 2069 429 2045.5 339.5 c 128,-1,34
 2022 250 2022 250 1974 176 c 0,35,36
 1857 -8 1857 -8 1631 -8 c 0,37,38
 1452 -8 1452 -8 1351 106 c 1,39,40
 1301 164 1301 164 1276 233 c 128,-1,41
 1251 302 1251 302 1251 386 c 0,42,43
 1251 554 1251 554 1358 662 c 0,44,45
 1465 769 1465 769 1621 769 c 0,46,47
 1731 769 1731 769 1800 728 c 1,48,49
 1873 686 1873 686 1907 643 c 1,50,51
 1894 815 1894 815 1777 937 c 0,52,53
 1662 1057 1662 1057 1459 1068 c 1,54,55
 1257 1065 1257 1065 1161 924 c 1,56,57
 1115 854 1115 854 1092 763.5 c 128,-1,58
 1069 673 1069 673 1069 561 c 0,59,60
 1069 454 1069 454 1045.5 359.5 c 128,-1,61
 1022 265 1022 265 980 190 c 1,62,63
 925 100 925 100 842 53 c 0,64,65
 767 10 767 10 655 5 c 1,66,67
 440 5 440 5 307 176 c 1,68,69
 181 328 181 328 175 552 c 1,70,-1
 176 552 l 1,71,-1
 176 553 l 1,72,73
 175 989 175 989 538 1179 c 1,74,-1
 575 1197 l 1,75,-1
 645 1070 l 1,76,-1
 604 1055 l 1,77,78
 372 942 372 942 356 567 c 1,79,80
 347 409 347 409 435 257 c 1,81,82
 508 127 508 127 653 125 c 1,16,17
EndSplineSet
EndChar

StartChar: sh
Encoding: 3383 3383 60
Width: 2474
GlyphClass: 2
Flags: W
LayerCount: 2
Fore
SplineSet
2268 126 m 1,0,-1
 2268 776 l 1,1,2
 2206 703 2206 703 2139.5 645.5 c 128,-1,3
 2073 588 2073 588 2004.5 546.5 c 128,-1,4
 1936 505 1936 505 1867.5 479 c 128,-1,5
 1799 453 1799 453 1732 441 c 1,6,-1
 1720 126 l 1,7,-1
 2268 126 l 1,0,-1
1558 900 m 1,8,9
 1558 1063 1558 1063 1449 1063 c 0,10,11
 1273 1063 1273 1063 1273 868 c 0,12,13
 1273 755 1273 755 1345 658 c 1,14,15
 1420 571 1420 571 1546 555 c 1,16,-1
 1558 900 l 1,8,9
881 125 m 1,17,-1
 1532 126 l 1,18,-1
 1545 436 l 1,19,20
 1368 452 1368 452 1228 554 c 1,21,-1
 1228 553 l 1,22,23
 1085 676 1085 676 1085 868 c 0,24,25
 1085 1013 1085 1013 1187 1099 c 1,26,27
 1291 1183 1291 1183 1449 1183 c 0,28,29
 1509 1183 1509 1183 1560 1163.5 c 128,-1,30
 1611 1144 1611 1144 1656 1106 c 0,31,32
 1699 1069 1699 1069 1721 1017 c 128,-1,33
 1743 965 1743 965 1744 904 c 1,34,-1
 1732 560 l 1,35,36
 1846 577 1846 577 2009 700 c 0,37,38
 2041 723 2041 723 2081.5 763 c 128,-1,39
 2122 803 2122 803 2174 860 c 0,40,41
 2222 914 2222 914 2246 968 c 128,-1,42
 2270 1022 2270 1022 2268 1070 c 1,43,-1
 2268 1185 l 1,44,-1
 2456 1185 l 1,45,-1
 2456 6 l 1,46,-1
 658 6 l 1,47,-1
 629 97 l 1,48,-1
 652 111 l 1,49,50
 803 189 803 189 799 386 c 1,51,52
 799 505 799 505 743.5 576 c 128,-1,53
 688 647 688 647 583 652 c 1,54,55
 473 652 473 652 416 580 c 128,-1,56
 359 508 359 508 359 393 c 0,57,58
 359 177 359 177 502 111 c 1,59,-1
 535 99 l 1,60,-1
 491 -3 l 1,61,-1
 442 13 l 1,62,63
 315 57 315 57 245 144 c 128,-1,64
 175 231 175 231 175 399 c 0,65,66
 175 565 175 565 291.5 665.5 c 128,-1,67
 408 766 408 766 584 766 c 256,68,69
 760 766 760 766 873 665.5 c 128,-1,70
 986 565 986 565 986 400 c 0,71,72
 986 237 986 237 881 125 c 1,17,-1
EndSplineSet
EndChar

StartChar: s1
Encoding: 3384 3384 61
Width: 2650
GlyphClass: 2
Flags: W
LayerCount: 2
Fore
SplineSet
2447 575 m 1,0,1
 2442 914 2442 914 2200 1050 c 1,2,-1
 2159 1065 l 1,3,-1
 2229 1192 l 1,4,-1
 2266 1174 l 1,5,6
 2630 971 2630 971 2634 575 c 1,7,8
 2634 349 2634 349 2476 171 c 1,9,10
 2315 -8 2315 -8 2088 -8 c 0,11,12
 1900 -8 1900 -8 1770 102 c 1,13,14
 1642 214 1642 214 1642 442 c 1,15,-1
 1672 746 l 1,16,17
 1672 824 1672 824 1642 896 c 0,18,19
 1579 1043 1579 1043 1412 1063 c 1,20,21
 1324 1063 1324 1063 1240 990 c 1,22,-1
 1240 991 l 1,23,24
 1129 897 1129 897 1129 743 c 2,25,-1
 1129 5 l 1,26,-1
 942 5 l 1,27,-1
 942 743 l 2,28,29
 942 1065 942 1065 693 1065 c 1,30,31
 562 1072 562 1072 452 931 c 1,32,33
 409 861 409 861 384 765.5 c 128,-1,34
 359 670 359 670 360 582 c 1,35,36
 383 230 383 230 607 122 c 1,37,-1
 648 106 l 1,38,-1
 578 -21 l 1,39,-1
 541 -3 l 1,40,41
 195 178 195 178 177 582 c 1,42,43
 176 841 176 841 329 1009 c 1,44,45
 482 1185 482 1185 693 1185 c 0,46,47
 940 1185 940 1185 1041 1003 c 1,48,-1
 1046 1003 l 1,49,50
 1189 1183 1189 1183 1412 1183 c 0,51,52
 1588 1183 1588 1183 1723 1054 c 256,53,54
 1858 925 1858 925 1858 750 c 1,55,-1
 1828 448 l 1,56,57
 1828 112 1828 112 2088 112 c 0,58,59
 2244 112 2244 112 2350 263 c 0,60,61
 2399 332 2399 332 2422.5 410 c 128,-1,62
 2446 488 2446 488 2446 575 c 1,63,-1
 2447 575 l 1,0,1
EndSplineSet
EndChar

StartChar: h1
Encoding: 3385 3385 62
Width: 2573
GlyphClass: 2
Flags: W
LayerCount: 2
Fore
SplineSet
1511 124 m 1,0,1
 1475 161 1475 161 1444 202 c 0,2,3
 1325 360 1325 360 1325 567 c 2,4,-1
 1325 575 l 1,5,6
 1331 863 1331 863 1511 1022 c 128,-1,7
 1691 1181 1691 1181 1946 1181 c 0,8,9
 2197 1181 2197 1181 2376 1017.5 c 128,-1,10
 2555 854 2555 854 2555 605 c 1,11,12
 2549 367 2549 367 2426.5 201.5 c 128,-1,13
 2304 36 2304 36 2099 -28 c 1,14,-1
 2055 99 l 1,15,-1
 2095 113 l 1,16,17
 2219 159 2219 159 2290 288.5 c 128,-1,18
 2361 418 2361 418 2361 588 c 1,19,-1
 2360 594 l 1,20,21
 2360 792 2360 792 2252 929 c 128,-1,22
 2144 1066 2144 1066 1934 1067 c 0,23,24
 1733 1067 1733 1067 1619 914 c 0,25,26
 1518 780 1518 780 1518 600 c 0,27,28
 1518 599 1518 599 1519 598 c 2,29,-1
 1520 597 l 1,30,31
 1520 407 1520 407 1591 273 c 0,32,33
 1642 176 1642 176 1726 124 c 1,34,-1
 1673 3 l 1,35,-1
 658 4 l 1,36,-1
 629 93 l 1,37,-1
 652 107 l 1,38,39
 803 185 803 185 799 382 c 1,40,41
 799 501 799 501 743.5 572 c 128,-1,42
 688 643 688 643 583 648 c 1,43,44
 473 648 473 648 416 576 c 128,-1,45
 359 504 359 504 359 389 c 0,46,47
 359 173 359 173 502 107 c 1,48,-1
 535 95 l 1,49,-1
 489 -12 l 1,50,-1
 440 4 l 1,51,52
 315 53 315 53 245 140 c 128,-1,53
 175 227 175 227 175 395 c 0,54,55
 175 561 175 561 291.5 662 c 128,-1,56
 408 763 408 763 584 763 c 256,57,58
 760 763 760 763 873 662 c 128,-1,59
 986 561 986 561 986 396 c 0,60,61
 986 235 986 235 883 124 c 1,62,-1
 1511 124 l 1,0,1
EndSplineSet
EndChar

StartChar: uni0D3A
Encoding: 3386 3386 63
Width: 1450
GlyphClass: 2
Flags: W
LayerCount: 2
Fore
SplineSet
790 4 m 1,0,-1
 175 3 l 1,1,-1
 175 1196 l 1,2,-1
 362 1196 l 1,3,-1
 362 134 l 1,4,-1
 1432 134 l 1,5,-1
 1431 4 l 1,6,-1
 939 4 l 1,7,-1
 939 -595 l 1,8,-1
 790 -595 l 1,9,-1
 790 4 l 1,0,-1
EndSplineSet
EndChar

StartChar: uni0D3D
Encoding: 3389 3389 66
Width: 752
GlyphClass: 2
Flags: W
LayerCount: 2
Fore
SplineSet
632 1268 m 1,0,-1
 469 -63 l 1,1,2
 453 -185 453 -185 397 -243 c 0,3,4
 344 -297 344 -297 271 -297 c 2,5,-1
 259 -297 l 1,6,7
 171 -287 171 -287 123 -244 c 1,8,-1
 162 -115 l 1,9,10
 184 -136 184 -136 221 -147 c 1,11,12
 236 -150 236 -150 244 -150 c 0,13,14
 301 -150 301 -150 315 -44 c 2,15,-1
 473 1243 l 1,16,-1
 473 1243 l 1,17,18
 491 1386 491 1386 548 1444 c 0,19,20
 601 1498 601 1498 675 1498 c 2,21,-1
 687 1498 l 1,22,23
 760 1485 760 1485 824 1451 c 1,24,-1
 784 1318 l 1,25,26
 760 1339 760 1339 724 1348 c 1,27,-1
 718 1348 l 2,28,29
 654 1348 654 1348 632 1268 c 1,0,-1
EndSplineSet
EndChar

StartChar: uni0D3E
Encoding: 3390 3390 67
Width: 1161
GlyphClass: 2
Flags: W
LayerCount: 2
Fore
SplineSet
357 299 m 1,1,2
 381 250 381 250 417 217 c 1,3,4
 461 174 461 174 518 150.5 c 128,-1,5
 575 127 575 127 643 127 c 0,6,7
 940 127 940 127 940 596 c 0,8,9
 940 1064 940 1064 647 1064 c 0,10,11
 490 1064 490 1064 406 947 c 1,12,13
 366 888 366 888 342 815 c 0,14,15
 336 798 336 798 331 780 c 1,16,-1
 181 845 l 1,17,18
 192 878 192 878 206 911 c 0,19,20
 245 1002 245 1002 312 1060 c 0,21,22
 454 1185 454 1185 647 1185 c 0,23,24
 892 1185 892 1185 1029 994 c 1,25,26
 1147 836 1147 836 1147 598 c 0,27,28
 1147 362 1147 362 1037 207 c 1,29,30
 900 7 900 7 643 7 c 0,31,32
 433 7 433 7 292 132 c 1,33,34
 209 204 209 204 175 293 c 1,35,-1
 331 367 l 1,36,0
 340 331 340 331 357 299 c 1,1,2
EndSplineSet
EndChar

StartChar: uni0D3F
Encoding: 3391 3391 68
Width: 441
GlyphClass: 2
Flags: W
LayerCount: 2
Fore
SplineSet
225 1388 m 1,0,1
 216 1568 216 1568 51 1568 c 0,2,3
 -36 1568 -36 1568 -70 1515 c 1,4,-1
 -69 1515 l 1,5,6
 -86 1491 -86 1491 -95.5 1455.5 c 128,-1,7
 -105 1420 -105 1420 -106 1386 c 1,8,9
 -108 1375 -108 1375 -106.5 1355 c 128,-1,10
 -105 1335 -105 1335 -100 1308 c 1,11,12
 -145 1308 -145 1308 -186.5 1308.5 c 128,-1,13
 -228 1309 -228 1309 -273 1309 c 1,14,15
 -273 1410 -273 1410 -248.5 1486 c 128,-1,16
 -224 1562 -224 1562 -179 1612 c 1,17,18
 -133 1660 -133 1660 -74 1686.5 c 128,-1,19
 -15 1713 -15 1713 51 1713 c 1,20,21
 121 1716 121 1716 195 1695 c 1,22,23
 269 1671 269 1671 318 1610 c 1,24,25
 402 1502 402 1502 402 1329 c 2,26,-1
 402 1317 l 1,27,-1
 403 8 l 1,28,-1
 225 9 l 1,29,-1
 225 1388 l 1,0,1
EndSplineSet
EndChar

StartChar: uni0D40
Encoding: 3392 3392 69
Width: 441
GlyphClass: 2
Flags: W
LayerCount: 2
Fore
SplineSet
56 1468 m 0,0,1
 55 1531 55 1531 36 1561 c 1,2,3
 6 1569 6 1569 -21 1569 c 0,4,5
 -70 1569 -70 1569 -105 1542 c 1,6,7
 -149 1504 -149 1504 -149 1453 c 0,8,9
 -148 1401 -148 1401 -128 1375 c 0,10,11
 -108 1350 -108 1350 -57 1349 c 0,12,13
 -29 1349 -29 1349 -11 1356 c 1,14,15
 8 1365 8 1365 25 1384 c 0,16,17
 56 1419 56 1419 56 1468 c 0,0,1
226 6 m 1,18,-1
 226 1375 l 2,19,20
 226 1480 226 1480 184 1502 c 1,21,22
 190 1364 190 1364 121 1278 c 1,23,24
 84 1240 84 1240 41 1224.5 c 128,-1,25
 -2 1209 -2 1209 -55 1206 c 1,26,27
 -152 1206 -152 1206 -219 1271 c 1,28,29
 -284 1338 -284 1338 -284 1462 c 256,30,31
 -284 1586 -284 1586 -185 1650 c 1,32,33
 -85 1718 -85 1718 45 1718 c 0,34,35
 356 1718 356 1718 398 1406 c 0,36,37
 404 1368 404 1368 404 1108 c 2,38,-1
 404 8 l 1,39,-1
 226 6 l 1,18,-1
EndSplineSet
EndChar

StartChar: u1
Encoding: 3393 3393 70
Width: 839
GlyphClass: 2
Flags: W
LayerCount: 2
Fore
SplineSet
290 1125 m 0,1,2
 368 1194 368 1194 466 1194 c 0,3,4
 541 1194 541 1194 595.5 1170.5 c 128,-1,5
 650 1147 650 1147 686 1105.5 c 128,-1,6
 722 1064 722 1064 738.5 1004 c 128,-1,7
 755 944 755 944 753 871 c 0,8,9
 747 717 747 717 714 570 c 128,-1,10
 681 423 681 423 621 273 c 1,11,12
 851 185 851 185 851 -78 c 0,13,14
 851 -256 851 -256 757 -341 c 0,15,16
 707 -385 707 -385 642.5 -404.5 c 128,-1,17
 578 -424 578 -424 504 -424 c 0,18,19
 351 -424 351 -424 255 -335 c 1,20,21
 164 -249 164 -249 164 -78 c 0,22,23
 164 90 164 90 247 182 c 1,24,25
 290 228 290 228 343 252 c 128,-1,26
 396 276 396 276 473 281 c 1,27,28
 511 393 511 393 537.5 506 c 128,-1,29
 564 619 564 619 585 748 c 1,30,31
 593 809 593 809 593 853 c 0,32,33
 593 942 593 942 562 998.5 c 128,-1,34
 531 1055 531 1055 466 1057 c 0,35,36
 409 1059 409 1059 380 1027 c 1,37,38
 362 1009 362 1009 318 961 c 1,39,-1
 255 1086 l 1,40,0
 270 1108 270 1108 290 1125 c 0,1,2
699 -74 m 0,41,42
 699 -28 699 -28 685.5 15.5 c 128,-1,43
 672 59 672 59 647.5 88 c 128,-1,44
 623 117 623 117 584.5 133.5 c 128,-1,45
 546 150 546 150 507 150 c 256,46,47
 468 150 468 150 430 133 c 128,-1,48
 392 116 392 116 368.5 86.5 c 128,-1,49
 345 57 345 57 331 13.5 c 128,-1,50
 317 -30 317 -30 317 -74 c 0,51,52
 317 -115 317 -115 329 -151 c 128,-1,53
 341 -187 341 -187 368 -220 c 0,54,55
 423 -286 423 -286 510 -286 c 0,56,57
 548 -286 548 -286 585.5 -269 c 128,-1,58
 623 -252 623 -252 647.5 -223.5 c 128,-1,59
 672 -195 672 -195 685.5 -156.5 c 128,-1,60
 699 -118 699 -118 699 -74 c 0,41,42
EndSplineSet
EndChar

StartChar: u2
Encoding: 3394 3394 71
Width: 808
GlyphClass: 2
Flags: W
LayerCount: 2
Fore
SplineSet
528 49 m 0,0,1
 528 163 528 163 425 158 c 0,2,3
 321 153 321 153 321 23 c 0,4,5
 321 -91 321 -91 430 -90 c 0,6,7
 475 -90 475 -90 501.5 -53.5 c 128,-1,8
 528 -17 528 -17 528 49 c 0,0,1
764 174.5 m 128,-1,10
 839 92 839 92 839 -58 c 1,11,12
 834 -234 834 -234 710 -339 c 1,13,14
 662 -381 662 -381 600.5 -401 c 128,-1,15
 539 -421 539 -421 464 -422 c 0,16,17
 388 -423 388 -423 327.5 -415 c 128,-1,18
 267 -407 267 -407 223 -389 c 0,19,20
 179 -372 179 -372 136 -348.5 c 128,-1,21
 93 -325 93 -325 45 -293 c 1,22,23
 65 -264 65 -264 84.5 -235 c 128,-1,24
 104 -206 104 -206 124 -176 c 1,25,26
 184 -232 184 -232 260.5 -264.5 c 128,-1,27
 337 -297 337 -297 431 -305 c 1,28,29
 559 -300 559 -300 627.5 -238.5 c 128,-1,30
 696 -177 696 -177 703 -58 c 1,31,32
 701 5 701 5 684 53 c 128,-1,33
 667 101 667 101 633 136 c 1,34,-1
 629 135 l 1,35,36
 661 64 661 64 655 7 c 1,37,38
 655 -25 655 -25 643.5 -57.5 c 128,-1,39
 632 -90 632 -90 613 -117 c 1,40,41
 576 -158 576 -158 528.5 -180.5 c 128,-1,42
 481 -203 481 -203 430 -203 c 0,43,44
 324 -203 324 -203 246 -147 c 0,45,46
 209 -120 209 -120 190 -73 c 128,-1,47
 171 -26 171 -26 169 32 c 1,48,49
 176 139 176 139 238.5 210.5 c 128,-1,50
 301 282 301 282 434 287 c 1,51,52
 471 396 471 396 498 502 c 1,53,54
 524 619 524 619 545 748 c 1,55,56
 553 809 553 809 553 853 c 0,57,58
 553 942 553 942 522 998.5 c 128,-1,59
 491 1055 491 1055 426 1057 c 0,60,61
 369 1059 369 1059 340 1027 c 1,62,63
 322 1009 322 1009 278 961 c 1,64,-1
 215 1086 l 1,65,66
 230 1108 230 1108 250 1125 c 0,67,68
 328 1194 328 1194 426 1194 c 0,69,70
 501 1194 501 1194 555.5 1170.5 c 128,-1,71
 610 1147 610 1147 646 1105.5 c 128,-1,72
 682 1064 682 1064 698.5 1004 c 128,-1,73
 715 944 715 944 713 871 c 0,74,75
 707 717 707 717 674 575 c 1,76,77
 641 423 641 423 581 274 c 1,78,9
 689 257 689 257 764 174.5 c 128,-1,10
EndSplineSet
EndChar

StartChar: r1
Encoding: 3395 3395 72
Width: 412
GlyphClass: 2
Flags: W
LayerCount: 2
Fore
SplineSet
0 -346 m 0,0,1
 105 -346 105 -346 105 -244 c 256,2,3
 105 -142 105 -142 0 -142 c 0,4,5
 -106 -142 -106 -142 -106 -244 c 256,6,7
 -106 -346 -106 -346 0 -346 c 0,0,1
-65 -457 m 1,8,9
 -230 -402 -230 -402 -241 -258 c 1,10,11
 -237 -151 -237 -151 -180.5 -94.5 c 128,-1,12
 -124 -38 -124 -38 -10 -35 c 1,13,14
 80 -35 80 -35 134 -66.5 c 128,-1,15
 188 -98 188 -98 214 -150 c 1,16,17
 231 -188 231 -188 231 -237 c 0,18,19
 231 -271 231 -271 212 -314 c 1,20,21
 323 -273 323 -273 323 -148 c 2,22,-1
 323 -139 l 2,23,24
 323 -39 323 -39 280 137 c 1,25,26
 227 318 227 318 203.5 486 c 128,-1,27
 180 654 180 654 178 859 c 1,28,29
 185 1080 185 1080 258 1213 c 1,30,-1
 407 1146 l 1,31,32
 397 1134 397 1134 373 1070 c 128,-1,33
 349 1006 349 1006 341 909 c 1,34,35
 336 680 336 680 364 511 c 0,36,37
 386 375 386 375 414 263 c 128,-1,38
 442 151 442 151 453 98 c 128,-1,39
 464 45 464 45 475 -12.5 c 128,-1,40
 486 -70 486 -70 490 -140 c 1,41,42
 487 -319 487 -319 347 -408 c 1,43,44
 279 -455 279 -455 158 -470 c 1,45,46
 117 -474 117 -474 79 -474 c 0,47,48
 -2 -474 -2 -474 -65 -457 c 1,8,9
EndSplineSet
EndChar

StartChar: uni0D44
Encoding: 3396 3396 73
Width: 486
GlyphClass: 2
Flags: W
LayerCount: 2
Fore
SplineSet
-189 -371 m 1,0,1
 -159 -376 -159 -376 -121 -376 c 1,2,-1
 -121 -312 l 1,3,4
 -129 -274 -129 -274 -168 -272 c 1,5,6
 -218 -273 -218 -273 -220 -320 c 1,7,8
 -216 -352 -216 -352 -189 -371 c 1,0,1
-58 -374 m 1,9,10
 -8 -371 -8 -371 28 -362 c 1,11,12
 43 -347 43 -347 44 -324 c 1,13,14
 42 -274 42 -274 -9 -272 c 1,15,16
 -51 -272 -51 -272 -58 -309 c 1,17,-1
 -58 -374 l 1,9,10
108 -267 m 1,18,19
 128 -248 128 -248 128 -220 c 2,20,-1
 128 -216 l 2,21,22
 128 -140 128 -140 -96 -136 c 1,23,24
 -295 -137 -295 -137 -303 -226 c 1,25,-1
 -303 -234 l 2,26,27
 -303 -259 -303 -259 -287 -276 c 1,28,-1
 -287 -270 l 1,29,30
 -277 -185 -277 -185 -170 -185 c 0,31,32
 -110 -185 -110 -185 -86 -226 c 1,33,34
 -60 -189 -60 -189 -8 -185 c 1,35,36
 71 -185 71 -185 96 -230 c 1,37,38
 107 -246 107 -246 108 -267 c 1,18,19
-270 -487 m 1,39,40
 -435 -432 -435 -432 -446 -258 c 1,41,42
 -442 -151 -442 -151 -366.5 -94.5 c 128,-1,43
 -291 -38 -291 -38 -101 -32 c 0,44,45
 -75 -31 -75 -31 -52 -31 c 0,46,47
 58 -31 58 -31 128 -61 c 0,48,49
 213 -98 213 -98 239 -150 c 1,50,51
 256 -188 256 -188 256 -237 c 0,52,53
 256 -271 256 -271 237 -314 c 1,54,55
 348 -273 348 -273 348 -148 c 2,56,-1
 348 -139 l 2,57,58
 348 -39 348 -39 305 137 c 1,59,60
 252 318 252 318 228.5 486 c 128,-1,61
 205 654 205 654 203 859 c 1,62,63
 210 1080 210 1080 277 1203 c 1,64,-1
 432 1146 l 1,65,66
 422 1134 422 1134 398 1070 c 128,-1,67
 374 1006 374 1006 366 909 c 1,68,69
 364 854 364 854 364 802 c 0,70,71
 364 641 364 641 385 513 c 0,72,73
 407 377 407 377 437 264 c 128,-1,74
 467 151 467 151 478 98 c 128,-1,75
 489 45 489 45 500 -12.5 c 128,-1,76
 511 -70 511 -70 515 -140 c 1,77,78
 512 -319 512 -319 372 -408 c 1,79,80
 172 -504 172 -504 -62 -504 c 2,81,-1
 -76 -504 l 2,82,83
 -153 -504 -153 -504 -270 -487 c 1,39,40
EndSplineSet
EndChar

StartChar: uni0D46
Encoding: 3398 3398 75
Width: 1541
GlyphClass: 2
Flags: W
LayerCount: 2
Fore
SplineSet
382.5 311 m 128,-1,1
 395 256 395 256 417 214 c 0,2,3
 445 160 445 160 487.5 130.5 c 128,-1,4
 530 101 530 101 588 98 c 1,5,6
 705 99 705 99 758 191 c 0,7,8
 810 281 810 281 810 413 c 1,9,10
 809 442 809 442 795 496 c 128,-1,11
 781 550 781 550 755 593 c 1,12,13
 700 677 700 677 590 682 c 1,14,-1
 585 682 l 1,15,16
 370 683 370 683 364 452 c 1,17,0
 370 366 370 366 382.5 311 c 128,-1,1
1345 560 m 1,18,19
 1352 769 1352 769 1223.5 910.5 c 128,-1,20
 1095 1052 1095 1052 868 1059 c 1,21,22
 648 1059 648 1059 536 984 c 1,23,24
 418 902 418 902 380 751 c 1,25,26
 482 800 482 800 631 800 c 0,27,28
 781 800 781 800 890 679 c 0,29,30
 998 558 998 558 998 419 c 0,31,32
 998 329 998 329 969.5 251.5 c 128,-1,33
 941 174 941 174 890 114 c 1,34,35
 835 52 835 52 759 20 c 128,-1,36
 683 -12 683 -12 588 -12 c 0,37,38
 394 -12 394 -12 282 140 c 1,39,40
 175 301 175 301 175 560 c 1,41,42
 197 917 197 917 428 1073 c 1,43,44
 594 1183 594 1183 882 1183 c 1,45,46
 1177 1174 1177 1174 1353 1001 c 0,47,48
 1511 845 1511 845 1523 593 c 1,49,50
 1515 162 1515 162 1190 -20 c 1,51,-1
 1106 101 l 1,52,53
 1329 228 1329 228 1345 560 c 1,18,19
EndSplineSet
EndChar

StartChar: uni0D47
Encoding: 3399 3399 76
Width: 1267
GlyphClass: 2
Flags: W
LayerCount: 2
Fore
SplineSet
1249 306 m 0,0,1
 1249 149 1249 149 1094 69 c 1,2,3
 969 3 969 3 803 3 c 0,4,5
 666 3 666 3 549.5 46.5 c 128,-1,6
 433 90 433 90 348 167 c 1,7,8
 268 246 268 246 221.5 356.5 c 128,-1,9
 175 467 175 467 175 595 c 0,10,11
 175 725 175 725 220 834 c 128,-1,12
 265 943 265 943 346 1022 c 1,13,14
 433 1098 433 1098 550 1141.5 c 128,-1,15
 667 1185 667 1185 803 1185 c 0,16,17
 883 1185 883 1185 957 1167.5 c 128,-1,18
 1031 1150 1031 1150 1094 1118 c 1,19,20
 1170 1077 1170 1077 1209.5 1017.5 c 128,-1,21
 1249 958 1249 958 1249 880 c 0,22,23
 1249 768 1249 768 1167 697 c 1,24,25
 1090 624 1090 624 984 624 c 0,26,27
 880 624 880 624 796 695 c 1,28,-1
 796 694 l 1,29,30
 715 764 715 764 715 869 c 0,31,32
 715 1019 715 1019 794 1065 c 1,33,34
 592 1065 592 1065 474 924 c 1,35,36
 358 783 358 783 358 595 c 0,37,38
 358 502 358 502 386.5 419.5 c 128,-1,39
 415 337 415 337 474 266 c 0,40,41
 593 123 593 123 785 123 c 1,42,43
 778 130 778 130 768 147 c 128,-1,44
 758 164 758 164 744 187 c 1,45,46
 730 213 730 213 722.5 242.5 c 128,-1,47
 715 272 715 272 715 304 c 0,48,49
 715 419 715 419 796 493 c 1,50,-1
 796 492 l 1,51,52
 881 562 881 562 984 562 c 256,53,54
 1087 562 1087 562 1167 491 c 0,55,56
 1249 419 1249 419 1249 306 c 0,0,1
996 1020 m 0,57,58
 958 1020 958 1020 929.5 1005 c 128,-1,59
 901 990 901 990 884 964 c 0,60,61
 868 939 868 939 861 915.5 c 128,-1,62
 854 892 854 892 854 872 c 0,63,64
 854 858 854 858 856.5 845.5 c 128,-1,65
 859 833 859 833 863 824 c 1,66,67
 866 814 866 814 873.5 804 c 128,-1,68
 881 794 881 794 889 786 c 0,69,70
 927 746 927 746 983 746 c 0,71,72
 1040 746 1040 746 1075 789 c 256,73,74
 1110 832 1110 832 1110 879 c 256,75,76
 1110 926 1110 926 1071 973 c 256,77,78
 1032 1020 1032 1020 996 1020 c 0,57,58
996 169 m 0,79,80
 1038 169 1038 169 1073 215 c 1,81,82
 1110 261 1110 261 1110 307 c 0,83,84
 1110 350 1110 350 1075 398 c 0,85,86
 1041 444 1041 444 984 444 c 0,87,88
 925 444 925 444 889 403 c 1,89,90
 855 362 855 362 855 315 c 0,91,92
 855 267 855 267 885 224 c 1,93,-1
 884 224 l 1,94,95
 918 169 918 169 996 169 c 0,79,80
EndSplineSet
EndChar

StartChar: uni0D48
Encoding: 3400 3400 77
Width: 3058
GlyphClass: 2
Flags: W
LayerCount: 2
Fore
SplineSet
382.5 311 m 128,-1,1
 395 256 395 256 417 214 c 0,2,3
 445 160 445 160 487.5 130.5 c 128,-1,4
 530 101 530 101 588 98 c 1,5,6
 705 99 705 99 758 191 c 0,7,8
 810 281 810 281 810 413 c 1,9,10
 809 442 809 442 795 496 c 128,-1,11
 781 550 781 550 755 593 c 1,12,13
 700 677 700 677 590 682 c 1,14,-1
 585 682 l 1,15,16
 370 683 370 683 364 452 c 1,17,0
 370 366 370 366 382.5 311 c 128,-1,1
1345 560 m 1,18,19
 1352 769 1352 769 1223.5 910.5 c 128,-1,20
 1095 1052 1095 1052 868 1059 c 1,21,22
 648 1059 648 1059 536 984 c 1,23,24
 418 902 418 902 380 751 c 1,25,26
 482 800 482 800 631 800 c 0,27,28
 781 800 781 800 890 679 c 0,29,30
 998 558 998 558 998 419 c 0,31,32
 998 329 998 329 969.5 251.5 c 128,-1,33
 941 174 941 174 890 114 c 1,34,35
 835 52 835 52 759 20 c 128,-1,36
 683 -12 683 -12 588 -12 c 0,37,38
 394 -12 394 -12 282 140 c 1,39,40
 175 301 175 301 175 560 c 1,41,42
 197 917 197 917 428 1073 c 1,43,44
 594 1183 594 1183 882 1183 c 1,45,46
 1177 1174 1177 1174 1353 1001 c 0,47,48
 1511 845 1511 845 1523 593 c 1,49,50
 1515 162 1515 162 1190 -20 c 1,51,-1
 1106 101 l 1,52,53
 1329 228 1329 228 1345 560 c 1,18,19
1899.5 311 m 128,-1,55
 1912 256 1912 256 1934 214 c 0,56,57
 1962 160 1962 160 2004.5 130.5 c 128,-1,58
 2047 101 2047 101 2105 98 c 1,59,60
 2222 99 2222 99 2275 191 c 0,61,62
 2327 281 2327 281 2327 413 c 1,63,64
 2326 442 2326 442 2312 496 c 128,-1,65
 2298 550 2298 550 2272 593 c 1,66,67
 2217 677 2217 677 2107 682 c 1,68,-1
 2102 682 l 1,69,70
 1887 683 1887 683 1881 452 c 1,71,54
 1887 366 1887 366 1899.5 311 c 128,-1,55
2862 560 m 1,72,73
 2869 769 2869 769 2740.5 910.5 c 128,-1,74
 2612 1052 2612 1052 2385 1059 c 1,75,76
 2165 1059 2165 1059 2053 984 c 1,77,78
 1935 902 1935 902 1897 751 c 1,79,80
 1999 800 1999 800 2148 800 c 0,81,82
 2298 800 2298 800 2407 679 c 0,83,84
 2515 558 2515 558 2515 419 c 0,85,86
 2515 329 2515 329 2486.5 251.5 c 128,-1,87
 2458 174 2458 174 2407 114 c 1,88,89
 2352 52 2352 52 2276 20 c 128,-1,90
 2200 -12 2200 -12 2105 -12 c 0,91,92
 1911 -12 1911 -12 1799 140 c 1,93,94
 1692 301 1692 301 1692 560 c 1,95,96
 1714 917 1714 917 1945 1073 c 1,97,98
 2111 1183 2111 1183 2399 1183 c 1,99,100
 2694 1174 2694 1174 2870 1001 c 0,101,102
 3028 845 3028 845 3040 593 c 1,103,104
 3032 162 3032 162 2707 -20 c 1,105,-1
 2623 101 l 1,106,107
 2846 228 2846 228 2862 560 c 1,72,73
EndSplineSet
EndChar

StartChar: uni0D49
Encoding: 3401 3401 78
Width: 1314
GlyphClass: 2
Flags: W
LayerCount: 2
Fore
SplineSet
950 658 m 0,0,1
 911 623 911 623 873 593 c 0,2,3
 779 517 779 517 779 436 c 2,4,-1
 779 343 l 1,5,-1
 653 343 l 1,6,-1
 653 444 l 2,7,8
 653 544 653 544 743 624 c 1,9,-1
 743 623 l 1,10,11
 764 639 764 639 784 656 c 128,-1,12
 804 673 804 673 823 691 c 1,13,-1
 823 690 l 1,14,15
 915 766 915 766 915 851 c 0,16,17
 915 935 915 935 864 978 c 0,18,19
 811 1023 811 1023 713 1023 c 0,20,21
 614 1023 614 1023 571.5 967 c 128,-1,22
 529 911 529 911 529 804 c 1,23,-1
 412 804 l 1,24,25
 413 963 413 963 493 1046 c 128,-1,26
 573 1129 573 1129 723 1129 c 0,27,28
 872 1129 872 1129 957 1055 c 1,29,30
 1043 982 1043 982 1043 863 c 256,31,32
 1043 744 1043 744 950 658 c 0,0,1
779 262 m 1,33,-1
 779 118 l 1,34,-1
 653 118 l 1,35,-1
 653 262 l 1,36,-1
 779 262 l 1,33,-1
1296 1498 m 1,37,-1
 1296 -224 l 1,38,-1
 175 -224 l 1,39,-1
 175 1498 l 1,40,-1
 1296 1498 l 1,37,-1
304 1361 m 1,41,-1
 304 -97 l 1,42,-1
 1173 -97 l 1,43,-1
 1173 1361 l 1,44,-1
 304 1361 l 1,41,-1
EndSplineSet
EndChar

StartChar: uni0D4A
Encoding: 3402 3402 79
Width: 3254
GlyphClass: 2
Flags: W
LayerCount: 2
Fore
SplineSet
382.5 311 m 128,-1,1
 395 256 395 256 417 214 c 0,2,3
 445 160 445 160 487.5 130.5 c 128,-1,4
 530 101 530 101 588 98 c 1,5,6
 705 99 705 99 758 191 c 0,7,8
 810 281 810 281 810 413 c 1,9,10
 809 442 809 442 795 496 c 128,-1,11
 781 550 781 550 755 593 c 1,12,13
 700 677 700 677 590 682 c 1,14,-1
 585 682 l 1,15,16
 370 683 370 683 364 452 c 1,17,0
 370 366 370 366 382.5 311 c 128,-1,1
1345 560 m 1,18,19
 1352 769 1352 769 1223.5 910.5 c 128,-1,20
 1095 1052 1095 1052 868 1059 c 1,21,22
 648 1059 648 1059 536 984 c 1,23,24
 418 902 418 902 380 751 c 1,25,26
 482 800 482 800 631 800 c 0,27,28
 781 800 781 800 890 679 c 0,29,30
 998 558 998 558 998 419 c 0,31,32
 998 329 998 329 969.5 251.5 c 128,-1,33
 941 174 941 174 890 114 c 1,34,35
 835 52 835 52 759 20 c 128,-1,36
 683 -12 683 -12 588 -12 c 0,37,38
 394 -12 394 -12 282 140 c 1,39,40
 175 301 175 301 175 560 c 1,41,42
 197 917 197 917 428 1073 c 1,43,44
 594 1183 594 1183 882 1183 c 1,45,46
 1177 1174 1177 1174 1353 1001 c 0,47,48
 1511 845 1511 845 1523 593 c 1,49,50
 1515 162 1515 162 1190 -20 c 1,51,-1
 1106 101 l 1,52,53
 1329 228 1329 228 1345 560 c 1,18,19
2446 299 m 1,55,56
 2470 250 2470 250 2506 217 c 1,57,58
 2550 174 2550 174 2607 150.5 c 128,-1,59
 2664 127 2664 127 2732 127 c 0,60,61
 3029 127 3029 127 3029 596 c 0,62,63
 3029 1064 3029 1064 2736 1064 c 0,64,65
 2579 1064 2579 1064 2495 947 c 1,66,67
 2455 888 2455 888 2431 815 c 0,68,69
 2425 798 2425 798 2420 780 c 1,70,-1
 2270 845 l 1,71,72
 2281 878 2281 878 2295 911 c 0,73,74
 2334 1002 2334 1002 2401 1060 c 0,75,76
 2543 1185 2543 1185 2736 1185 c 0,77,78
 2981 1185 2981 1185 3118 994 c 1,79,80
 3236 836 3236 836 3236 598 c 0,81,82
 3236 362 3236 362 3126 207 c 1,83,84
 2989 7 2989 7 2732 7 c 0,85,86
 2522 7 2522 7 2381 132 c 1,87,88
 2298 204 2298 204 2264 293 c 1,89,-1
 2420 367 l 1,90,54
 2429 331 2429 331 2446 299 c 1,55,56
EndSplineSet
EndChar

StartChar: uni0D4B
Encoding: 3403 3403 80
Width: 3027
GlyphClass: 2
Flags: W
LayerCount: 2
Fore
SplineSet
1249 306 m 0,0,1
 1249 149 1249 149 1094 69 c 1,2,3
 969 3 969 3 803 3 c 0,4,5
 666 3 666 3 549.5 46.5 c 128,-1,6
 433 90 433 90 348 167 c 1,7,8
 268 246 268 246 221.5 356.5 c 128,-1,9
 175 467 175 467 175 595 c 0,10,11
 175 725 175 725 220 834 c 128,-1,12
 265 943 265 943 346 1022 c 1,13,14
 433 1098 433 1098 550 1141.5 c 128,-1,15
 667 1185 667 1185 803 1185 c 0,16,17
 883 1185 883 1185 957 1167.5 c 128,-1,18
 1031 1150 1031 1150 1094 1118 c 1,19,20
 1170 1077 1170 1077 1209.5 1017.5 c 128,-1,21
 1249 958 1249 958 1249 880 c 0,22,23
 1249 768 1249 768 1167 697 c 1,24,25
 1090 624 1090 624 984 624 c 0,26,27
 880 624 880 624 796 695 c 1,28,-1
 796 694 l 1,29,30
 715 764 715 764 715 869 c 0,31,32
 715 1019 715 1019 794 1065 c 1,33,34
 592 1065 592 1065 474 924 c 1,35,36
 358 783 358 783 358 595 c 0,37,38
 358 502 358 502 386.5 419.5 c 128,-1,39
 415 337 415 337 474 266 c 0,40,41
 593 123 593 123 785 123 c 1,42,43
 778 130 778 130 768 147 c 128,-1,44
 758 164 758 164 744 187 c 1,45,46
 730 213 730 213 722.5 242.5 c 128,-1,47
 715 272 715 272 715 304 c 0,48,49
 715 419 715 419 796 493 c 1,50,-1
 796 492 l 1,51,52
 881 562 881 562 984 562 c 256,53,54
 1087 562 1087 562 1167 491 c 0,55,56
 1249 419 1249 419 1249 306 c 0,0,1
996 1020 m 0,57,58
 958 1020 958 1020 929.5 1005 c 128,-1,59
 901 990 901 990 884 964 c 0,60,61
 868 939 868 939 861 915.5 c 128,-1,62
 854 892 854 892 854 872 c 0,63,64
 854 858 854 858 856.5 845.5 c 128,-1,65
 859 833 859 833 863 824 c 1,66,67
 866 814 866 814 873.5 804 c 128,-1,68
 881 794 881 794 889 786 c 0,69,70
 927 746 927 746 983 746 c 0,71,72
 1040 746 1040 746 1075 789 c 256,73,74
 1110 832 1110 832 1110 879 c 256,75,76
 1110 926 1110 926 1071 973 c 256,77,78
 1032 1020 1032 1020 996 1020 c 0,57,58
996 169 m 0,79,80
 1038 169 1038 169 1073 215 c 1,81,82
 1110 261 1110 261 1110 307 c 0,83,84
 1110 350 1110 350 1075 398 c 0,85,86
 1041 444 1041 444 984 444 c 0,87,88
 925 444 925 444 889 403 c 1,89,90
 855 362 855 362 855 315 c 0,91,92
 855 267 855 267 885 224 c 1,93,-1
 884 224 l 1,94,95
 918 169 918 169 996 169 c 0,79,80
2219 299 m 1,97,98
 2243 250 2243 250 2279 217 c 1,99,100
 2323 174 2323 174 2380 150.5 c 128,-1,101
 2437 127 2437 127 2505 127 c 0,102,103
 2802 127 2802 127 2802 596 c 0,104,105
 2802 1064 2802 1064 2509 1064 c 0,106,107
 2352 1064 2352 1064 2268 947 c 1,108,109
 2228 888 2228 888 2204 815 c 0,110,111
 2198 798 2198 798 2193 780 c 1,112,-1
 2043 845 l 1,113,114
 2054 878 2054 878 2068 911 c 0,115,116
 2107 1002 2107 1002 2174 1060 c 0,117,118
 2316 1185 2316 1185 2509 1185 c 0,119,120
 2754 1185 2754 1185 2891 994 c 1,121,122
 3009 836 3009 836 3009 598 c 0,123,124
 3009 362 3009 362 2899 207 c 1,125,126
 2762 7 2762 7 2505 7 c 0,127,128
 2295 7 2295 7 2154 132 c 1,129,130
 2071 204 2071 204 2037 293 c 1,131,-1
 2193 367 l 1,132,96
 2202 331 2202 331 2219 299 c 1,97,98
EndSplineSet
EndChar

StartChar: uni0D4C
Encoding: 3404 3404 81
Width: 3872
GlyphClass: 2
Flags: W
LayerCount: 2
Fore
SplineSet
382.5 311 m 128,-1,1
 395 256 395 256 417 214 c 0,2,3
 445 160 445 160 487.5 130.5 c 128,-1,4
 530 101 530 101 588 98 c 1,5,6
 705 99 705 99 758 191 c 0,7,8
 810 281 810 281 810 413 c 1,9,10
 809 442 809 442 795 496 c 128,-1,11
 781 550 781 550 755 593 c 1,12,13
 700 677 700 677 590 682 c 1,14,-1
 585 682 l 1,15,16
 370 683 370 683 364 452 c 1,17,0
 370 366 370 366 382.5 311 c 128,-1,1
1345 560 m 1,18,19
 1352 769 1352 769 1223.5 910.5 c 128,-1,20
 1095 1052 1095 1052 868 1059 c 1,21,22
 648 1059 648 1059 536 984 c 1,23,24
 418 902 418 902 380 751 c 1,25,26
 482 800 482 800 631 800 c 0,27,28
 781 800 781 800 890 679 c 0,29,30
 998 558 998 558 998 419 c 0,31,32
 998 329 998 329 969.5 251.5 c 128,-1,33
 941 174 941 174 890 114 c 1,34,35
 835 52 835 52 759 20 c 128,-1,36
 683 -12 683 -12 588 -12 c 0,37,38
 394 -12 394 -12 282 140 c 1,39,40
 175 301 175 301 175 560 c 1,41,42
 197 917 197 917 428 1073 c 1,43,44
 594 1183 594 1183 882 1183 c 1,45,46
 1177 1174 1177 1174 1353 1001 c 0,47,48
 1511 845 1511 845 1523 593 c 1,49,50
 1515 162 1515 162 1190 -20 c 1,51,-1
 1106 101 l 1,52,53
 1329 228 1329 228 1345 560 c 1,18,19
3065 1033 m 1,54,55
 3193 1187 3193 1187 3368 1187 c 0,56,57
 3478 1187 3478 1187 3570.5 1143 c 128,-1,58
 3663 1099 3663 1099 3732 1019 c 1,59,60
 3791 943 3791 943 3822.5 848.5 c 128,-1,61
 3854 754 3854 754 3854 647 c 0,62,63
 3854 359 3854 359 3680 182 c 0,64,65
 3508 6 3508 6 3263 6 c 0,66,67
 3184 6 3184 6 3108.5 23.5 c 128,-1,68
 3033 41 3033 41 2964 73 c 1,69,70
 2935 89 2935 89 2905 113 c 128,-1,71
 2875 137 2875 137 2848 168 c 1,72,73
 2820 198 2820 198 2799 228.5 c 128,-1,74
 2778 259 2778 259 2762 291 c 1,75,76
 2794 308 2794 308 2825.5 324.5 c 128,-1,77
 2857 341 2857 341 2890 358 c 1,78,79
 2949 241 2949 241 3042.5 183 c 128,-1,80
 3136 125 3136 125 3263 125 c 0,81,82
 3357 125 3357 125 3432 162.5 c 128,-1,83
 3507 200 3507 200 3566 275 c 1,84,85
 3679 424 3679 424 3679 647 c 0,86,87
 3679 825 3679 825 3610 943 c 1,88,89
 3527 1066 3527 1066 3368 1066 c 0,90,91
 3263 1066 3263 1066 3206 1000 c 1,92,93
 3150 933 3150 933 3150 866 c 2,94,-1
 3150 559 l 1,95,-1
 2976 559 l 1,96,-1
 2976 854 l 2,97,98
 2976 921 2976 921 2912 995 c 1,99,100
 2877 1030 2877 1030 2838.5 1048 c 128,-1,101
 2800 1066 2800 1066 2754 1066 c 0,102,103
 2539 1066 2539 1066 2539 769 c 0,104,105
 2539 709 2539 709 2548 648 c 128,-1,106
 2557 587 2557 587 2577 526 c 1,107,108
 2545 514 2545 514 2514.5 502 c 128,-1,109
 2484 490 2484 490 2452 477 c 1,110,111
 2364 617 2364 617 2364 769 c 0,112,113
 2364 961 2364 961 2470 1073 c 0,114,115
 2524 1129 2524 1129 2596 1158 c 128,-1,116
 2668 1187 2668 1187 2759 1187 c 0,117,118
 2940 1187 2940 1187 3062 1033 c 1,119,-1
 3065 1033 l 1,54,55
EndSplineSet
EndChar

StartChar: xx
Encoding: 3405 3405 82
Width: 2
GlyphClass: 2
Flags: W
LayerCount: 2
Fore
SplineSet
-393 1642 m 1,0,-1
 -393 1684 l 1,1,-1
 -190 1663 l 1,2,-1
 -195 1637 l 1,3,-1
 -195 1600 l 2,4,5
 -195 1494 -195 1494 -154.5 1439.5 c 128,-1,6
 -114 1385 -114 1385 13 1385 c 1,7,8
 190 1390 190 1390 190 1600 c 2,9,-1
 190 1637 l 1,10,-1
 185 1661 l 1,11,-1
 388 1684 l 1,12,-1
 388 1642 l 1,13,14
 386 1586 386 1586 376.5 1537.5 c 128,-1,15
 367 1489 367 1489 341 1439.5 c 128,-1,16
 315 1390 315 1390 272 1353.5 c 128,-1,17
 229 1317 229 1317 159.5 1294.5 c 128,-1,18
 90 1272 90 1272 -2 1270 c 1,19,20
 -61 1271 -61 1271 -112.5 1280.5 c 128,-1,21
 -164 1290 -164 1290 -216.5 1315.5 c 128,-1,22
 -269 1341 -269 1341 -306 1381.5 c 128,-1,23
 -343 1422 -343 1422 -367 1487.5 c 128,-1,24
 -391 1553 -391 1553 -393 1642 c 1,0,-1
EndSplineSet
EndChar

StartChar: uni0D57
Encoding: 3415 3415 92
Width: 1706
GlyphClass: 2
Flags: W
LayerCount: 2
Fore
SplineSet
909 1033 m 1,0,1
 1037 1187 1037 1187 1212 1187 c 0,2,3
 1322 1187 1322 1187 1414.5 1143 c 128,-1,4
 1507 1099 1507 1099 1576 1019 c 1,5,6
 1635 943 1635 943 1666.5 848.5 c 128,-1,7
 1698 754 1698 754 1698 647 c 0,8,9
 1698 359 1698 359 1524 182 c 0,10,11
 1352 6 1352 6 1107 6 c 0,12,13
 1028 6 1028 6 952.5 23.5 c 128,-1,14
 877 41 877 41 808 73 c 1,15,16
 779 89 779 89 749 113 c 128,-1,17
 719 137 719 137 692 168 c 1,18,19
 664 198 664 198 643 228.5 c 128,-1,20
 622 259 622 259 606 291 c 1,21,22
 638 308 638 308 669.5 324.5 c 128,-1,23
 701 341 701 341 734 358 c 1,24,25
 793 241 793 241 886.5 183 c 128,-1,26
 980 125 980 125 1107 125 c 0,27,28
 1201 125 1201 125 1276 162.5 c 128,-1,29
 1351 200 1351 200 1410 275 c 1,30,31
 1523 424 1523 424 1523 647 c 0,32,33
 1523 825 1523 825 1454 943 c 1,34,35
 1371 1066 1371 1066 1212 1066 c 0,36,37
 1107 1066 1107 1066 1050 1000 c 1,38,39
 994 933 994 933 994 866 c 2,40,-1
 994 559 l 1,41,-1
 820 559 l 1,42,-1
 820 854 l 2,43,44
 820 921 820 921 756 995 c 1,45,46
 721 1030 721 1030 682.5 1048 c 128,-1,47
 644 1066 644 1066 598 1066 c 0,48,49
 383 1066 383 1066 383 769 c 0,50,51
 383 709 383 709 392 648 c 128,-1,52
 401 587 401 587 421 526 c 1,53,54
 389 514 389 514 358.5 502 c 128,-1,55
 328 490 328 490 296 477 c 1,56,57
 208 617 208 617 208 769 c 0,58,59
 208 961 208 961 314 1073 c 0,60,61
 368 1129 368 1129 440 1158 c 128,-1,62
 512 1187 512 1187 603 1187 c 0,63,64
 784 1187 784 1187 906 1033 c 1,65,-1
 909 1033 l 1,0,1
EndSplineSet
EndChar

StartChar: uni0d60
Encoding: 3424 3424 101
Width: 1514
GlyphClass: 2
Flags: W
LayerCount: 2
Fore
SplineSet
1156 -148 m 1,0,1
 1315 -73 1315 -73 1313 38 c 1,2,3
 1313 148 1313 148 1167 221 c 1,4,5
 1108 248 1108 248 1040.5 262 c 128,-1,6
 973 276 973 276 884 277 c 1,7,-1
 777 277 l 2,8,9
 702 277 702 277 632.5 261.5 c 128,-1,10
 563 246 563 246 508 221 c 1,11,12
 437 185 437 185 399.5 140 c 128,-1,13
 362 95 362 95 361 40 c 1,14,15
 361 -71 361 -71 522 -148 c 1,16,17
 589 -178 589 -178 665 -194.5 c 128,-1,18
 741 -211 741 -211 850 -212 c 1,19,20
 937 -211 937 -211 1012.5 -194.5 c 128,-1,21
 1088 -178 1088 -178 1156 -148 c 1,0,1
612 909 m 0,22,23
 612 1058 612 1058 506 1058 c 0,24,25
 481 1058 481 1058 461.5 1046.5 c 128,-1,26
 442 1035 442 1035 428 1015 c 128,-1,27
 414 995 414 995 407 968.5 c 128,-1,28
 400 942 400 942 400 911 c 0,29,30
 400 851 400 851 428 810 c 0,31,32
 457 767 457 767 507 767 c 0,33,34
 558 767 558 767 585 808 c 0,35,36
 612 848 612 848 612 909 c 0,22,23
1062 909 m 0,37,38
 1062 847 1062 847 1090 807 c 128,-1,39
 1118 767 1118 767 1168 767 c 0,40,41
 1216 767 1216 767 1246 810 c 0,42,43
 1260 830 1260 830 1267.5 856.5 c 128,-1,44
 1275 883 1275 883 1275 911 c 0,45,46
 1275 971 1275 971 1249 1013 c 0,47,48
 1222 1058 1222 1058 1171 1058 c 0,49,50
 1062 1058 1062 1058 1062 909 c 0,37,38
1268 331 m 1,51,52
 1353 293 1353 293 1423 215 c 0,53,54
 1496 135 1496 135 1496 35 c 0,55,56
 1496 -168 1496 -168 1254 -270 c 1,57,58
 1089 -338 1089 -338 851 -338 c 0,59,60
 715 -338 715 -338 611 -319 c 128,-1,61
 507 -300 507 -300 424 -267 c 1,62,63
 305 -214 305 -214 242.5 -138.5 c 128,-1,64
 180 -63 180 -63 180 35 c 0,65,66
 180 86 180 86 198 130.5 c 128,-1,67
 216 175 216 175 252 215 c 0,68,69
 327 297 327 297 410 334 c 1,70,71
 364 358 364 358 322.5 397.5 c 128,-1,72
 281 437 281 437 246 494 c 0,73,74
 175 607 175 607 175 772 c 0,75,76
 175 938 175 938 266 1055 c 256,77,78
 357 1172 357 1172 509 1172 c 0,79,80
 568 1172 568 1172 615 1154.5 c 128,-1,81
 662 1137 662 1137 699 1104 c 0,82,83
 773 1036 773 1036 773 917 c 0,84,85
 773 799 773 799 698 726 c 0,86,87
 625 654 625 654 523 654 c 0,88,89
 423 654 423 654 366 708 c 0,90,91
 362 711 362 711 356.5 718 c 128,-1,92
 351 725 351 725 343 733 c 1,93,94
 387 387 387 387 848 390 c 1,95,96
 1291 390 1291 390 1333 743 c 1,97,98
 1323 730 1323 730 1316 722 c 128,-1,99
 1309 714 1309 714 1304 708 c 0,100,101
 1256 659 1256 659 1203 657 c 0,102,103
 1176 656 1176 656 1163.5 656 c 128,-1,104
 1151 656 1151 656 1149 656 c 0,105,106
 1050 656 1050 656 976 727 c 0,107,108
 902 797 902 797 902 916 c 0,109,110
 902 1033 902 1033 977 1104 c 1,111,112
 1052 1172 1052 1172 1166 1172 c 0,113,114
 1318 1172 1318 1172 1410 1055 c 1,115,116
 1500 938 1500 938 1500 772 c 0,117,118
 1500 608 1500 608 1429 494 c 1,119,120
 1360 381 1360 381 1268 336 c 1,121,-1
 1268 331 l 1,51,52
1135 32 m 0,122,123
 1135 -31 1135 -31 1099 -79.5 c 128,-1,124
 1063 -128 1063 -128 977 -165 c 1,125,-1
 936 -97 l 1,126,127
 997 -70 997 -70 1017.5 -41 c 128,-1,128
 1038 -12 1038 -12 1038 37 c 0,129,130
 1038 85 1038 85 1014.5 112 c 128,-1,131
 991 139 991 139 950 139 c 0,132,133
 930 139 930 139 914 131 c 128,-1,134
 898 123 898 123 889 110 c 1,135,136
 887 98 887 98 885.5 87 c 128,-1,137
 884 76 884 76 884 69 c 2,138,-1
 884 -22 l 1,139,-1
 889 -155 l 1,140,-1
 789 -160 l 1,141,142
 789 -125 789 -125 790.5 -112 c 128,-1,143
 792 -99 792 -99 792 -84 c 0,144,145
 792 -70 792 -70 793 -53 c 128,-1,146
 794 -36 794 -36 794 -22 c 2,147,-1
 794 64 l 2,148,149
 794 85 794 85 790.5 100 c 128,-1,150
 787 115 787 115 779 123.5 c 128,-1,151
 771 132 771 132 760 135.5 c 128,-1,152
 749 139 749 139 731 139 c 0,153,154
 710 139 710 139 692 131.5 c 128,-1,155
 674 124 674 124 664 111 c 128,-1,156
 654 98 654 98 647 78.5 c 128,-1,157
 640 59 640 59 640 37 c 0,158,159
 640 16 640 16 644.5 -3 c 128,-1,160
 649 -22 649 -22 658 -37.5 c 128,-1,161
 667 -53 667 -53 682 -65 c 128,-1,162
 697 -77 697 -77 749 -94 c 1,163,-1
 701 -165 l 1,164,165
 649 -143 649 -143 621 -123.5 c 128,-1,166
 593 -104 593 -104 576 -78.5 c 128,-1,167
 559 -53 559 -53 551 -25 c 128,-1,168
 543 3 543 3 543 32 c 0,169,170
 543 74 543 74 557.5 108 c 128,-1,171
 572 142 572 142 597 163.5 c 128,-1,172
 622 185 622 185 655 197.5 c 128,-1,173
 688 210 688 210 728 210 c 0,174,175
 803 210 803 210 839 173 c 1,176,177
 855 190 855 190 885.5 200 c 128,-1,178
 916 210 916 210 952 210 c 0,179,180
 1076 210 1076 210 1117 115 c 1,181,182
 1135 81 1135 81 1135 32 c 0,122,123
EndSplineSet
EndChar

StartChar: l2
Encoding: 3425 3425 102
Width: 2743
GlyphClass: 2
Flags: W
LayerCount: 2
Fore
SplineSet
2082 797 m 1,0,1
 1893 764 1893 764 1802 633 c 1,2,3
 1732 527 1732 527 1727 376 c 1,4,5
 1729 311 1729 311 1741 259 c 128,-1,6
 1753 207 1753 207 1776 172 c 0,7,8
 1824 101 1824 101 1899 101 c 0,9,10
 2017 101 2017 101 2073 221 c 1,11,12
 2129 354 2129 354 2129 531 c 0,13,14
 2129 616 2129 616 2118.5 682 c 128,-1,15
 2108 748 2108 748 2086 796 c 1,16,-1
 2082 797 l 1,0,1
601 654 m 0,17,18
 493 654 493 654 434 575 c 1,19,20
 374 499 374 499 374 387 c 0,21,22
 374 313 374 313 388.5 264 c 128,-1,23
 403 215 403 215 433 171 c 0,24,25
 492 83 492 83 600 83 c 0,26,27
 707 83 707 83 764 164 c 1,28,29
 822 242 822 242 822 361 c 0,30,31
 822 501 822 501 764 576 c 1,32,33
 706 654 706 654 601 654 c 0,17,18
1271 965 m 1,34,35
 1442 1176 1442 1176 1723 1176 c 0,36,37
 2007 1176 2007 1176 2200 928 c 1,38,39
 2438 920 2438 920 2584 751 c 1,40,41
 2729 580 2729 580 2729 342 c 0,42,43
 2729 188 2729 188 2682 65.5 c 128,-1,44
 2635 -57 2635 -57 2541 -151 c 0,45,46
 2353 -337 2353 -337 2089 -337 c 0,47,48
 2001 -337 2001 -337 1908 -310.5 c 128,-1,49
 1815 -284 1815 -284 1712 -228 c 1,50,-1
 1792 -123 l 1,51,52
 1883 -175 1883 -175 1963 -198.5 c 128,-1,53
 2043 -222 2043 -222 2109 -217 c 1,54,55
 2206 -208 2206 -208 2284.5 -172 c 128,-1,56
 2363 -136 2363 -136 2421 -60 c 1,57,58
 2542 95 2542 95 2542 342 c 0,59,60
 2542 508 2542 508 2471 635 c 0,61,62
 2399 764 2399 764 2279 788 c 1,63,64
 2299 739 2299 739 2309 676.5 c 128,-1,65
 2319 614 2319 614 2319 535 c 0,66,67
 2319 300 2319 300 2214 153 c 0,68,69
 2089 -20 2089 -20 1899 -20 c 0,70,71
 1763 -20 1763 -20 1654 78 c 0,72,73
 1544 177 1544 177 1544 365 c 0,74,75
 1544 564 1544 564 1692 726 c 1,76,77
 1832 876 1832 876 2012 902 c 1,78,79
 1876 1056 1876 1056 1720 1056 c 0,80,81
 1563 1056 1563 1056 1460 972 c 0,82,83
 1356 888 1356 888 1356 797 c 2,84,-1
 1356 -6 l 1,85,-1
 1171 -6 l 1,86,-1
 1171 797 l 2,87,88
 1171 889 1171 889 1063 974 c 0,89,90
 1011 1015 1011 1015 940.5 1039 c 128,-1,91
 870 1063 870 1063 784 1066 c 1,92,93
 682 1062 682 1062 601 1028 c 128,-1,94
 520 994 520 994 464 933 c 0,95,96
 409 874 409 874 376.5 801 c 128,-1,97
 344 728 344 728 337 641 c 1,98,99
 369 682 369 682 443 726 c 0,100,101
 513 767 513 767 624 767 c 0,102,103
 777 767 777 767 885 660 c 1,104,105
 992 552 992 552 992 384 c 0,106,107
 992 199 992 199 892 83 c 1,108,109
 791 -29 791 -29 613 -29 c 0,110,111
 389 -29 389 -29 270 155 c 0,112,113
 175 301 175 301 175 533 c 2,114,-1
 175 564 l 2,115,116
 175 845 175 845 345 1011 c 0,117,118
 514 1177 514 1177 780 1182 c 1,119,120
 1127 1178 1127 1178 1266 965 c 1,121,-1
 1271 965 l 1,34,35
EndSplineSet
EndChar

StartChar: uni0D62
Encoding: 3426 3426 103
Width: 0
GlyphClass: 2
Flags: W
LayerCount: 2
Fore
SplineSet
-207 -621 m 1,0,1
 -180 -550 -180 -550 -180 -460 c 0,2,3
 -180 -411 -180 -411 -187 -372.5 c 128,-1,4
 -194 -334 -194 -334 -209 -306 c 1,5,6
 -268 -319 -268 -319 -303.5 -338 c 128,-1,7
 -339 -357 -339 -357 -367 -388 c 1,8,9
 -425 -458 -425 -458 -425 -547 c 0,10,11
 -425 -701 -425 -701 -313 -701 c 0,12,13
 -244 -701 -244 -701 -207 -621 c 1,0,1
-1244 -302 m 1,14,15
 -1272 -357 -1272 -357 -1272 -434 c 0,16,17
 -1272 -546 -1272 -546 -1246 -617 c 1,18,19
 -1211 -697 -1211 -697 -1141 -697 c 0,20,21
 -1029 -697 -1029 -697 -1029 -542 c 0,22,23
 -1029 -455 -1029 -455 -1087 -384 c 1,24,25
 -1144 -320 -1144 -320 -1232 -305 c 1,26,-1
 -1244 -302 l 1,14,15
-990 -307 m 1,27,28
 -888 -401 -888 -401 -888 -542 c 0,29,30
 -888 -650 -888 -650 -964 -727 c 0,31,32
 -1040 -805 -1040 -805 -1141 -805 c 0,33,34
 -1170 -805 -1170 -805 -1197 -797.5 c 128,-1,35
 -1224 -790 -1224 -790 -1248 -776.5 c 128,-1,36
 -1272 -763 -1272 -763 -1292 -745.5 c 128,-1,37
 -1312 -728 -1312 -728 -1327 -709 c 0,38,39
 -1414 -593 -1414 -593 -1414 -468 c 0,40,41
 -1414 -385 -1414 -385 -1387 -309 c 128,-1,42
 -1360 -233 -1360 -233 -1311 -170 c 1,43,44
 -1249 -101 -1249 -101 -1170 -61.5 c 128,-1,45
 -1091 -22 -1091 -22 -993 -22 c 0,46,47
 -894 -22 -894 -22 -838 -50 c 1,48,49
 -778 -78 -778 -78 -727 -137 c 1,50,51
 -701 -111 -701 -111 -674 -90.5 c 128,-1,52
 -647 -70 -647 -70 -617 -55.5 c 128,-1,53
 -587 -41 -587 -41 -551.5 -33 c 128,-1,54
 -516 -25 -516 -25 -472 -25 c 0,55,56
 -362 -26 -362 -26 -283.5 -65 c 128,-1,57
 -205 -104 -205 -104 -143 -174 c 1,58,59
 -93 -238 -93 -238 -66 -313.5 c 128,-1,60
 -39 -389 -39 -389 -39 -472 c 0,61,62
 -39 -593 -39 -593 -114 -698 c 1,63,64
 -155 -752 -155 -752 -202.5 -780.5 c 128,-1,65
 -250 -809 -250 -809 -304 -809 c 0,66,67
 -413 -809 -413 -809 -489 -731 c 1,68,69
 -566 -654 -566 -654 -566 -547 c 0,70,71
 -566 -479 -566 -479 -538 -418.5 c 128,-1,72
 -510 -358 -510 -358 -462 -311 c 1,73,74
 -425 -279 -425 -279 -377.5 -252.5 c 128,-1,75
 -330 -226 -330 -226 -279 -212 c 1,76,77
 -361 -135 -361 -135 -465 -129 c 1,78,79
 -557 -135 -557 -135 -606 -180 c 1,80,81
 -657 -225 -657 -225 -655 -292 c 1,82,-1
 -655 -796 l 1,83,-1
 -796 -796 l 1,84,-1
 -796 -271 l 2,85,86
 -796 -222 -796 -222 -847 -175 c 0,87,88
 -899 -128 -899 -128 -988 -126 c 1,89,90
 -1089 -127 -1089 -127 -1175 -208 c 1,91,92
 -1067 -238 -1067 -238 -990 -307 c 1,27,28
EndSplineSet
EndChar

StartChar: uni0D63
Encoding: 3427 3427 104
Width: 0
GlyphClass: 2
Flags: W
LayerCount: 2
Fore
SplineSet
-410 -261 m 1,0,1
 -486 -276 -486 -276 -532 -345 c 0,2,3
 -575 -411 -575 -411 -575 -478 c 0,4,5
 -575 -544 -575 -544 -559 -566 c 0,6,7
 -551 -578 -551 -578 -544.5 -586.5 c 128,-1,8
 -538 -595 -538 -595 -533 -599 c 1,9,10
 -515 -608 -515 -608 -496 -608 c 0,11,12
 -440 -608 -440 -608 -411 -552 c 1,13,14
 -397 -517 -397 -517 -389.5 -479.5 c 128,-1,15
 -382 -442 -382 -442 -382 -399 c 0,16,17
 -382 -315 -382 -315 -406 -262 c 1,18,-1
 -410 -261 l 1,0,1
-1321 -276 m 1,19,20
 -1342 -325 -1342 -325 -1342 -402 c 256,21,22
 -1342 -479 -1342 -479 -1320 -537 c 1,23,24
 -1287 -602 -1287 -602 -1232 -602 c 0,25,26
 -1139 -602 -1139 -602 -1139 -474 c 0,27,28
 -1139 -400 -1139 -400 -1187 -344 c 0,29,30
 -1233 -291 -1233 -291 -1317 -275 c 1,31,-1
 -1321 -276 l 1,19,20
-564 -741 m 1,32,33
 -517 -763 -517 -763 -471.5 -776 c 128,-1,34
 -426 -789 -426 -789 -391 -789 c 0,35,36
 -281 -789 -281 -789 -217 -708 c 1,37,38
 -156 -627 -156 -627 -156 -500 c 0,39,40
 -156 -458 -156 -458 -165 -422 c 128,-1,41
 -174 -386 -174 -386 -189.5 -357.5 c 128,-1,42
 -205 -329 -205 -329 -225.5 -308.5 c 128,-1,43
 -246 -288 -246 -288 -269 -274 c 1,44,45
 -261 -300 -261 -300 -257 -330 c 128,-1,46
 -253 -360 -253 -360 -253 -394 c 0,47,48
 -253 -527 -253 -527 -319 -619 c 0,49,50
 -387 -714 -387 -714 -496 -714 c 0,51,52
 -574 -714 -574 -714 -639 -656 c 0,53,54
 -705 -597 -705 -597 -705 -483 c 0,55,56
 -705 -370 -705 -370 -626 -284 c 0,57,58
 -549 -200 -549 -200 -474 -173 c 1,59,60
 -524 -126 -524 -126 -600 -126 c 0,61,62
 -677 -126 -677 -126 -729 -169 c 0,63,64
 -782 -212 -782 -212 -782 -250 c 2,65,-1
 -782 -712 l 1,66,-1
 -910 -712 l 1,67,-1
 -910 -250 l 2,68,69
 -910 -211 -910 -211 -964 -167 c 0,70,71
 -1019 -123 -1019 -123 -1111 -123 c 1,72,73
 -1204 -131 -1204 -131 -1252 -182 c 1,74,75
 -1171 -201 -1171 -201 -1100 -268 c 1,76,77
 -1009 -351 -1009 -351 -1009 -461 c 0,78,79
 -1009 -570 -1009 -570 -1077 -639 c 0,80,81
 -1146 -709 -1146 -709 -1232 -709 c 0,82,83
 -1283 -709 -1283 -709 -1327 -684.5 c 128,-1,84
 -1371 -660 -1371 -660 -1404 -613 c 1,85,86
 -1437 -568 -1437 -568 -1454.5 -517.5 c 128,-1,87
 -1472 -467 -1472 -467 -1472 -402 c 0,88,89
 -1472 -332 -1472 -332 -1448 -268.5 c 128,-1,90
 -1424 -205 -1424 -205 -1381 -149 c 1,91,92
 -1273 -27 -1273 -27 -1112 -20 c 1,93,94
 -1021 -21 -1021 -21 -954.5 -48 c 128,-1,95
 -888 -75 -888 -75 -843 -132 c 1,96,97
 -741 -23 -741 -23 -589 -23 c 256,98,99
 -437 -23 -437 -23 -334 -150 c 1,100,101
 -191 -167 -191 -167 -109 -263 c 1,102,103
 -27 -361 -27 -361 -27 -500 c 0,104,105
 -27 -680 -27 -680 -134 -787 c 1,106,107
 -243 -894 -243 -894 -391 -894 c 0,108,109
 -441 -894 -441 -894 -492 -878.5 c 128,-1,110
 -543 -863 -543 -863 -597 -835 c 0,111,112
 -604 -831 -604 -831 -610.5 -828 c 128,-1,113
 -617 -825 -617 -825 -624 -821 c 1,114,-1
 -564 -741 l 1,32,33
EndSplineSet
EndChar

StartChar: uni0D64
Encoding: 3428 3428 105
Width: 393
GlyphClass: 2
Flags: W
LayerCount: 2
Fore
SplineSet
326 -40 m 1,0,-1
 175 -40 l 1,1,-1
 175 1247 l 1,2,-1
 326 1247 l 1,3,-1
 326 -40 l 1,0,-1
EndSplineSet
EndChar

StartChar: uni0D65
Encoding: 3429 3429 106
Width: 855
GlyphClass: 2
Flags: W
LayerCount: 2
Fore
SplineSet
781 -40 m 1,0,-1
 633 -40 l 1,1,-1
 633 1247 l 1,2,-1
 781 1247 l 1,3,-1
 781 -40 l 1,0,-1
317 -40 m 1,4,-1
 168 -40 l 1,5,-1
 168 1247 l 1,6,-1
 317 1247 l 1,7,-1
 317 -40 l 1,4,-1
EndSplineSet
EndChar

StartChar: uni0D66
Encoding: 3430 3430 107
Width: 1403
GlyphClass: 2
Flags: W
LayerCount: 2
Fore
SplineSet
1094 907 m 1,0,1
 991 1050 991 1050 793 1063 c 1,2,3
 581 1063 581 1063 463 907 c 1,4,5
 361 757 361 757 361 573 c 0,6,7
 361 388 361 388 475 247 c 1,8,9
 598 104 598 104 784 104 c 0,10,11
 965 104 965 104 1087 245 c 1,12,13
 1200 382 1200 382 1200 571 c 0,14,15
 1200 762 1200 762 1094 907 c 1,0,1
1211 1008 m 1,16,17
 1299 918 1299 918 1342 809.5 c 128,-1,18
 1385 701 1385 701 1385 568 c 0,19,20
 1385 438 1385 438 1339 332 c 128,-1,21
 1293 226 1293 226 1199 144 c 0,22,23
 1107 63 1107 63 1002.5 22 c 128,-1,24
 898 -19 898 -19 781 -19 c 0,25,26
 545 -19 545 -19 361 147 c 0,27,28
 175 314 175 314 175 569 c 0,29,30
 175 825 175 825 358 1005 c 256,31,32
 541 1185 541 1185 793 1185 c 1,33,34
 1015 1182 1015 1182 1211 1008 c 1,16,17
EndSplineSet
EndChar

StartChar: uni0D67
Encoding: 3431 3431 108
Width: 1989
GlyphClass: 2
Flags: W
LayerCount: 2
Fore
SplineSet
1783 117 m 1,0,-1
 1783 713 l 2,1,2
 1783 781 1783 781 1757 846 c 1,3,4
 1664 1059 1664 1059 1447 1059 c 0,5,6
 1196 1059 1196 1059 1105 834 c 0,7,8
 1080 772 1080 772 1080 697 c 2,9,-1
 1080 117 l 1,10,-1
 1783 117 l 1,0,-1
893 703 m 2,11,12
 893 763 893 763 897 782.5 c 128,-1,13
 901 802 901 802 908 828 c 1,14,15
 936 913 936 913 988 981 c 128,-1,16
 1040 1049 1040 1049 1112 1091 c 1,17,18
 1188 1132 1188 1132 1268.5 1155 c 128,-1,19
 1349 1178 1349 1178 1429 1178 c 0,20,21
 1592 1178 1592 1178 1732 1107 c 1,22,-1
 1731 1107 l 1,23,24
 1801 1065 1801 1065 1853 1010.5 c 128,-1,25
 1905 956 1905 956 1937 888 c 1,26,27
 1971 811 1971 811 1971 717 c 2,28,-1
 1971 -3 l 1,29,-1
 590 -5 l 2,30,31
 349 -5 349 -5 349 -117 c 1,32,33
 353 -252 353 -252 548 -252 c 2,34,-1
 1431 -252 l 1,35,-1
 1431 -399 l 1,36,-1
 586 -399 l 2,37,38
 177 -399 177 -399 175 -138 c 1,39,40
 177 72 177 72 372 114 c 0,41,42
 458 132 458 132 636 132 c 1,43,-1
 801 133 l 1,44,-1
 898 133 l 1,45,-1
 893 703 l 2,11,12
EndSplineSet
EndChar

StartChar: uni0D68
Encoding: 3432 3432 109
Width: 1908
GlyphClass: 2
Flags: W
LayerCount: 2
Fore
SplineSet
1051 5 m 1,0,-1
 993 110 l 1,1,2
 1012 122 1012 122 1029 134 c 1,3,4
 1094 185 1094 185 1140 269 c 0,5,6
 1211 398 1211 398 1211 588 c 0,7,8
 1210 792 1210 792 1102 929 c 128,-1,9
 994 1066 994 1066 784 1067 c 0,10,11
 583 1067 583 1067 469 914 c 0,12,13
 368 780 368 780 368 600 c 0,14,15
 368 599 368 599 369 598 c 2,16,-1
 370 597 l 1,17,18
 370 407 370 407 440.5 273.5 c 128,-1,19
 511 140 511 140 640 93 c 1,20,-1
 681 79 l 1,21,-1
 630 -48 l 1,22,-1
 594 -31 l 1,23,24
 392 39 392 39 283.5 199.5 c 128,-1,25
 175 360 175 360 175 567 c 2,26,-1
 175 575 l 1,27,28
 181 863 181 863 361 1022 c 128,-1,29
 541 1181 541 1181 796 1181 c 0,30,31
 1047 1181 1047 1181 1226 1017.5 c 128,-1,32
 1405 854 1405 854 1405 605 c 1,33,34
 1399 347 1399 347 1279 187 c 1,35,36
 1242 142 1242 142 1227 125 c 1,37,-1
 1890 125 l 1,38,-1
 1889 5 l 1,39,-1
 1051 5 l 1,0,-1
EndSplineSet
EndChar

StartChar: uni0D69
Encoding: 3433 3433 110
Width: 2498
GlyphClass: 2
Flags: W
LayerCount: 2
Fore
SplineSet
1767 4 m 1,0,-1
 1715 101 l 1,1,2
 1928 227 1928 227 1947 545 c 1,3,4
 1945 581 1945 581 1941 626 c 0,5,6
 1926 795 1926 795 1827 918 c 1,7,8
 1725 1055 1725 1055 1524 1065 c 1,9,10
 1346 1065 1346 1065 1255 903 c 1,11,12
 1245 879 1245 879 1240 836 c 1,13,-1
 1240 829 l 1,14,-1
 1239 831 l 1,15,16
 1234 786 1234 786 1234 723 c 2,17,-1
 1233 4 l 1,18,-1
 1065 4 l 1,19,-1
 1065 723 l 2,20,21
 1065 787 1065 787 1059.5 830.5 c 128,-1,22
 1054 874 1054 874 1045 898 c 1,23,24
 978 1045 978 1045 756 1060 c 1,25,26
 575 1036 575 1036 473 913 c 1,27,28
 374 790 374 790 359 631 c 1,29,30
 355 576 355 576 353 540 c 1,31,32
 372 222 372 222 592 111 c 1,33,-1
 645 85 l 1,34,-1
 587 -37 l 1,35,-1
 528 -15 l 1,36,37
 184 172 184 172 175 601 c 1,38,39
 177 636 177 636 178 648 c 0,40,41
 190 756 190 756 235.5 848.5 c 128,-1,42
 281 941 281 941 363 1017 c 1,43,-1
 363 1016 l 1,44,45
 382 1034 382 1034 406 1050.5 c 128,-1,46
 430 1067 430 1067 453 1082 c 0,47,48
 531 1129 531 1129 609 1153.5 c 128,-1,49
 687 1178 687 1178 764 1178 c 0,50,51
 990 1178 990 1178 1150 1035 c 1,52,53
 1310 1183 1310 1183 1536 1183 c 0,54,55
 1613 1183 1613 1183 1690.5 1158.5 c 128,-1,56
 1768 1134 1768 1134 1847 1087 c 1,57,58
 1870 1072 1870 1072 1893.5 1055.5 c 128,-1,59
 1917 1039 1917 1039 1937 1021 c 1,60,-1
 1937 1022 l 1,61,62
 2019 946 2019 946 2064.5 853.5 c 128,-1,63
 2110 761 2110 761 2122 643 c 0,64,65
 2123 631 2123 631 2125 606 c 1,66,67
 2119 307 2119 307 1950 125 c 1,68,-1
 2478 126 l 1,69,-1
 2480 3 l 1,70,-1
 1767 4 l 1,0,-1
EndSplineSet
EndChar

StartChar: uni0D6A
Encoding: 3434 3434 111
Width: 1442
GlyphClass: 2
Flags: W
LayerCount: 2
Fore
SplineSet
1260 555 m 0,0,1
 1257 903 1257 903 1054 1009 c 1,2,3
 952 1064 952 1064 860 1059 c 1,4,-1
 860 499 l 2,5,6
 860 423 860 423 867 356 c 128,-1,7
 874 289 874 289 888 231 c 0,8,9
 915 113 915 113 1022 98 c 1,10,11
 1091 91 1091 91 1143 142 c 0,12,13
 1167 165 1167 165 1188 200.5 c 128,-1,14
 1209 236 1209 236 1226 283 c 0,15,16
 1243 332 1243 332 1251.5 400 c 128,-1,17
 1260 468 1260 468 1260 555 c 0,0,1
852 1183 m 1,18,19
 1027 1180 1027 1180 1168 1087 c 1,20,21
 1428 925 1428 925 1428 522 c 0,22,23
 1428 419 1428 419 1403.5 328 c 128,-1,24
 1379 237 1379 237 1333 161 c 0,25,26
 1283 80 1283 80 1204.5 29.5 c 128,-1,27
 1126 -21 1126 -21 1014 -21 c 1,28,29
 835 0 835 0 757 138 c 1,30,31
 700 242 700 242 696 402 c 1,32,-1
 696 1058 l 1,33,34
 543 1040 543 1040 445 924 c 1,35,36
 341 794 341 794 345 542 c 1,37,38
 345 385 345 385 405.5 270 c 128,-1,39
 466 155 466 155 567 98 c 1,40,-1
 489 -25 l 1,41,42
 473 -15 473 -15 459 -5 c 0,43,44
 321 93 321 93 249 236.5 c 128,-1,45
 177 380 177 380 179 569 c 1,46,47
 179 855 179 855 346 1026 c 1,48,49
 413 1097 413 1097 500 1133 c 128,-1,50
 587 1169 587 1169 696 1180 c 1,51,-1
 696 1603 l 1,52,-1
 852 1603 l 1,53,-1
 852 1183 l 1,18,19
EndSplineSet
EndChar

StartChar: uni0D6B
Encoding: 3435 3435 112
Width: 1884
GlyphClass: 2
Flags: W
LayerCount: 2
Fore
SplineSet
1078 1031 m 1,0,1
 1156 1025 1156 1025 1218.5 1005 c 128,-1,2
 1281 985 1281 985 1333 953 c 1,3,4
 1407 902 1407 902 1448 832.5 c 128,-1,5
 1489 763 1489 763 1489 677 c 0,6,7
 1489 638 1489 638 1475 595.5 c 128,-1,8
 1461 553 1461 553 1435 507 c 1,9,10
 1411 471 1411 471 1387.5 443.5 c 128,-1,11
 1364 416 1364 416 1354 410 c 1,12,13
 1497 330 1497 330 1497 104 c 0,14,15
 1497 -8 1497 -8 1446.5 -95.5 c 128,-1,16
 1396 -183 1396 -183 1299 -245 c 1,17,18
 1216 -296 1216 -296 1119 -322.5 c 128,-1,19
 1022 -349 1022 -349 912 -349 c 0,20,21
 539 -349 539 -349 346 -115 c 0,22,23
 175 91 175 91 175 471 c 0,24,25
 175 853 175 853 415 1086 c 0,26,27
 656 1319 656 1319 1025 1319 c 256,28,29
 1394 1319 1394 1319 1630 1070 c 256,30,31
 1866 821 1866 821 1866 439 c 0,32,33
 1866 350 1866 350 1849 260.5 c 128,-1,34
 1832 171 1832 171 1797 79 c 0,35,36
 1723 -116 1723 -116 1613 -253 c 1,37,38
 1582 -228 1582 -228 1558.5 -211 c 128,-1,39
 1535 -194 1535 -194 1505 -171 c 1,40,41
 1592 -31 1592 -31 1636 120.5 c 128,-1,42
 1680 272 1680 272 1680 439 c 0,43,44
 1680 743 1680 743 1524 953 c 0,45,46
 1347 1192 1347 1192 1020 1192 c 0,47,48
 857 1192 857 1192 733.5 1131 c 128,-1,49
 610 1070 610 1070 526 952 c 1,50,51
 455 847 455 847 415 713 c 128,-1,52
 375 579 375 579 375 425 c 0,53,54
 375 171 375 171 493 -9 c 1,55,56
 564 -103 564 -103 669 -156.5 c 128,-1,57
 774 -210 774 -210 910 -210 c 0,58,59
 1073 -210 1073 -210 1195 -132 c 1,60,61
 1317 -42 1317 -42 1317 83 c 0,62,63
 1317 167 1317 167 1276 251 c 1,64,65
 1227 337 1227 337 1130 337 c 1,66,67
 1081 335 1081 335 1033.5 333 c 128,-1,68
 986 331 986 331 927 329 c 1,69,-1
 927 473 l 1,70,-1
 1130 464 l 1,71,72
 1168 464 1168 464 1200 482.5 c 128,-1,73
 1232 501 1232 501 1254 535 c 0,74,75
 1302 609 1302 609 1302 687 c 0,76,77
 1302 767 1302 767 1227 838 c 0,78,79
 1172 890 1172 890 1064 898 c 1,80,81
 891 902 891 902 784 783 c 1,82,83
 672 655 672 655 672 439 c 0,84,85
 672 332 672 332 707 226.5 c 128,-1,86
 742 121 742 121 811 12 c 1,87,-1
 717 -40 l 1,88,89
 660 10 660 10 619 66.5 c 128,-1,90
 578 123 578 123 547 190 c 1,91,92
 519 256 519 256 503 325 c 128,-1,93
 487 394 487 394 487 456 c 0,94,95
 487 706 487 706 654 870 c 1,96,97
 820 1030 820 1030 1078 1031 c 1,0,1
EndSplineSet
EndChar

StartChar: uni0D6C
Encoding: 3436 3436 113
Width: 2690
GlyphClass: 2
Flags: W
LayerCount: 2
Fore
SplineSet
1852 983 m 1,0,1
 1997 1178 1997 1178 2189 1178 c 0,2,3
 2433 1178 2433 1178 2561 962 c 1,4,5
 2668 789 2668 789 2672 518 c 1,6,7
 2671 271 2671 271 2646 97 c 128,-1,8
 2621 -77 2621 -77 2570 -183 c 0,9,10
 2520 -286 2520 -286 2452 -356.5 c 128,-1,11
 2384 -427 2384 -427 2299 -464 c 1,12,13
 2236 -486 2236 -486 2172 -497 c 128,-1,14
 2108 -508 2108 -508 2049 -505 c 1,15,16
 2007 -506 2007 -506 1959.5 -497 c 128,-1,17
 1912 -488 1912 -488 1858 -471 c 0,18,19
 1806 -455 1806 -455 1757 -426 c 128,-1,20
 1708 -397 1708 -397 1663 -356 c 1,21,-1
 1703 -236 l 1,22,23
 1797 -301 1797 -301 1882 -339 c 128,-1,24
 1967 -377 1967 -377 2056 -379 c 1,25,26
 2146 -378 2146 -378 2217.5 -356.5 c 128,-1,27
 2289 -335 2289 -335 2352 -265 c 0,28,29
 2384 -229 2384 -229 2407 -184.5 c 128,-1,30
 2430 -140 2430 -140 2444 -84 c 1,31,-1
 2444 -85 l 1,32,33
 2475 3 2475 3 2483 112 c 0,34,35
 2487 165 2487 165 2489.5 217 c 128,-1,36
 2492 269 2492 269 2494 316 c 0,37,38
 2495 336 2495 336 2495.5 357.5 c 128,-1,39
 2496 379 2496 379 2496 402 c 0,40,41
 2496 481 2496 481 2489.5 571.5 c 128,-1,42
 2483 662 2483 662 2469 745 c 1,43,44
 2462 794 2462 794 2450.5 837.5 c 128,-1,45
 2439 881 2439 881 2425 912 c 0,46,47
 2392 983 2392 983 2333 1020 c 128,-1,48
 2274 1057 2274 1057 2189 1057 c 0,49,50
 2099 1057 2099 1057 2028 978 c 0,51,52
 1958 901 1958 901 1949 817 c 1,53,-1
 1949 -9 l 1,54,-1
 1761 -9 l 1,55,-1
 1764 822 l 1,56,57
 1732 932 1732 932 1655.5 995 c 128,-1,58
 1579 1058 1579 1058 1453 1058 c 0,59,60
 1338 1058 1338 1058 1249 985 c 1,61,62
 1167 916 1167 916 1133 800 c 1,63,64
 1133 596 1133 596 1132.5 394.5 c 128,-1,65
 1132 193 1132 193 1132 -11 c 1,66,-1
 944 -11 l 1,67,-1
 944 809 l 1,68,69
 936 852 936 852 914.5 894.5 c 128,-1,70
 893 937 893 937 860 974 c 1,71,72
 822 1014 822 1014 779 1036.5 c 128,-1,73
 736 1059 736 1059 691 1059 c 0,74,75
 364 1059 364 1059 364 569 c 0,76,77
 364 430 364 430 412 289 c 0,78,79
 441 206 441 206 483.5 162 c 128,-1,80
 526 118 526 118 600 66 c 1,81,-1
 494 -31 l 1,82,83
 428 14 428 14 370 82.5 c 128,-1,84
 312 151 312 151 267 234 c 1,85,86
 222 320 222 320 198.5 405 c 128,-1,87
 175 490 175 490 175 569 c 0,88,89
 175 704 175 704 211 816.5 c 128,-1,90
 247 929 247 929 316 1012 c 1,91,92
 387 1092 387 1092 481.5 1136 c 128,-1,93
 576 1180 576 1180 691 1180 c 0,94,95
 900 1180 900 1180 1036 964 c 1,96,97
 1184 1179 1184 1179 1449 1179 c 0,98,99
 1715 1179 1715 1179 1848 983 c 1,100,-1
 1852 983 l 1,0,1
EndSplineSet
EndChar

StartChar: uni0D6D
Encoding: 3437 3437 114
Width: 1455
GlyphClass: 2
Flags: W
LayerCount: 2
Fore
SplineSet
354 597 m 1,0,1
 485 692 485 692 599 692 c 0,2,3
 670 692 670 692 737.5 670 c 128,-1,4
 805 648 805 648 862 609 c 1,5,6
 921 563 921 563 953.5 497.5 c 128,-1,7
 986 432 986 432 986 350 c 0,8,9
 986 186 986 186 871 87 c 0,10,11
 757 -10 757 -10 613 -10 c 0,12,13
 415 -10 415 -10 295 145 c 1,14,15
 175 298 175 298 175 509 c 0,16,17
 175 794 175 794 363 987 c 0,18,19
 551 1179 551 1179 827 1179 c 0,20,21
 1076 1179 1076 1179 1262 967 c 1,22,23
 1437 755 1437 755 1437 450 c 0,24,25
 1437 79 1437 79 1257 -162 c 0,26,27
 1061 -425 1061 -425 745 -425 c 0,28,29
 661 -425 661 -425 538 -391 c 1,30,31
 417 -356 417 -356 331 -289 c 1,32,33
 348 -254 348 -254 366.5 -220 c 128,-1,34
 385 -186 385 -186 402 -151 c 1,35,36
 583 -281 583 -281 739 -281 c 0,37,38
 1004 -281 1004 -281 1139 -48 c 0,39,40
 1251 147 1251 147 1251 450 c 0,41,42
 1251 572 1251 572 1225 676 c 128,-1,43
 1199 780 1199 780 1150 862 c 0,44,45
 1093 957 1093 957 1008 1008 c 128,-1,46
 923 1059 923 1059 816 1059 c 0,47,48
 611 1059 611 1059 475 908 c 1,49,50
 367 778 367 778 349 599 c 1,51,-1
 354 597 l 1,0,1
599 570 m 0,52,53
 441 570 441 570 364 419 c 1,54,55
 364 322 364 322 429 223 c 0,56,57
 503 111 503 111 607 111 c 0,58,59
 710 111 710 111 760 191 c 1,60,61
 801 254 801 254 801 343 c 0,62,63
 801 429 801 429 753 497 c 1,64,65
 694 570 694 570 599 570 c 0,52,53
EndSplineSet
EndChar

StartChar: uni0D6E
Encoding: 3438 3438 115
Width: 2014
GlyphClass: 2
Flags: W
LayerCount: 2
Fore
SplineSet
1812 -368 m 1,1,2
 1678 -476 1678 -476 1449 -478 c 1,3,4
 1243 -472 1243 -472 1048 -338 c 1,5,-1
 1156 -214 l 1,6,7
 1301 -342 1301 -342 1445 -342 c 0,8,9
 1764 -342 1764 -342 1795 5 c 1,10,-1
 1051 5 l 1,11,-1
 993 110 l 1,12,13
 1012 122 1012 122 1029 134 c 1,14,15
 1094 185 1094 185 1140 269 c 0,16,17
 1211 398 1211 398 1211 588 c 0,18,19
 1210 792 1210 792 1102 929 c 128,-1,20
 994 1066 994 1066 784 1067 c 0,21,22
 583 1067 583 1067 469 914 c 0,23,24
 368 780 368 780 368 600 c 0,25,26
 368 599 368 599 369 598 c 2,27,-1
 370 597 l 1,28,29
 370 407 370 407 440.5 273.5 c 128,-1,30
 511 140 511 140 640 93 c 1,31,-1
 681 79 l 1,32,-1
 630 -48 l 1,33,-1
 594 -31 l 1,34,35
 392 39 392 39 283.5 199.5 c 128,-1,36
 175 360 175 360 175 567 c 2,37,-1
 175 575 l 1,38,39
 181 863 181 863 361 1022 c 128,-1,40
 541 1181 541 1181 796 1181 c 0,41,42
 1047 1181 1047 1181 1226 1017.5 c 128,-1,43
 1405 854 1405 854 1405 605 c 1,44,45
 1399 347 1399 347 1279 187 c 1,46,47
 1242 142 1242 142 1227 125 c 1,48,-1
 1808 125 l 1,49,-1
 1808 1188 l 1,50,-1
 1996 1188 l 1,51,-1
 1996 25 l 1,52,0
 1972 -225 1972 -225 1812 -368 c 1,1,2
EndSplineSet
EndChar

StartChar: uni0D6F
Encoding: 3439 3439 116
Width: 2120
GlyphClass: 2
Flags: W
LayerCount: 2
Fore
SplineSet
1935 528 m 0,0,1
 1935 739 1935 739 1890.5 838.5 c 128,-1,2
 1846 938 1846 938 1756 1003 c 1,3,4
 1667 1059 1667 1059 1584 1059 c 1,5,-1
 1584 457 l 2,6,7
 1584 303 1584 303 1602 199 c 1,8,9
 1630 104 1630 104 1722 96 c 1,10,11
 1829 82 1829 82 1898 239 c 1,12,13
 1915 281 1915 281 1925 353 c 128,-1,14
 1935 425 1935 425 1935 528 c 0,0,1
1586 1187 m 1,15,16
 1728 1183 1728 1183 1858 1096 c 1,17,18
 1989 1007 1989 1007 2045.5 870 c 128,-1,19
 2102 733 2102 733 2102 511 c 1,20,21
 2097 273 2097 273 2023 135 c 1,22,23
 1929 -28 1929 -28 1737 -48 c 1,24,25
 1554 -40 1554 -40 1496 61 c 1,26,27
 1432 153 1432 153 1432 387 c 2,28,-1
 1432 1056 l 1,29,30
 1268 1050 1268 1050 1199 936 c 1,31,32
 1163 849 1163 849 1166 736 c 1,33,-1
 1166 -10 l 1,34,-1
 1020 -11 l 1,35,-1
 1020 736 l 2,36,37
 1020 868 1020 868 997 919 c 1,38,39
 898 1080 898 1080 715 1079 c 1,40,41
 532 1074 532 1074 436 948 c 1,42,43
 340 801 340 801 346 596 c 1,44,45
 346 451 346 451 420 303 c 0,46,47
 457 229 457 229 526.5 167.5 c 128,-1,48
 596 106 596 106 652 94 c 1,49,-1
 592 -30 l 1,50,51
 386 58 386 58 277 248 c 1,52,53
 175 417 175 417 175 610 c 0,54,55
 175 869 175 869 323 1033 c 1,56,57
 474 1198 474 1198 708 1198 c 0,58,59
 944 1198 944 1198 1094 1043 c 1,60,61
 1235 1176 1235 1176 1427 1185 c 1,62,-1
 1427 1638 l 1,63,-1
 1586 1638 l 1,64,-1
 1586 1187 l 1,15,16
EndSplineSet
EndChar

StartChar: uni0D70
Encoding: 3440 3440 117
Width: 2534
GlyphClass: 2
Flags: W
LayerCount: 2
Fore
SplineSet
1653 172 m 1,0,1
 1500 -16 1500 -16 1282 -16 c 0,2,3
 1102 -16 1102 -16 969 95 c 1,4,-1
 969 -149 l 1,5,6
 974 -334 974 -334 871 -440 c 1,7,8
 770 -547 770 -547 607 -547 c 1,9,10
 466 -548 466 -548 368.5 -503.5 c 128,-1,11
 271 -459 271 -459 216 -370 c 1,12,13
 192 -324 192 -324 175 -280 c 1,14,15
 210 -258 210 -258 246 -233.5 c 128,-1,16
 282 -209 282 -209 317 -185 c 1,17,18
 332 -241 332 -241 354 -272 c 1,19,-1
 353 -272 l 1,20,21
 383 -335 383 -335 432 -369 c 0,22,23
 481 -404 481 -404 579 -404 c 0,24,25
 676 -404 676 -404 737 -328 c 1,26,27
 791 -249 791 -249 786 -145 c 1,28,29
 786 190 786 190 785.5 520.5 c 128,-1,30
 785 851 785 851 785 1187 c 1,31,-1
 969 1187 l 1,32,-1
 969 501 l 1,33,34
 977 352 977 352 1037 243 c 1,35,36
 1128 106 1128 106 1282 106 c 0,37,38
 1339 106 1339 106 1388 126.5 c 128,-1,39
 1437 147 1437 147 1479 185 c 1,40,41
 1563 266 1563 266 1563 358 c 2,42,-1
 1563 1186 l 1,43,-1
 1751 1186 l 1,44,-1
 1751 353 l 2,45,46
 1751 288 1751 288 1813 205 c 1,47,48
 1889 106 1889 106 2018 106 c 0,49,50
 2183 106 2183 106 2266 263 c 1,51,52
 2329 388 2329 388 2329 555 c 0,53,54
 2329 661 2329 661 2300.5 763 c 128,-1,55
 2272 865 2272 865 2221 958 c 1,56,57
 2193 1006 2193 1006 2077 1111 c 1,58,-1
 2166 1214 l 1,59,60
 2264 1132 2264 1132 2314 1069 c 128,-1,61
 2364 1006 2364 1006 2412 931 c 1,62,63
 2462 835 2462 835 2489 735 c 128,-1,64
 2516 635 2516 635 2516 537 c 0,65,66
 2516 437 2516 437 2485 345 c 128,-1,67
 2454 253 2454 253 2397 173 c 1,68,69
 2326 83 2326 83 2232 33.5 c 128,-1,70
 2138 -16 2138 -16 2026 -16 c 0,71,72
 1796 -16 1796 -16 1657 172 c 1,73,-1
 1653 172 l 1,0,1
EndSplineSet
EndChar

StartChar: uni0D71
Encoding: 3441 3441 118
Width: 1929
GlyphClass: 2
Flags: W
LayerCount: 2
Fore
SplineSet
1052 994 m 1,0,1
 1194 1181 1194 1181 1420 1181 c 0,2,3
 1531 1181 1531 1181 1625 1131.5 c 128,-1,4
 1719 1082 1719 1082 1791 992 c 1,5,6
 1848 912 1848 912 1879 811.5 c 128,-1,7
 1910 711 1910 711 1911 592 c 1,8,9
 1909 369 1909 369 1883.5 206.5 c 128,-1,10
 1858 44 1858 44 1807 -60 c 0,11,12
 1757 -164 1757 -164 1689 -234 c 128,-1,13
 1621 -304 1621 -304 1536 -340 c 1,14,15
 1473 -363 1473 -363 1409 -373.5 c 128,-1,16
 1345 -384 1345 -384 1286 -381 c 1,17,18
 1204 -382 1204 -382 1095 -348 c 0,19,20
 1043 -331 1043 -331 993.5 -312 c 128,-1,21
 944 -293 944 -293 889 -254 c 1,22,-1
 930 -124 l 1,23,24
 1024 -189 1024 -189 1114 -221.5 c 128,-1,25
 1204 -254 1204 -254 1293 -256 c 1,26,27
 1382 -255 1382 -255 1454 -234 c 128,-1,28
 1526 -213 1526 -213 1588 -142 c 0,29,30
 1619 -106 1619 -106 1642.5 -62 c 128,-1,31
 1666 -18 1666 -18 1680 38 c 1,32,-1
 1680 37 l 1,33,34
 1712 125 1712 125 1720 235 c 0,35,36
 1724 289 1724 289 1726.5 338.5 c 128,-1,37
 1729 388 1729 388 1730 435 c 1,38,39
 1729 446 1729 446 1728.5 456 c 128,-1,40
 1728 466 1728 466 1728 475 c 0,41,42
 1726 515 1726 515 1725.5 550 c 128,-1,43
 1725 585 1725 585 1724 618 c 1,44,45
 1724 783 1724 783 1660 905 c 1,46,47
 1581 1059 1581 1059 1413 1059 c 0,48,49
 1350 1059 1350 1059 1298.5 1034.5 c 128,-1,50
 1247 1010 1247 1010 1209 963 c 0,51,52
 1181 927 1181 927 1163.5 888 c 128,-1,53
 1146 849 1146 849 1146 816 c 2,54,-1
 1146 -1 l 1,55,-1
 959 -1 l 1,56,-1
 959 811 l 2,57,58
 959 855 959 855 936.5 899 c 128,-1,59
 914 943 914 943 872 981 c 0,60,61
 830 1020 830 1020 784 1039.5 c 128,-1,62
 738 1059 738 1059 691 1059 c 0,63,64
 596 1059 596 1059 535.5 1024.5 c 128,-1,65
 475 990 475 990 433 925 c 1,66,67
 363 799 363 799 363 632 c 0,68,69
 363 509 363 509 379 428.5 c 128,-1,70
 395 348 395 348 427 270 c 1,71,72
 495 140 495 140 626 74 c 1,73,-1
 522 -34 l 1,74,75
 351 75 351 75 263 231 c 128,-1,76
 175 387 175 387 175 632 c 0,77,78
 175 737 175 737 210 835 c 128,-1,79
 245 933 245 933 301 1008 c 1,80,81
 374 1092 374 1092 466.5 1136.5 c 128,-1,82
 559 1181 559 1181 670 1181 c 0,83,84
 893 1181 893 1181 1048 994 c 1,85,-1
 1052 994 l 1,0,1
EndSplineSet
EndChar

StartChar: uni0D72
Encoding: 3442 3442 119
Width: 2863
GlyphClass: 2
Flags: W
LayerCount: 2
Fore
SplineSet
1823 640 m 1,0,1
 1781 641 1781 641 1752.5 641 c 128,-1,2
 1724 641 1724 641 1708 641 c 0,3,4
 1654 641 1654 641 1613 621.5 c 128,-1,5
 1572 602 1572 602 1546 566 c 0,6,7
 1492 491 1492 491 1492 379 c 0,8,9
 1492 268 1492 268 1545 189 c 0,10,11
 1599 110 1599 110 1709 110 c 0,12,13
 1818 110 1818 110 1874 196 c 0,14,15
 1901 237 1901 237 1919 281 c 128,-1,16
 1937 325 1937 325 1944 369 c 1,17,18
 1956 417 1956 417 1956 483 c 0,19,20
 1956 517 1956 517 1953.5 552 c 128,-1,21
 1951 587 1951 587 1946 628 c 1,22,-1
 1823 640 l 1,0,1
2463 775 m 1,23,-1
 2564 775 l 1,24,25
 2656 780 2656 780 2686 876 c 1,26,-1
 2702 961 l 2,27,28
 2704 977 2704 977 2705.5 992.5 c 128,-1,29
 2707 1008 2707 1008 2707 1023 c 0,30,31
 2707 1082 2707 1082 2689 1143 c 1,32,33
 2629 1274 2629 1274 2500 1274 c 0,34,35
 2400 1274 2400 1274 2375 1210 c 1,36,37
 2354 1140 2354 1140 2354 1018 c 2,38,-1
 2354 776 l 1,39,-1
 2463 775 l 1,23,-1
2125 631 m 1,40,-1
 2123 625 l 1,41,42
 2124 615 2124 615 2124.5 599.5 c 128,-1,43
 2125 584 2125 584 2125 564 c 2,44,-1
 2125 538 l 2,45,46
 2125 428 2125 428 2100.5 333 c 128,-1,47
 2076 238 2076 238 2030 162 c 1,48,49
 1970 71 1970 71 1885 21.5 c 128,-1,50
 1800 -28 1800 -28 1696 -28 c 0,51,52
 1524 -28 1524 -28 1425 89 c 1,53,54
 1326 208 1326 208 1326 382 c 0,55,56
 1326 559 1326 559 1433 669 c 0,57,58
 1486 724 1486 724 1554.5 753 c 128,-1,59
 1623 782 1623 782 1705 786 c 0,60,61
 1724 787 1724 787 1747 787.5 c 128,-1,62
 1770 788 1770 788 1790 789 c 1,63,-1
 1927 782 l 1,64,65
 1921 802 1921 802 1910.5 824 c 128,-1,66
 1900 846 1900 846 1884 871 c 1,67,68
 1846 936 1846 936 1782 982 c 128,-1,69
 1718 1028 1718 1028 1640 1048 c 1,70,71
 1582 1061 1582 1061 1532 1061 c 0,72,73
 1418 1061 1418 1061 1318 1015 c 1,74,75
 1149 932 1149 932 1149 722 c 1,76,77
 1148 543 1148 543 1147.5 364.5 c 128,-1,78
 1147 186 1147 186 1146 7 c 1,79,80
 1107 6 1107 6 1069.5 4.5 c 128,-1,81
 1032 3 1032 3 994 2 c 1,82,-1
 994 717 l 2,83,84
 994 840 994 840 977 885 c 1,85,86
 905 1052 905 1052 711 1052 c 2,87,-1
 707 1052 l 1,88,89
 529 1047 529 1047 444 914 c 1,90,91
 405 850 405 850 383 773.5 c 128,-1,92
 361 697 361 697 361 614 c 2,93,-1
 361 588 l 2,94,95
 361 446 361 446 425 303 c 0,96,97
 489 161 489 161 650 63 c 1,98,99
 633 37 633 37 616.5 12 c 128,-1,100
 600 -13 600 -13 582 -38 c 1,101,102
 382 52 382 52 278 224 c 0,103,104
 175 396 175 396 175 604 c 0,105,106
 175 860 175 860 322 1021 c 0,107,108
 472 1185 472 1185 697 1185 c 0,109,110
 925 1185 925 1185 1075 1026 c 1,111,112
 1160 1113 1160 1113 1268.5 1147.5 c 128,-1,113
 1377 1182 1377 1182 1514 1182 c 0,114,115
 1785 1182 1785 1182 1953 1032 c 1,116,117
 2051 927 2051 927 2102 775 c 1,118,-1
 2222 775 l 1,119,120
 2224 837 2224 837 2225.5 924.5 c 128,-1,121
 2227 1012 2227 1012 2227 1126 c 0,122,123
 2227 1256 2227 1256 2300 1331 c 0,124,125
 2374 1406 2374 1406 2488 1406 c 1,126,127
 2572 1405 2572 1405 2637.5 1379.5 c 128,-1,128
 2703 1354 2703 1354 2750 1306 c 1,129,130
 2796 1251 2796 1251 2820.5 1179 c 128,-1,131
 2845 1107 2845 1107 2845 1020 c 2,132,-1
 2845 1010 l 1,133,134
 2843 915 2843 915 2815.5 839 c 128,-1,135
 2788 763 2788 763 2740 709 c 1,136,137
 2705 674 2705 674 2649 653.5 c 128,-1,138
 2593 633 2593 633 2524 631 c 1,139,-1
 2125 631 l 1,40,-1
EndSplineSet
EndChar

StartChar: uni0D73
Encoding: 3443 3443 120
Width: 2043
GlyphClass: 2
Flags: W
LayerCount: 2
Fore
SplineSet
1360 602 m 0,0,1
 1334 324 1334 324 1149 165 c 1,2,3
 965 5 965 5 760 5 c 0,4,5
 545 5 545 5 360 168 c 256,6,7
 175 331 175 331 175 581 c 0,8,9
 175 832 175 832 357 1009 c 1,10,11
 542 1185 542 1185 791 1185 c 2,12,-1
 2025 1181 l 1,13,-1
 2024 1040 l 1,14,-1
 791 1040 l 2,15,16
 688 1040 688 1040 603 1000.5 c 128,-1,17
 518 961 518 961 460 896 c 0,18,19
 437 869 437 869 419 834 c 128,-1,20
 401 799 401 799 387.5 757 c 128,-1,21
 374 715 374 715 367 669 c 128,-1,22
 360 623 360 623 360 575 c 0,23,24
 360 405 360 405 475 266 c 1,25,26
 597 125 597 125 763 125 c 0,27,28
 918 125 918 125 1035 264 c 0,29,30
 1173 427 1173 427 1173 670 c 0,31,32
 1173 741 1173 741 1161 820 c 1,33,-1
 1345 842 l 1,34,35
 1354 807 1354 807 1359 766.5 c 128,-1,36
 1364 726 1364 726 1364 685 c 0,37,38
 1364 665 1364 665 1363 644 c 128,-1,39
 1362 623 1362 623 1360 602 c 0,0,1
EndSplineSet
EndChar

StartChar: uni0D74
Encoding: 3444 3444 121
Width: 1869
GlyphClass: 2
Flags: W
LayerCount: 2
Fore
SplineSet
598 103 m 0,0,1
 706 103 706 103 761 181 c 1,2,3
 818 260 818 260 818 374 c 0,4,5
 818 489 818 489 761 566 c 0,6,7
 705 642 705 642 599 642 c 0,8,9
 494 642 494 642 434 565 c 256,10,11
 374 488 374 488 374 379 c 0,12,13
 374 269 374 269 433 186 c 0,14,15
 493 103 493 103 598 103 c 0,0,1
1461 1011 m 1,16,17
 1268 752 1268 752 1268 432 c 1,18,19
 1282 77 1282 77 1480 77 c 0,20,21
 1670 77 1670 77 1688 542 c 1,22,23
 1670 835 1670 835 1536 962 c 1,24,25
 1515 980 1515 980 1497.5 992.5 c 128,-1,26
 1480 1005 1480 1005 1465 1012 c 1,27,-1
 1461 1011 l 1,16,17
987 1059 m 0,29,30
 963 1059 963 1059 939 1059 c 128,-1,31
 915 1059 915 1059 889 1058 c 0,32,33
 830 1056 830 1056 774 1048.5 c 128,-1,34
 718 1041 718 1041 670 1029 c 0,35,36
 590 1008 590 1008 526 968 c 128,-1,37
 462 928 462 928 422 862 c 0,38,39
 393 815 393 815 371.5 754.5 c 128,-1,40
 350 694 350 694 343 629 c 1,41,42
 360 647 360 647 378 662.5 c 128,-1,43
 396 678 396 678 417 692 c 0,44,45
 464 721 464 721 515 737 c 128,-1,46
 566 753 566 753 620 753 c 0,47,48
 774 753 774 753 880 648 c 0,49,50
 987 541 987 541 987 378 c 0,51,52
 987 214 987 214 888 103 c 1,53,54
 789 -11 789 -11 611 -11 c 0,55,56
 504 -11 504 -11 417.5 36.5 c 128,-1,57
 331 84 331 84 270 172 c 1,58,59
 224 243 224 243 199.5 333.5 c 128,-1,60
 175 424 175 424 175 527 c 2,61,-1
 175 554 l 2,62,63
 175 825 175 825 344 995 c 0,64,65
 384 1034 384 1034 441.5 1065 c 128,-1,66
 499 1096 499 1096 569 1118.5 c 128,-1,67
 639 1141 639 1141 719 1154.5 c 128,-1,68
 799 1168 799 1168 885 1173 c 1,69,70
 984 1176 984 1176 1084 1176 c 2,71,-1
 1151 1176 l 1,72,73
 1213 1172 1213 1172 1266 1167.5 c 128,-1,74
 1319 1163 1319 1163 1363 1157 c 1,75,76
 1400 1225 1400 1225 1400 1286 c 0,77,78
 1400 1316 1400 1316 1389.5 1345.5 c 128,-1,79
 1379 1375 1379 1375 1356 1401 c 1,80,81
 1332 1424 1332 1424 1305.5 1438.5 c 128,-1,82
 1279 1453 1279 1453 1246 1453 c 0,83,84
 1220 1453 1220 1453 1192 1444 c 1,85,-1
 1168 1438 l 1,86,87
 1151 1476 1151 1476 1136 1513.5 c 128,-1,88
 1121 1551 1121 1551 1105 1590 c 1,89,90
 1189 1617 1189 1617 1256 1613 c 1,91,92
 1371 1608 1371 1608 1450 1538 c 1,93,94
 1548 1444 1548 1444 1548 1301 c 0,95,96
 1548 1282 1548 1282 1546.5 1262.5 c 128,-1,97
 1545 1243 1545 1243 1541 1222 c 1,98,99
 1529 1173 1529 1173 1505 1113 c 1,100,101
 1618 1063 1618 1063 1687 992 c 0,102,103
 1851 824 1851 824 1851 547 c 0,104,105
 1851 411 1851 411 1816 280 c 1,106,107
 1743 -18 1743 -18 1488 -18 c 1,108,109
 1277 -29 1277 -29 1172 160 c 1,110,111
 1111 260 1111 260 1110 452 c 1,112,113
 1110 778 1110 778 1300 1040 c 1,114,115
 1276 1056 1276 1056 1165 1057.5 c 128,-1,28
 1054 1059 1054 1059 987 1059 c 0,29,30
EndSplineSet
EndChar

StartChar: uni0D75
Encoding: 3445 3445 122
Width: 2213
GlyphClass: 2
Flags: W
LayerCount: 2
Fore
SplineSet
599 654 m 256,0,1
 495 654 495 654 432 578 c 1,2,3
 372 503 372 503 372 356 c 0,4,5
 372 247 372 247 431 163 c 0,6,7
 491 79 491 79 597 79 c 0,8,9
 704 79 704 79 760 158 c 0,10,11
 817 237 817 237 817 352 c 0,12,13
 817 507 817 507 761 579 c 0,14,15
 703 654 703 654 599 654 c 256,0,1
1805 1019 m 1,16,17
 1612 765 1612 765 1612 437 c 1,18,19
 1624 94 1624 94 1823 94 c 0,20,21
 2014 94 2014 94 2032 563 c 1,22,23
 2011 917 2011 917 1808 1020 c 1,24,-1
 1805 1019 l 1,16,17
1269 900 m 0,25,26
 1247 845 1247 845 1247 724 c 2,27,-1
 1246 12 l 1,28,-1
 1086 12 l 1,29,-1
 1086 724 l 2,30,31
 1086 850 1086 850 1066 900 c 0,32,33
 1005 1055 1005 1055 794 1061 c 1,34,35
 712 1059 712 1059 673 1048 c 1,36,37
 592 1036 592 1036 527.5 989.5 c 128,-1,38
 463 943 463 943 420 875 c 1,39,40
 391 826 391 826 370.5 766.5 c 128,-1,41
 350 707 350 707 342 642 c 1,42,43
 373 678 373 678 415 706 c 1,44,45
 463 734 463 734 515.5 749.5 c 128,-1,46
 568 765 568 765 620 765 c 0,47,48
 773 765 773 765 879 662 c 0,49,50
 933 609 933 609 960 528 c 128,-1,51
 987 447 987 447 987 356 c 0,52,53
 987 194 987 194 887 81 c 0,54,55
 788 -31 788 -31 612 -31 c 0,56,57
 504 -31 504 -31 417.5 16.5 c 128,-1,58
 331 64 331 64 270 151 c 1,59,60
 224 222 224 222 199.5 316.5 c 128,-1,61
 175 411 175 411 175 543 c 2,62,-1
 175 568 l 2,63,64
 175 840 175 840 347 1009 c 1,65,66
 435 1093 435 1093 539.5 1135.5 c 128,-1,67
 644 1178 644 1178 770 1178 c 1,68,69
 895 1179 895 1179 994 1142.5 c 128,-1,70
 1093 1106 1093 1106 1168 1034 c 1,71,72
 1307 1178 1307 1178 1506 1182 c 1,73,74
 1638 1182 1638 1182 1707 1167 c 1,75,76
 1744 1236 1744 1236 1744 1295 c 0,77,78
 1744 1357 1744 1357 1701 1409 c 1,79,80
 1648 1460 1648 1460 1588 1460 c 0,81,82
 1561 1460 1561 1460 1536 1452 c 0,83,84
 1530 1450 1530 1450 1524 1449.5 c 128,-1,85
 1518 1449 1518 1449 1512 1447 c 1,86,-1
 1449 1597 l 1,87,88
 1532 1625 1532 1625 1600 1620 c 1,89,90
 1713 1615 1713 1615 1794 1546 c 1,91,92
 1841 1501 1841 1501 1866 1441 c 128,-1,93
 1891 1381 1891 1381 1891 1310 c 0,94,95
 1891 1272 1891 1272 1885 1233 c 0,96,97
 1880 1207 1880 1207 1870.5 1181 c 128,-1,98
 1861 1155 1861 1155 1848 1124 c 1,99,100
 1906 1100 1906 1100 1951.5 1070 c 128,-1,101
 1997 1040 1997 1040 2032 1005 c 0,102,103
 2195 839 2195 839 2195 563 c 0,104,105
 2195 408 2195 408 2160 278 c 1,106,107
 2087 -17 2087 -17 1833 -17 c 1,108,109
 1608 -26 1608 -26 1516 159 c 1,110,111
 1457 255 1457 255 1455 449 c 1,112,113
 1455 792 1455 792 1648 1059 c 1,114,115
 1621 1064 1621 1064 1597.5 1065.5 c 128,-1,116
 1574 1067 1574 1067 1554 1067 c 0,117,118
 1457 1067 1457 1067 1394 1032 c 1,119,120
 1300 978 1300 978 1269 900 c 0,25,26
EndSplineSet
EndChar

StartChar: uni0D79
Encoding: 3449 3449 126
Width: 2497
GlyphClass: 2
Flags: W
LayerCount: 2
Fore
SplineSet
1875 652 m 1,0,1
 1802 657 1802 657 1757 653 c 1,2,3
 1651 653 1651 653 1595 577.5 c 128,-1,4
 1539 502 1539 502 1539 381.5 c 128,-1,5
 1539 261 1539 261 1595.5 181 c 128,-1,6
 1652 101 1652 101 1759 101 c 0,7,8
 1865 101 1865 101 1924 187 c 128,-1,9
 1983 273 1983 273 1997 367 c 1,10,11
 2020 459 2020 459 1998 640 c 1,12,-1
 1875 652 l 1,0,1
1016 807 m 1,13,14
 1011 865 1011 865 999 895 c 0,15,16
 927 1066 927 1066 729 1066 c 2,17,-1
 726 1066 l 1,18,19
 547 1059 547 1059 459 924.5 c 128,-1,20
 371 790 371 790 371 616 c 2,21,-1
 371 591 l 2,22,23
 371 444 371 444 438.5 309 c 128,-1,24
 506 174 506 174 627 127 c 1,25,-1
 676 110 l 1,26,-1
 601 -30 l 1,27,-1
 565 -14 l 1,28,29
 384 64 384 64 279.5 234 c 128,-1,30
 175 404 175 404 175 605 c 0,31,32
 175 852 175 852 326 1015.5 c 128,-1,33
 477 1179 477 1179 716 1179 c 256,34,35
 955 1179 955 1179 1106 1034 c 1,36,-1
 1107 1023 l 1,37,38
 1274 1195 1274 1195 1556 1195 c 0,39,40
 1842 1195 1842 1195 2016 1022 c 0,41,42
 2119 919 2119 919 2170 768 c 1,43,-1
 2479 757 l 1,44,-1
 2477 605 l 1,45,-1
 2188 631 l 1,46,47
 2191 606 2191 606 2191 565 c 2,48,-1
 2191 540 l 2,49,50
 2191 322 2191 322 2094 172 c 0,51,52
 1971 -17 1971 -17 1744 -17 c 0,53,54
 1564 -17 1564 -17 1462.5 100 c 128,-1,55
 1361 217 1361 217 1361 385 c 0,56,57
 1361 554 1361 554 1469.5 663.5 c 128,-1,58
 1578 773 1578 773 1754 778 c 2,59,-1
 1842 780 l 1,60,-1
 1985 774 l 1,61,62
 1965 833 1965 833 1934 884 c 0,63,64
 1849 1022 1849 1022 1684 1060 c 0,65,66
 1626 1074 1626 1074 1576 1074 c 0,67,68
 1461 1074 1461 1074 1361 1028 c 0,69,70
 1217 962 1217 962 1189 807 c 1,71,-1
 1188 -9 l 1,72,-1
 1016 -9 l 1,73,-1
 1016 807 l 1,13,14
EndSplineSet
EndChar

StartChar: uni0D7A
Encoding: 3450 3450 127
Width: 3079
GlyphClass: 2
Flags: W
LayerCount: 2
Fore
SplineSet
2484 439 m 1,1,2
 2498 98 2498 98 2689 98 c 0,3,4
 2874 98 2874 98 2888 554 c 1,5,6
 2868 902 2868 902 2664 996 c 1,7,0
 2484 753 2484 753 2484 439 c 1,1,2
374 370 m 0,8,9
 374 259 374 259 433 173 c 256,10,11
 492 87 492 87 599 87 c 256,12,13
 706 87 706 87 765 167 c 0,14,15
 823 245 823 245 823 363 c 0,16,17
 823 502 823 502 765 576 c 1,18,19
 706 653 706 653 600 653 c 0,20,21
 496 653 496 653 434 575 c 0,22,23
 374 500 374 500 374 370 c 0,8,9
2393 1179 m 1,24,25
 2471 1173 2471 1173 2507.5 1167.5 c 128,-1,26
 2544 1162 2544 1162 2573 1153 c 1,27,28
 2607 1220 2607 1220 2607 1280 c 0,29,30
 2607 1344 2607 1344 2562 1398 c 1,31,32
 2509 1449 2509 1449 2447 1449 c 1,33,34
 2418 1450 2418 1450 2362 1430 c 1,35,-1
 2288 1583 l 1,36,37
 2339 1597 2339 1597 2383 1604 c 0,38,39
 2409 1608 2409 1608 2433 1608 c 0,40,41
 2448 1608 2448 1608 2461 1606 c 1,42,43
 2517 1604 2517 1604 2566.5 1585.5 c 128,-1,44
 2616 1567 2616 1567 2654 1534 c 1,45,46
 2710 1491 2710 1491 2741.5 1426.5 c 128,-1,47
 2773 1362 2773 1362 2773 1305 c 1,48,49
 2771 1196 2771 1196 2726 1108 c 1,50,51
 2828 1061 2828 1061 2897 991 c 0,52,53
 2978 909 2978 909 3019.5 800 c 128,-1,54
 3061 691 3061 691 3061 552 c 0,55,56
 3061 406 3061 406 3026 279 c 1,57,58
 2993 153 2993 153 2910 70 c 128,-1,59
 2827 -13 2827 -13 2693 -13 c 0,60,61
 2475 -13 2475 -13 2382 160 c 1,62,63
 2322 259 2322 259 2321 449 c 1,64,65
 2321 782 2321 782 2511 1043 c 1,66,67
 2466 1055 2466 1055 2383 1057 c 1,68,69
 2240 1057 2240 1057 2164 966 c 0,70,71
 2089 876 2089 876 2089 751 c 2,72,-1
 2089 5 l 1,73,-1
 1900 5 l 1,74,-1
 1900 751 l 2,75,76
 1900 876 1900 876 1841 961 c 1,77,78
 1782 1055 1782 1055 1649 1057 c 0,79,80
 1524 1059 1524 1059 1450 991 c 1,81,82
 1353 909 1353 909 1353 800 c 2,83,-1
 1353 5 l 1,84,-1
 1165 5 l 1,85,-1
 1165 832 l 2,86,87
 1165 898 1165 898 1078 971 c 1,88,89
 992 1045 992 1045 831 1059 c 1,90,91
 585 1057 585 1057 468 935 c 0,92,93
 350 812 350 812 363 656 c 1,94,95
 385 684 385 684 425 709 c 0,96,97
 514 765 514 765 624 765 c 0,98,99
 777 765 777 765 885 659 c 1,100,101
 992 552 992 552 992 367 c 0,102,103
 992 202 992 202 892 87 c 1,104,105
 791 -25 791 -25 613 -25 c 0,106,107
 389 -25 389 -25 270 158 c 0,108,109
 175 303 175 303 175 532 c 2,110,-1
 175 564 l 2,111,112
 175 844 175 844 347 1008 c 0,113,114
 435 1091 435 1091 556.5 1133.5 c 128,-1,115
 678 1176 678 1176 821 1178 c 1,116,117
 968 1171 968 1171 1070 1124.5 c 128,-1,118
 1172 1078 1172 1078 1257 980 c 1,119,120
 1407 1177 1407 1177 1637 1175 c 0,121,122
 1875 1173 1875 1173 1994 989 c 1,123,124
 2122 1172 2122 1172 2393 1179 c 1,24,25
EndSplineSet
Ligature2: "'haln' Halant Forms in Malay+AQEA-lam lookup 5 subtable" nh xx ZWJ
Ligature2: "'half' Half Forms in Malay+AQEA-lam lookup 1 subtable" nh xx ZWJ
Ligature2: "'akhn' Akhand in Malay+AQEA-lam lookup 0 subtable" nh xx ZWJ
EndChar

StartChar: uni0D7B
Encoding: 3451 3451 128
Width: 2167
GlyphClass: 2
Flags: W
LayerCount: 2
Fore
SplineSet
1572 439 m 1,1,2
 1586 98 1586 98 1777 98 c 0,3,4
 1962 98 1962 98 1976 544 c 1,5,6
 1956 902 1956 902 1752 996 c 1,7,0
 1572 753 1572 753 1572 439 c 1,1,2
1515 1063 m 1,8,9
 1454 1063 1454 1063 1407 1056 c 1,10,11
 1269 1023 1269 1023 1223 900 c 0,12,13
 1203 846 1203 846 1203 724 c 2,14,-1
 1202 -6 l 1,15,-1
 1030 -6 l 1,16,-1
 1030 724 l 2,17,18
 1030 788 1030 788 1024.5 831.5 c 128,-1,19
 1019 875 1019 875 1009 900 c 1,20,21
 979 967 979 967 929.5 1002.5 c 128,-1,22
 880 1038 880 1038 822 1052 c 0,23,24
 793 1059 793 1059 765 1060.5 c 128,-1,25
 737 1062 737 1062 714 1060 c 1,26,27
 628 1058 628 1058 560 1026 c 128,-1,28
 492 994 492 994 445 921 c 1,29,30
 365 793 365 793 365 602 c 1,31,32
 360 236 360 236 666 99 c 1,33,34
 649 69 649 69 632.5 39 c 128,-1,35
 616 9 616 9 599 -22 c 1,36,37
 591 -18 591 -18 582 -14.5 c 128,-1,38
 573 -11 573 -11 565 -7 c 0,39,40
 381 70 381 70 279 235 c 0,41,42
 226 319 226 319 200.5 410 c 128,-1,43
 175 501 175 501 175 602 c 0,44,45
 175 860 175 860 323 1017 c 1,46,47
 473 1179 473 1179 715 1179 c 0,48,49
 743 1179 743 1179 769 1177.5 c 128,-1,50
 795 1176 795 1176 820 1172 c 0,51,52
 992 1149 992 1149 1117 1032 c 1,53,54
 1165 1082 1165 1082 1230 1116 c 128,-1,55
 1295 1150 1295 1150 1380 1166 c 1,56,57
 1409 1173 1409 1173 1513 1177 c 1,58,59
 1559 1173 1559 1173 1595.5 1167.5 c 128,-1,60
 1632 1162 1632 1162 1661 1153 c 1,61,62
 1695 1220 1695 1220 1695 1280 c 0,63,64
 1695 1344 1695 1344 1650 1398 c 1,65,66
 1597 1449 1597 1449 1535 1449 c 1,67,68
 1481 1441 1481 1441 1450 1430 c 1,69,-1
 1376 1583 l 1,70,71
 1427 1597 1427 1597 1471 1604 c 0,72,73
 1497 1608 1497 1608 1521 1608 c 0,74,75
 1536 1608 1536 1608 1549 1606 c 1,76,77
 1605 1604 1605 1604 1654.5 1585.5 c 128,-1,78
 1704 1567 1704 1567 1742 1534 c 1,79,80
 1798 1491 1798 1491 1829.5 1426.5 c 128,-1,81
 1861 1362 1861 1362 1861 1305 c 1,82,83
 1859 1196 1859 1196 1814 1108 c 1,84,85
 1916 1061 1916 1061 1985 991 c 0,86,87
 2066 909 2066 909 2107.5 800 c 128,-1,88
 2149 691 2149 691 2149 542 c 0,89,90
 2149 406 2149 406 2114 279 c 1,91,92
 2081 153 2081 153 1998 70 c 128,-1,93
 1915 -13 1915 -13 1781 -13 c 0,94,95
 1563 -13 1563 -13 1470 160 c 1,96,97
 1410 259 1410 259 1409 449 c 1,98,99
 1409 782 1409 782 1599 1043 c 1,100,101
 1557 1062 1557 1062 1515 1063 c 1,8,9
EndSplineSet
Ligature2: "'haln' Halant Forms in Malay+AQEA-lam lookup 5 subtable" n1 xx ZWJ
Ligature2: "'half' Half Forms in Malay+AQEA-lam lookup 1 subtable" n1 xx ZWJ
Ligature2: "'akhn' Akhand in Malay+AQEA-lam lookup 0 subtable" n1 xx ZWJ
EndChar

StartChar: uni0D7C
Encoding: 3452 3452 129
Width: 1527
GlyphClass: 2
Flags: W
LayerCount: 2
Fore
SplineSet
932 429 m 1,1,2
 946 88 946 88 1137 88 c 0,3,4
 1322 88 1322 88 1336 534 c 1,5,6
 1316 902 1316 902 1112 996 c 1,7,0
 932 753 932 753 932 429 c 1,1,2
820 1059 m 1,8,9
 602 1062 602 1062 482.5 906.5 c 128,-1,10
 363 751 363 751 360 530 c 1,11,12
 377 212 377 212 603 99 c 1,13,-1
 644 83 l 1,14,-1
 574 -46 l 1,15,-1
 537 -28 l 1,16,17
 195 155 195 155 176 558 c 1,18,-1
 175 558 l 1,19,20
 182 840 182 840 349 1009 c 0,21,22
 522 1183 522 1183 824 1178 c 1,23,24
 919 1173 919 1173 955.5 1167.5 c 128,-1,25
 992 1162 992 1162 1021 1153 c 1,26,27
 1055 1220 1055 1220 1055 1280 c 0,28,29
 1055 1344 1055 1344 1010 1398 c 1,30,31
 957 1449 957 1449 895 1449 c 1,32,33
 841 1441 841 1441 810 1430 c 1,34,-1
 736 1583 l 1,35,36
 787 1597 787 1597 831 1604 c 0,37,38
 857 1608 857 1608 881 1608 c 0,39,40
 896 1608 896 1608 909 1606 c 1,41,42
 965 1604 965 1604 1014.5 1585.5 c 128,-1,43
 1064 1567 1064 1567 1102 1534 c 1,44,45
 1158 1491 1158 1491 1189.5 1426.5 c 128,-1,46
 1221 1362 1221 1362 1221 1305 c 1,47,48
 1219 1196 1219 1196 1174 1108 c 1,49,50
 1276 1061 1276 1061 1345 991 c 0,51,52
 1426 909 1426 909 1467.5 800 c 128,-1,53
 1509 691 1509 691 1509 532 c 0,54,55
 1509 396 1509 396 1474 269 c 1,56,57
 1441 143 1441 143 1358 60 c 128,-1,58
 1275 -23 1275 -23 1141 -23 c 0,59,60
 923 -23 923 -23 830 150 c 1,61,62
 770 249 770 249 769 439 c 1,63,64
 769 782 769 782 959 1043 c 1,65,66
 914 1055 914 1055 820 1059 c 1,8,9
EndSplineSet
Ligature2: "'haln' Halant Forms in Malay+AQEA-lam lookup 5 subtable" r3 xx ZWJ
Ligature2: "'half' Half Forms in Malay+AQEA-lam lookup 1 subtable" r3 xx ZWJ
Ligature2: "'akhn' Akhand in Malay+AQEA-lam lookup 0 subtable" r3 xx ZWJ
EndChar

StartChar: uni0D7D
Encoding: 3453 3453 130
Width: 2414
GlyphClass: 2
Flags: W
LayerCount: 2
Fore
SplineSet
1172 972 m 1,0,1
 882 813 882 813 882 489 c 0,2,3
 882 339 882 339 940 223 c 1,4,5
 1010 97 1010 97 1142 97 c 0,6,7
 1273 97 1273 97 1337 225 c 0,8,9
 1393 337 1393 337 1393 507 c 0,10,11
 1393 842 1393 842 1177 972 c 1,12,-1
 1172 972 l 1,0,1
1819 434 m 1,14,15
 1833 93 1833 93 2024 93 c 0,16,17
 2209 93 2209 93 2223 539 c 1,18,19
 2203 887 2203 887 1999 981 c 1,20,13
 1819 738 1819 738 1819 434 c 1,14,15
1577 1060 m 1,22,23
 1407 1051 1407 1051 1328 1022 c 1,24,25
 1559 879 1559 879 1573 547 c 1,26,27
 1573 335 1573 335 1473 178 c 0,28,29
 1354 -8 1354 -8 1142 -8 c 256,30,31
 930 -8 930 -8 806 174 c 1,32,33
 705 326 705 326 705 528 c 1,34,35
 727 874 727 874 1009 1033 c 1,36,37
 904 1059 904 1059 811 1059 c 0,38,39
 610 1059 610 1059 486 915 c 128,-1,40
 362 771 362 771 362 567 c 0,41,42
 362 261 362 261 582 95 c 2,43,-1
 623 64 l 1,44,-1
 526 -42 l 1,45,-1
 492 -17 l 1,46,47
 175 190 175 190 175 560 c 0,48,49
 175 835 175 835 348.5 1003.5 c 128,-1,50
 522 1172 522 1172 801 1172 c 0,51,52
 998 1172 998 1172 1148 1105 c 1,53,54
 1375 1188 1375 1188 1688 1171 c 1,55,56
 1857 1158 1857 1158 1908 1138 c 1,57,58
 1942 1205 1942 1205 1942 1265 c 0,59,60
 1942 1329 1942 1329 1897 1383 c 1,61,62
 1844 1434 1844 1434 1782 1434 c 1,63,64
 1728 1426 1728 1426 1697 1415 c 1,65,-1
 1623 1568 l 1,66,67
 1674 1582 1674 1582 1718 1589 c 0,68,69
 1744 1593 1744 1593 1768 1593 c 0,70,71
 1783 1593 1783 1593 1796 1591 c 1,72,73
 1852 1589 1852 1589 1901.5 1570.5 c 128,-1,74
 1951 1552 1951 1552 1989 1519 c 1,75,76
 2045 1476 2045 1476 2076.5 1411.5 c 128,-1,77
 2108 1347 2108 1347 2108 1290 c 1,78,79
 2106 1181 2106 1181 2061 1093 c 1,80,81
 2163 1046 2163 1046 2232 976 c 0,82,83
 2313 894 2313 894 2354.5 785 c 128,-1,84
 2396 676 2396 676 2396 537 c 0,85,86
 2396 401 2396 401 2361 274 c 1,87,88
 2328 148 2328 148 2245 65 c 128,-1,89
 2162 -18 2162 -18 2028 -18 c 0,90,91
 1810 -18 1810 -18 1717 155 c 1,92,93
 1657 254 1657 254 1656 444 c 1,94,95
 1656 767 1656 767 1846 1028 c 1,96,97
 1801 1040 1801 1040 1742 1050 c 128,-1,21
 1683 1060 1683 1060 1577 1060 c 1,22,23
EndSplineSet
Ligature2: "'haln' Halant Forms in Malay+AQEA-lam lookup 5 subtable" l3 xx ZWJ
Ligature2: "'half' Half Forms in Malay+AQEA-lam lookup 1 subtable" l3 xx ZWJ
Ligature2: "'akhn' Akhand in Malay+AQEA-lam lookup 0 subtable" l3 xx ZWJ
EndChar

StartChar: uni0D7E
Encoding: 3454 3454 131
Width: 2064
GlyphClass: 2
Flags: W
LayerCount: 2
Fore
SplineSet
1469 441 m 1,1,2
 1483 100 1483 100 1674 100 c 0,3,4
 1859 100 1859 100 1873 546 c 1,5,6
 1853 904 1853 904 1649 998 c 1,7,0
 1469 755 1469 755 1469 441 c 1,1,2
1409 1058 m 1,8,9
 1050 1058 1050 1058 1050 562 c 0,10,11
 1050 289 1050 289 950 146 c 1,12,13
 841 -12 841 -12 646 -12 c 0,14,15
 454 -12 454 -12 314 150 c 1,16,17
 175 313 175 313 175 579 c 0,18,19
 175 779 175 779 274 950 c 0,20,21
 325 1037 325 1037 391 1100.5 c 128,-1,22
 457 1164 457 1164 542 1209 c 1,23,-1
 637 1099 l 1,24,25
 545 1063 545 1063 453 930.5 c 128,-1,26
 361 798 361 798 361 579 c 0,27,28
 361 378 361 378 441 244 c 0,29,30
 522 107 522 107 636 107 c 0,31,32
 863 107 863 107 863 562 c 0,33,34
 863 1179 863 1179 1409 1179 c 1,35,36
 1456 1175 1456 1175 1492.5 1169.5 c 128,-1,37
 1529 1164 1529 1164 1558 1155 c 1,38,39
 1592 1222 1592 1222 1592 1282 c 0,40,41
 1592 1346 1592 1346 1547 1400 c 1,42,43
 1494 1451 1494 1451 1432 1451 c 1,44,45
 1378 1443 1378 1443 1347 1432 c 1,46,-1
 1273 1585 l 1,47,48
 1324 1599 1324 1599 1368 1606 c 0,49,50
 1394 1610 1394 1610 1418 1610 c 0,51,52
 1433 1610 1433 1610 1446 1608 c 1,53,54
 1502 1606 1502 1606 1551.5 1587.5 c 128,-1,55
 1601 1569 1601 1569 1639 1536 c 1,56,57
 1695 1493 1695 1493 1726.5 1428.5 c 128,-1,58
 1758 1364 1758 1364 1758 1307 c 1,59,60
 1756 1198 1756 1198 1711 1110 c 1,61,62
 1813 1063 1813 1063 1882 993 c 0,63,64
 1963 911 1963 911 2004.5 802 c 128,-1,65
 2046 693 2046 693 2046 544 c 0,66,67
 2046 408 2046 408 2011 281 c 1,68,69
 1978 155 1978 155 1895 72 c 128,-1,70
 1812 -11 1812 -11 1678 -11 c 0,71,72
 1460 -11 1460 -11 1367 162 c 1,73,74
 1307 261 1307 261 1306 451 c 1,75,76
 1306 784 1306 784 1496 1045 c 1,77,78
 1451 1057 1451 1057 1409 1058 c 1,8,9
EndSplineSet
Ligature2: "'haln' Halant Forms in Malay+AQEA-lam lookup 5 subtable" lh xx ZWJ
Ligature2: "'half' Half Forms in Malay+AQEA-lam lookup 1 subtable" lh xx ZWJ
Ligature2: "'akhn' Akhand in Malay+AQEA-lam lookup 0 subtable" lh xx ZWJ
EndChar

StartChar: uni0D7F
Encoding: 3455 3455 132
Width: 2224
GlyphClass: 2
Flags: W
LayerCount: 2
Fore
SplineSet
2042 306 m 0,0,1
 2042 339 2042 339 2036.5 373.5 c 128,-1,2
 2031 408 2031 408 2020 442 c 1,3,4
 1996 504 1996 504 1953 530 c 1,5,6
 1909 560 1909 560 1798 560 c 1,7,8
 1759 457 1759 457 1759 365 c 0,9,10
 1759 265 1759 265 1797 194 c 1,11,12
 1849 107 1849 107 1911 107 c 0,13,14
 2042 107 2042 107 2042 306 c 0,0,1
802 666 m 1,15,-1
 1338 666 l 1,16,17
 1334 794 1334 794 1311 873 c 0,18,19
 1286 957 1286 957 1224.5 1005 c 128,-1,20
 1163 1053 1163 1053 1086 1053 c 0,21,22
 806 1052 806 1052 802 666 c 1,15,-1
644 139 m 1,23,24
 693 180 693 180 712 223 c 1,25,26
 671 317 671 317 648 396 c 128,-1,27
 625 475 625 475 621 543 c 1,28,-1
 546 543 l 2,29,30
 461 543 461 543 402 468 c 1,31,32
 353 400 353 400 353 319 c 0,33,34
 353 97 353 97 534 97 c 0,35,36
 591 97 591 97 644 139 c 1,23,24
808 543 m 1,37,38
 814 364 814 364 883 227 c 1,39,40
 920 169 920 169 968.5 130.5 c 128,-1,41
 1017 92 1017 92 1073 92 c 0,42,43
 1187 92 1187 92 1262 227 c 1,44,45
 1333 365 1333 365 1339 543 c 1,46,-1
 808 543 l 1,37,38
2019 1182 m 1,47,48
 1986 1063 1986 1063 1902 854 c 0,49,50
 1884 807 1884 807 1827 672 c 1,51,52
 1847 672 1847 672 1869.5 671 c 128,-1,53
 1892 670 1892 670 1912 670 c 1,54,55
 1996 665 1996 665 2052 633 c 1,56,-1
 2051 633 l 1,57,58
 2206 537 2206 537 2206 318 c 0,59,60
 2206 169 2206 169 2128 74 c 1,61,62
 2051 -18 2051 -18 1941 -35 c 0,63,64
 1923 -38 1923 -38 1905 -38 c 0,65,66
 1860 -38 1860 -38 1814.5 -20 c 128,-1,67
 1769 -2 1769 -2 1724 31 c 1,68,69
 1674 72 1674 72 1640.5 141.5 c 128,-1,70
 1607 211 1607 211 1594 299 c 1,71,72
 1592 320 1592 320 1591 340.5 c 128,-1,73
 1590 361 1590 361 1590 380 c 0,74,75
 1590 468 1590 468 1612 553 c 1,76,-1
 1531 553 l 1,77,78
 1528 446 1528 446 1492 343 c 128,-1,79
 1456 240 1456 240 1397 154 c 1,80,81
 1328 66 1328 66 1249 20 c 128,-1,82
 1170 -26 1170 -26 1084 -26 c 0,83,84
 935 -26 935 -26 797 104 c 1,85,86
 784 118 784 118 772 133 c 1,87,-1
 767 133 l 1,88,89
 744 96 744 96 715.5 66 c 128,-1,90
 687 36 687 36 655 14 c 1,91,92
 620 -6 620 -6 589 -17.5 c 128,-1,93
 558 -29 558 -29 534 -29 c 0,94,95
 466 -29 466 -29 403.5 -5.5 c 128,-1,96
 341 18 341 18 285 63 c 1,97,98
 233 109 233 109 204 169.5 c 128,-1,99
 175 230 175 230 175 303 c 0,100,101
 175 453 175 453 278 554 c 1,102,103
 391 667 391 667 552 667 c 2,104,-1
 616 667 l 1,105,106
 627 855 627 855 710 979 c 1,107,108
 835 1170 835 1170 1076 1179 c 1,109,110
 1307 1168 1307 1168 1425 988 c 1,111,112
 1510 856 1510 856 1522 677 c 1,113,-1
 1526 680 l 1,114,-1
 1526 678 l 1,115,-1
 1657 678 l 1,116,117
 1715 807 1715 807 1854 1191 c 0,118,119
 1879 1262 1879 1262 1879 1304 c 0,120,121
 1879 1368 1879 1368 1834 1422 c 1,122,123
 1781 1473 1781 1473 1719 1473 c 1,124,125
 1665 1465 1665 1465 1634 1454 c 1,126,-1
 1560 1607 l 1,127,128
 1611 1621 1611 1621 1655 1628 c 0,129,130
 1681 1632 1681 1632 1705 1632 c 0,131,132
 1720 1632 1720 1632 1733 1630 c 1,133,134
 1789 1628 1789 1628 1838.5 1609.5 c 128,-1,135
 1888 1591 1888 1591 1926 1558 c 1,136,137
 1982 1515 1982 1515 2013.5 1450.5 c 128,-1,138
 2045 1386 2045 1386 2045 1329 c 1,139,140
 2043 1250 2043 1250 2019 1182 c 1,47,48
EndSplineSet
Ligature2: "'haln' Halant Forms in Malay+AQEA-lam lookup 5 subtable" k1 xx ZWJ
Ligature2: "'half' Half Forms in Malay+AQEA-lam lookup 1 subtable" k1 xx ZWJ
Ligature2: "'akhn' Akhand in Malay+AQEA-lam lookup 0 subtable" k1 xx ZWJ
EndChar

StartChar: uni25CC
Encoding: 9676 9676 135
Width: 1542
GlyphClass: 2
Flags: W
LayerCount: 2
Fore
SplineSet
1247 1094 m 1,0,1
 1339 1017 1339 1017 1401 921 c 1,2,3
 1432 870 1432 870 1453 811.5 c 128,-1,4
 1474 753 1474 753 1485 697 c 1,5,6
 1453 691 1453 691 1420 686 c 128,-1,7
 1387 681 1387 681 1355 675 c 1,8,9
 1338 766 1338 766 1290 846 c 128,-1,10
 1242 926 1242 926 1168 992 c 1,11,-1
 1247 1094 l 1,0,1
820 1116 m 0,12,13
 727 1116 727 1116 633 1082 c 1,14,15
 621 1112 621 1112 609.5 1141.5 c 128,-1,16
 598 1171 598 1171 585 1203 c 1,17,18
 647 1223 647 1223 706 1234 c 128,-1,19
 765 1245 765 1245 823 1245 c 0,20,21
 935 1245 935 1245 1048 1207 c 1,22,23
 1037 1175 1037 1175 1027.5 1145 c 128,-1,24
 1018 1115 1018 1115 1007 1084 c 1,25,26
 912 1116 912 1116 820 1116 c 0,12,13
1480 476 m 1,27,28
 1434 239 1434 239 1254 89 c 1,29,30
 1231 112 1231 112 1208.5 136 c 128,-1,31
 1186 160 1186 160 1163 182 c 1,32,33
 1239 247 1239 247 1285.5 322.5 c 128,-1,34
 1332 398 1332 398 1350 490 c 1,35,-1
 1480 476 l 1,27,28
154 695 m 1,36,37
 165 754 165 754 189 814 c 128,-1,38
 213 874 213 874 245 927 c 1,39,40
 273 968 273 968 309 1009.5 c 128,-1,41
 345 1051 345 1051 381 1082 c 1,42,43
 405 1059 405 1059 428.5 1038 c 128,-1,44
 452 1017 452 1017 476 995 c 1,45,46
 325 866 325 866 285 673 c 1,47,-1
 154 695 l 1,36,37
812 70 m 0,48,49
 904 70 904 70 1001 104 c 1,50,51
 1013 74 1013 74 1024.5 44.5 c 128,-1,52
 1036 15 1036 15 1048 -15 c 1,53,54
 924 -57 924 -57 811 -57 c 0,55,56
 757 -57 757 -57 702.5 -47 c 128,-1,57
 648 -37 648 -37 591 -16 c 1,58,59
 605 14 605 14 618.5 42 c 128,-1,60
 632 70 632 70 646 98 c 1,61,62
 687 83 687 83 728 76.5 c 128,-1,63
 769 70 769 70 812 70 c 0,48,49
289 499 m 1,64,65
 310 404 310 404 356 326 c 128,-1,66
 402 248 402 248 469 190 c 1,67,68
 448 165 448 165 428.5 141 c 128,-1,69
 409 117 409 117 388 91 c 1,70,71
 204 246 204 246 161 471 c 1,72,-1
 289 499 l 1,64,65
EndSplineSet
EndChar

StartChar: r4
Encoding: 65539 -1 137
Width: 573
GlyphClass: 3
Flags: W
LayerCount: 2
Fore
SplineSet
733 -165 m 1,0,-1
 733 -297 l 1,1,2
 664 -305 664 -305 608 -305 c 0,3,4
 333 -305 333 -305 215 -146 c 1,5,6
 114 -7 114 -7 114 267 c 0,7,8
 114 653 114 653 379 1196 c 1,9,-1
 542 1196 l 1,10,11
 274 590 274 590 274 253 c 0,12,13
 274 -183 274 -183 592 -183 c 0,14,15
 661 -183 661 -183 733 -165 c 1,0,-1
EndSplineSet
Ligature2: "'pstf' Post Base Forms in Malay+AQEA-lam lookup 6 subtable" r3 xx
EndChar

StartChar: y2
Encoding: 65540 -1 138
Width: 659
GlyphClass: 3
Flags: W
LayerCount: 2
Fore
SplineSet
-37 -263 m 0,0,1
 -49 -243 -49 -243 -58 -220.5 c 128,-1,2
 -67 -198 -67 -198 -75 -175 c 1,3,4
 -43 -151 -43 -151 -9.5 -129 c 128,-1,5
 24 -107 24 -107 57 -83 c 1,6,7
 65 -112 65 -112 73.5 -134 c 128,-1,8
 82 -156 82 -156 92 -173 c 0,9,10
 106 -199 106 -199 125 -222 c 128,-1,11
 144 -245 144 -245 167 -261 c 0,12,13
 214 -295 214 -295 306 -295 c 0,14,15
 399 -295 399 -295 455 -222 c 1,16,17
 507 -146 507 -146 505 -45 c 0,18,19
 504 3 504 3 475.5 70.5 c 128,-1,20
 447 138 447 138 398 212 c 0,21,22
 295 369 295 369 241.5 514 c 128,-1,23
 188 659 188 659 186 787 c 1,24,25
 180 874 180 874 216 993 c 0,26,27
 234 1051 234 1051 268 1108.5 c 128,-1,28
 302 1166 302 1166 351 1222 c 1,29,30
 390 1210 390 1210 429 1197 c 128,-1,31
 468 1184 468 1184 507 1171 c 1,32,33
 484 1148 484 1148 465 1125.5 c 128,-1,34
 446 1103 446 1103 432 1079 c 1,35,-1
 433 1079 l 1,36,37
 356 973 356 973 354 743 c 0,38,39
 352 516 352 516 519 282 c 1,40,41
 569 216 569 216 595.5 178 c 128,-1,42
 622 140 622 140 627 131 c 0,43,44
 680 32 680 32 680 -96 c 0,45,46
 680 -225 680 -225 583 -330 c 0,47,48
 485 -435 485 -435 333 -435 c 0,49,50
 64 -436 64 -436 -37 -263 c 0,0,1
EndSplineSet
Ligature2: "'pstf' Post Base Forms in Malay+AQEA-lam lookup 6 subtable" y1 xx
EndChar

